G75*
%MOIN*%
%OFA0B0*%
%FSLAX25Y25*%
%IPPOS*%
%LPD*%
%AMOC8*
5,1,8,0,0,1.08239X$1,22.5*
%
%ADD10C,0.00000*%
%ADD11C,0.00500*%
%ADD12C,0.01200*%
%ADD13C,0.00600*%
%ADD14C,0.00800*%
%ADD15C,0.00400*%
%ADD16C,0.01600*%
%ADD17C,0.01000*%
%ADD18C,0.02500*%
%ADD19C,0.00700*%
%ADD20R,0.00591X0.01181*%
%ADD21R,0.01181X0.01181*%
%ADD22C,0.00787*%
D10*
X0001256Y0001256D02*
X0001256Y0198106D01*
X0198106Y0198106D01*
X0198106Y0001256D01*
X0001256Y0001256D01*
X0195715Y0153667D02*
X0195715Y0186344D01*
D11*
X0192031Y0189616D02*
X0192532Y0190117D01*
X0192532Y0190617D01*
X0192031Y0191117D01*
X0190530Y0191117D01*
X0189309Y0190617D02*
X0189309Y0190117D01*
X0188809Y0189616D01*
X0187808Y0189616D01*
X0187307Y0190117D01*
X0187808Y0191117D02*
X0187307Y0191618D01*
X0187307Y0192118D01*
X0187808Y0192619D01*
X0188809Y0192619D01*
X0189309Y0192118D01*
X0188809Y0191117D02*
X0189309Y0190617D01*
X0188809Y0191117D02*
X0187808Y0191117D01*
X0186086Y0190117D02*
X0185586Y0189616D01*
X0184585Y0189616D01*
X0184085Y0190117D01*
X0184085Y0192619D01*
X0186086Y0192619D02*
X0186086Y0190117D01*
X0190530Y0189616D02*
X0192031Y0189616D01*
X0190530Y0189616D02*
X0190530Y0192619D01*
X0192031Y0192619D01*
X0192532Y0192118D01*
X0192532Y0191618D01*
X0192031Y0191117D01*
X0165480Y0165881D02*
X0163479Y0165881D01*
X0164480Y0165881D02*
X0164480Y0168883D01*
X0163479Y0167883D01*
X0162258Y0168383D02*
X0162258Y0166381D01*
X0161757Y0165881D01*
X0160256Y0165881D01*
X0160256Y0168883D01*
X0161757Y0168883D01*
X0162258Y0168383D01*
X0164956Y0161083D02*
X0166958Y0161083D01*
X0165957Y0161083D02*
X0165957Y0158081D01*
X0168179Y0158581D02*
X0168679Y0158081D01*
X0169680Y0158081D01*
X0170180Y0158581D01*
X0170180Y0159582D01*
X0169680Y0160083D01*
X0169180Y0160083D01*
X0168179Y0159582D01*
X0168179Y0161083D01*
X0170180Y0161083D01*
X0171401Y0161083D02*
X0171401Y0159082D01*
X0172402Y0158081D01*
X0173403Y0159082D01*
X0173403Y0161083D01*
X0183554Y0151308D02*
X0185555Y0151308D01*
X0184554Y0151308D02*
X0184554Y0148306D01*
X0186776Y0148806D02*
X0187277Y0148306D01*
X0188278Y0148306D01*
X0188778Y0148806D01*
X0188778Y0149307D01*
X0188278Y0149807D01*
X0187777Y0149807D01*
X0188278Y0149807D02*
X0188778Y0150308D01*
X0188778Y0150808D01*
X0188278Y0151308D01*
X0187277Y0151308D01*
X0186776Y0150808D01*
X0189999Y0148806D02*
X0190499Y0148806D01*
X0190499Y0148306D01*
X0189999Y0148306D01*
X0189999Y0148806D01*
X0191610Y0148806D02*
X0192111Y0148306D01*
X0193112Y0148306D01*
X0193612Y0148806D01*
X0193612Y0149307D01*
X0193112Y0149807D01*
X0192611Y0149807D01*
X0193112Y0149807D02*
X0193612Y0150308D01*
X0193612Y0150808D01*
X0193112Y0151308D01*
X0192111Y0151308D01*
X0191610Y0150808D01*
X0194833Y0151308D02*
X0194833Y0149307D01*
X0195834Y0148306D01*
X0196835Y0149307D01*
X0196835Y0151308D01*
X0189255Y0122980D02*
X0189756Y0122480D01*
X0189756Y0121479D01*
X0189255Y0120979D01*
X0189756Y0119758D02*
X0188755Y0118757D01*
X0188755Y0119257D02*
X0188755Y0117756D01*
X0189756Y0117756D02*
X0186753Y0117756D01*
X0186753Y0119257D01*
X0187254Y0119758D01*
X0188255Y0119758D01*
X0188755Y0119257D01*
X0187254Y0120979D02*
X0186753Y0121479D01*
X0186753Y0122480D01*
X0187254Y0122980D01*
X0187754Y0122980D01*
X0188255Y0122480D01*
X0188755Y0122980D01*
X0189255Y0122980D01*
X0188255Y0122480D02*
X0188255Y0121980D01*
X0167256Y0121076D02*
X0164253Y0121076D01*
X0164253Y0122578D01*
X0164754Y0123078D01*
X0165755Y0123078D01*
X0166255Y0122578D01*
X0166255Y0121076D01*
X0167256Y0119855D02*
X0167256Y0117854D01*
X0164253Y0117854D01*
X0164253Y0119855D01*
X0165755Y0118855D02*
X0165755Y0117854D01*
X0167256Y0116633D02*
X0167256Y0114631D01*
X0164253Y0114631D01*
X0164253Y0116633D01*
X0165755Y0115632D02*
X0165755Y0114631D01*
X0160780Y0109660D02*
X0161281Y0109159D01*
X0161281Y0108159D01*
X0160780Y0107658D01*
X0158779Y0107658D01*
X0158278Y0108159D01*
X0158278Y0109159D01*
X0158779Y0109660D01*
X0160780Y0109660D01*
X0158506Y0110256D02*
X0158506Y0107256D01*
X0158278Y0106437D02*
X0161281Y0104435D01*
X0161281Y0106437D02*
X0158278Y0104435D01*
X0157406Y0102306D02*
X0157406Y0110206D01*
X0147606Y0110206D01*
X0147606Y0102306D01*
X0157406Y0102306D01*
X0158003Y0096383D02*
X0157502Y0095883D01*
X0158003Y0096383D02*
X0159003Y0096383D01*
X0159504Y0095883D01*
X0159504Y0095383D01*
X0157502Y0093381D01*
X0159504Y0093381D01*
X0156281Y0093881D02*
X0155781Y0093381D01*
X0154780Y0093381D01*
X0154279Y0093881D01*
X0154279Y0095883D01*
X0154780Y0096383D01*
X0155781Y0096383D01*
X0156281Y0095883D01*
X0153132Y0096383D02*
X0152131Y0096383D01*
X0152631Y0096383D02*
X0152631Y0093381D01*
X0152131Y0093381D02*
X0153132Y0093381D01*
X0139506Y0100685D02*
X0136503Y0100685D01*
X0136503Y0102187D01*
X0137004Y0102687D01*
X0138005Y0102687D01*
X0138505Y0102187D01*
X0138505Y0100685D01*
X0138505Y0101686D02*
X0139506Y0102687D01*
X0138005Y0103908D02*
X0138005Y0105910D01*
X0139506Y0105409D02*
X0136503Y0105409D01*
X0138005Y0103908D01*
X0138505Y0108810D02*
X0138505Y0110312D01*
X0138005Y0110812D01*
X0137004Y0110812D01*
X0136503Y0110312D01*
X0136503Y0108810D01*
X0139506Y0108810D01*
X0138505Y0109811D02*
X0139506Y0110812D01*
X0139506Y0112033D02*
X0139506Y0114035D01*
X0139506Y0113034D02*
X0136503Y0113034D01*
X0137504Y0112033D01*
X0133256Y0112033D02*
X0131254Y0114035D01*
X0130754Y0114035D01*
X0130253Y0113534D01*
X0130253Y0112534D01*
X0130754Y0112033D01*
X0130754Y0110812D02*
X0131755Y0110812D01*
X0132255Y0110312D01*
X0132255Y0108810D01*
X0133256Y0108810D02*
X0130253Y0108810D01*
X0130253Y0110312D01*
X0130754Y0110812D01*
X0132255Y0109811D02*
X0133256Y0110812D01*
X0133256Y0112033D02*
X0133256Y0114035D01*
X0128506Y0113381D02*
X0128506Y0115383D01*
X0128506Y0116604D02*
X0125503Y0116604D01*
X0125503Y0118605D01*
X0125503Y0119826D02*
X0125503Y0121328D01*
X0126004Y0121828D01*
X0128005Y0121828D01*
X0128506Y0121328D01*
X0128506Y0119826D01*
X0125503Y0119826D01*
X0127005Y0117605D02*
X0127005Y0116604D01*
X0128506Y0116604D02*
X0128506Y0118605D01*
X0127005Y0123049D02*
X0127005Y0125051D01*
X0128506Y0124550D02*
X0125503Y0124550D01*
X0127005Y0123049D01*
X0125503Y0113381D02*
X0128506Y0113381D01*
X0128005Y0107980D02*
X0127005Y0107980D01*
X0126504Y0107480D01*
X0126504Y0106980D01*
X0127005Y0105979D01*
X0125503Y0105979D01*
X0125503Y0107980D01*
X0128005Y0107980D02*
X0128506Y0107480D01*
X0128506Y0106479D01*
X0128005Y0105979D01*
X0128506Y0104758D02*
X0127505Y0103757D01*
X0127505Y0104257D02*
X0127505Y0102756D01*
X0128506Y0102756D02*
X0125503Y0102756D01*
X0125503Y0104257D01*
X0126004Y0104758D01*
X0127005Y0104758D01*
X0127505Y0104257D01*
X0114328Y0110256D02*
X0112827Y0111757D01*
X0112326Y0111257D02*
X0114328Y0113258D01*
X0112326Y0113258D02*
X0112326Y0110256D01*
X0111105Y0110756D02*
X0110605Y0110256D01*
X0109604Y0110256D01*
X0109104Y0110756D01*
X0109104Y0112758D01*
X0109604Y0113258D01*
X0110605Y0113258D01*
X0111105Y0112758D01*
X0107883Y0112758D02*
X0107382Y0113258D01*
X0106381Y0113258D01*
X0105881Y0112758D01*
X0105881Y0112258D01*
X0106381Y0111757D01*
X0107382Y0111757D01*
X0107883Y0111257D01*
X0107883Y0110756D01*
X0107382Y0110256D01*
X0106381Y0110256D01*
X0105881Y0110756D01*
X0105881Y0103258D02*
X0107382Y0103258D01*
X0107883Y0102758D01*
X0107883Y0100756D01*
X0107382Y0100256D01*
X0105881Y0100256D01*
X0105881Y0103258D01*
X0109104Y0102758D02*
X0109104Y0100756D01*
X0109604Y0100256D01*
X0110605Y0100256D01*
X0111105Y0100756D01*
X0111105Y0102758D01*
X0110605Y0103258D01*
X0109604Y0103258D01*
X0109104Y0102758D01*
X0109104Y0093883D02*
X0110105Y0093883D01*
X0109604Y0093883D02*
X0109604Y0090881D01*
X0109104Y0090881D02*
X0110105Y0090881D01*
X0107883Y0091381D02*
X0107883Y0093383D01*
X0107382Y0093883D01*
X0105881Y0093883D01*
X0105881Y0090881D01*
X0107382Y0090881D01*
X0107883Y0091381D01*
X0105756Y0084576D02*
X0105756Y0078131D01*
X0106753Y0078881D02*
X0107254Y0078381D01*
X0109255Y0078381D01*
X0109756Y0078881D01*
X0109756Y0079882D01*
X0109255Y0080383D01*
X0109255Y0081604D02*
X0109756Y0082104D01*
X0109756Y0083105D01*
X0109255Y0083605D01*
X0108755Y0083605D01*
X0108255Y0083105D01*
X0108255Y0082104D01*
X0107754Y0081604D01*
X0107254Y0081604D01*
X0106753Y0082104D01*
X0106753Y0083105D01*
X0107254Y0083605D01*
X0107254Y0080383D02*
X0106753Y0079882D01*
X0106753Y0078881D01*
X0107004Y0064660D02*
X0106503Y0064159D01*
X0106503Y0063159D01*
X0107004Y0062658D01*
X0107504Y0062658D01*
X0108005Y0063159D01*
X0108005Y0064159D01*
X0108505Y0064660D01*
X0109005Y0064660D01*
X0109506Y0064159D01*
X0109506Y0063159D01*
X0109005Y0062658D01*
X0109506Y0061437D02*
X0106503Y0061437D01*
X0107504Y0060436D01*
X0106503Y0059435D01*
X0109506Y0059435D01*
X0109506Y0057213D02*
X0106503Y0057213D01*
X0106503Y0056213D02*
X0106503Y0058214D01*
X0106882Y0050133D02*
X0106882Y0047131D01*
X0109104Y0047131D02*
X0109104Y0050133D01*
X0110605Y0050133D01*
X0111105Y0049633D01*
X0111105Y0047631D01*
X0110605Y0047131D01*
X0109104Y0047131D01*
X0107883Y0050133D02*
X0105881Y0050133D01*
X0112326Y0049633D02*
X0112326Y0047631D01*
X0112827Y0047131D01*
X0113828Y0047131D01*
X0114328Y0047631D01*
X0114328Y0049633D01*
X0113828Y0050133D01*
X0112827Y0050133D01*
X0112326Y0049633D01*
X0112358Y0042883D02*
X0112358Y0039881D01*
X0112858Y0039881D02*
X0111857Y0039881D01*
X0110636Y0040381D02*
X0110636Y0042383D01*
X0110136Y0042883D01*
X0108635Y0042883D01*
X0108635Y0039881D01*
X0110136Y0039881D01*
X0110636Y0040381D01*
X0111857Y0042883D02*
X0112858Y0042883D01*
X0107414Y0042883D02*
X0105412Y0042883D01*
X0106413Y0042883D02*
X0106413Y0039881D01*
X0105878Y0035910D02*
X0107880Y0033908D01*
X0107380Y0034409D02*
X0108881Y0035910D01*
X0108881Y0033908D02*
X0105878Y0033908D01*
X0106379Y0032687D02*
X0105878Y0032187D01*
X0105878Y0031186D01*
X0106379Y0030685D01*
X0108380Y0030685D01*
X0108881Y0031186D01*
X0108881Y0032187D01*
X0108380Y0032687D01*
X0105878Y0029464D02*
X0105878Y0027463D01*
X0105878Y0028463D02*
X0108881Y0028463D01*
X0110131Y0014758D02*
X0111132Y0014758D01*
X0111633Y0014258D01*
X0111633Y0013758D01*
X0111132Y0013257D01*
X0111633Y0012757D01*
X0111633Y0012256D01*
X0111132Y0011756D01*
X0110131Y0011756D01*
X0109631Y0012256D01*
X0110632Y0013257D02*
X0111132Y0013257D01*
X0109631Y0014258D02*
X0110131Y0014758D01*
X0112854Y0012256D02*
X0113354Y0012256D01*
X0113354Y0011756D01*
X0112854Y0011756D01*
X0112854Y0012256D01*
X0114465Y0012256D02*
X0114965Y0011756D01*
X0115966Y0011756D01*
X0116467Y0012256D01*
X0116467Y0012757D01*
X0115966Y0013257D01*
X0115466Y0013257D01*
X0115966Y0013257D02*
X0116467Y0013758D01*
X0116467Y0014258D01*
X0115966Y0014758D01*
X0114965Y0014758D01*
X0114465Y0014258D01*
X0117688Y0014758D02*
X0117688Y0012757D01*
X0118689Y0011756D01*
X0119689Y0012757D01*
X0119689Y0014758D01*
X0123628Y0015578D02*
X0125630Y0013576D01*
X0125130Y0014077D02*
X0126631Y0015578D01*
X0126631Y0013576D02*
X0123628Y0013576D01*
X0124129Y0012355D02*
X0123628Y0011855D01*
X0123628Y0010854D01*
X0124129Y0010354D01*
X0126130Y0010354D01*
X0126631Y0010854D01*
X0126631Y0011855D01*
X0126130Y0012355D01*
X0123628Y0009133D02*
X0123628Y0007131D01*
X0123628Y0008132D02*
X0126631Y0008132D01*
X0133628Y0008132D02*
X0136631Y0008132D01*
X0136631Y0010354D02*
X0136631Y0011855D01*
X0136130Y0012355D01*
X0134129Y0012355D01*
X0133628Y0011855D01*
X0133628Y0010354D01*
X0136631Y0010354D01*
X0136631Y0013576D02*
X0136631Y0014577D01*
X0136631Y0014077D02*
X0133628Y0014077D01*
X0133628Y0014577D02*
X0133628Y0013576D01*
X0133628Y0009133D02*
X0133628Y0007131D01*
X0144253Y0007131D02*
X0144253Y0009133D01*
X0144253Y0008132D02*
X0147256Y0008132D01*
X0147256Y0010354D02*
X0144253Y0010354D01*
X0144253Y0011855D01*
X0144754Y0012355D01*
X0146755Y0012355D01*
X0147256Y0011855D01*
X0147256Y0010354D01*
X0146755Y0013576D02*
X0144754Y0013576D01*
X0144253Y0014077D01*
X0144253Y0015078D01*
X0144754Y0015578D01*
X0146755Y0015578D01*
X0147256Y0015078D01*
X0147256Y0014077D01*
X0146755Y0013576D01*
X0153628Y0014077D02*
X0154129Y0013576D01*
X0154629Y0013576D01*
X0155130Y0014077D01*
X0155130Y0015078D01*
X0155630Y0015578D01*
X0156130Y0015578D01*
X0156631Y0015078D01*
X0156631Y0014077D01*
X0156130Y0013576D01*
X0156631Y0012355D02*
X0153628Y0012355D01*
X0154629Y0011355D01*
X0153628Y0010354D01*
X0156631Y0010354D01*
X0156631Y0008132D02*
X0153628Y0008132D01*
X0153628Y0007131D02*
X0153628Y0009133D01*
X0153628Y0014077D02*
X0153628Y0015078D01*
X0154129Y0015578D01*
X0148567Y0040256D02*
X0146565Y0040256D01*
X0146565Y0043258D01*
X0145344Y0043258D02*
X0145344Y0040256D01*
X0145344Y0041757D02*
X0143342Y0041757D01*
X0142121Y0042258D02*
X0142121Y0042758D01*
X0141621Y0043258D01*
X0140620Y0043258D01*
X0140120Y0042758D01*
X0138899Y0042758D02*
X0138899Y0042258D01*
X0138398Y0041757D01*
X0138899Y0041257D01*
X0138899Y0040756D01*
X0138398Y0040256D01*
X0137397Y0040256D01*
X0136897Y0040756D01*
X0135676Y0040256D02*
X0133674Y0040256D01*
X0135676Y0042258D01*
X0135676Y0042758D01*
X0135175Y0043258D01*
X0134175Y0043258D01*
X0133674Y0042758D01*
X0132453Y0042758D02*
X0131953Y0043258D01*
X0130952Y0043258D01*
X0130451Y0042758D01*
X0129230Y0043258D02*
X0127229Y0043258D01*
X0128230Y0043258D02*
X0128230Y0040256D01*
X0130451Y0040256D02*
X0132453Y0042258D01*
X0132453Y0042758D01*
X0132453Y0040256D02*
X0130451Y0040256D01*
X0126008Y0043258D02*
X0124006Y0043258D01*
X0124006Y0040256D01*
X0124006Y0041757D02*
X0125007Y0041757D01*
X0136897Y0042758D02*
X0137397Y0043258D01*
X0138398Y0043258D01*
X0138899Y0042758D01*
X0138398Y0041757D02*
X0137898Y0041757D01*
X0140120Y0040256D02*
X0142121Y0042258D01*
X0143342Y0043258D02*
X0143342Y0040256D01*
X0142121Y0040256D02*
X0140120Y0040256D01*
X0117578Y0009508D02*
X0116076Y0009508D01*
X0116076Y0006506D01*
X0117578Y0006506D01*
X0118078Y0007006D01*
X0118078Y0009008D01*
X0117578Y0009508D01*
X0114855Y0009508D02*
X0114855Y0006506D01*
X0112854Y0009508D01*
X0112854Y0006506D01*
X0111633Y0007006D02*
X0111633Y0008007D01*
X0110632Y0008007D01*
X0111633Y0007006D02*
X0111132Y0006506D01*
X0110131Y0006506D01*
X0109631Y0007006D01*
X0109631Y0009008D01*
X0110131Y0009508D01*
X0111132Y0009508D01*
X0111633Y0009008D01*
X0086037Y0006383D02*
X0086037Y0004382D01*
X0085036Y0003381D01*
X0084036Y0004382D01*
X0084036Y0006383D01*
X0082814Y0005883D02*
X0082814Y0005383D01*
X0082314Y0004882D01*
X0082814Y0004382D01*
X0082814Y0003881D01*
X0082314Y0003381D01*
X0081313Y0003381D01*
X0080813Y0003881D01*
X0079702Y0003881D02*
X0079702Y0003381D01*
X0079201Y0003381D01*
X0079201Y0003881D01*
X0079702Y0003881D01*
X0077980Y0003881D02*
X0077480Y0003381D01*
X0076479Y0003381D01*
X0075979Y0003881D01*
X0076980Y0004882D02*
X0077480Y0004882D01*
X0077980Y0004382D01*
X0077980Y0003881D01*
X0077480Y0004882D02*
X0077980Y0005383D01*
X0077980Y0005883D01*
X0077480Y0006383D01*
X0076479Y0006383D01*
X0075979Y0005883D01*
X0074758Y0004882D02*
X0072756Y0004882D01*
X0073757Y0005883D02*
X0073757Y0003881D01*
X0080813Y0005883D02*
X0081313Y0006383D01*
X0082314Y0006383D01*
X0082814Y0005883D01*
X0082314Y0004882D02*
X0081814Y0004882D01*
X0024953Y0003881D02*
X0024953Y0005883D01*
X0024453Y0006383D01*
X0022951Y0006383D01*
X0022951Y0003381D01*
X0024453Y0003381D01*
X0024953Y0003881D01*
X0021730Y0003381D02*
X0021730Y0006383D01*
X0019729Y0006383D02*
X0019729Y0003381D01*
X0018508Y0003881D02*
X0018508Y0004882D01*
X0017507Y0004882D01*
X0018508Y0003881D02*
X0018007Y0003381D01*
X0017006Y0003381D01*
X0016506Y0003881D01*
X0016506Y0005883D01*
X0017006Y0006383D01*
X0018007Y0006383D01*
X0018508Y0005883D01*
X0019729Y0006383D02*
X0021730Y0003381D01*
X0106254Y0118381D02*
X0105253Y0119382D01*
X0108256Y0119382D01*
X0108256Y0118381D02*
X0108256Y0120383D01*
X0108256Y0121604D02*
X0106254Y0123605D01*
X0105754Y0123605D01*
X0105253Y0123105D01*
X0105253Y0122104D01*
X0105754Y0121604D01*
X0108256Y0121604D02*
X0108256Y0123605D01*
X0110503Y0123605D02*
X0113506Y0123605D01*
X0113506Y0124826D02*
X0113506Y0126828D01*
X0111504Y0126828D02*
X0113506Y0124826D01*
X0112005Y0123605D02*
X0112005Y0121604D01*
X0113506Y0121604D02*
X0110503Y0121604D01*
X0110503Y0120383D02*
X0113506Y0120383D01*
X0113506Y0118381D02*
X0110503Y0118381D01*
X0111504Y0119382D01*
X0110503Y0120383D01*
X0111504Y0124826D02*
X0111504Y0126828D01*
X0107630Y0134631D02*
X0107630Y0136633D01*
X0108630Y0135632D02*
X0106629Y0135632D01*
X0106629Y0137854D02*
X0106128Y0138354D01*
X0106128Y0139355D01*
X0106629Y0139855D01*
X0107129Y0139855D01*
X0107630Y0139355D01*
X0108130Y0139855D01*
X0108630Y0139855D01*
X0109131Y0139355D01*
X0109131Y0138354D01*
X0108630Y0137854D01*
X0107630Y0138855D02*
X0107630Y0139355D01*
X0108630Y0141076D02*
X0108630Y0141577D01*
X0109131Y0141577D01*
X0109131Y0141076D01*
X0108630Y0141076D01*
X0108630Y0142688D02*
X0109131Y0143188D01*
X0109131Y0144189D01*
X0108630Y0144689D01*
X0108130Y0144689D01*
X0107630Y0144189D01*
X0107630Y0143689D01*
X0107630Y0144189D02*
X0107129Y0144689D01*
X0106629Y0144689D01*
X0106128Y0144189D01*
X0106128Y0143188D01*
X0106629Y0142688D01*
X0106128Y0145911D02*
X0108130Y0145911D01*
X0109131Y0146911D01*
X0108130Y0147912D01*
X0106128Y0147912D01*
X0110084Y0157512D02*
X0112086Y0157512D01*
X0112587Y0158012D01*
X0112587Y0159013D01*
X0112086Y0159514D01*
X0112587Y0160735D02*
X0110585Y0162736D01*
X0110084Y0162736D01*
X0109584Y0162236D01*
X0109584Y0161235D01*
X0110084Y0160735D01*
X0110084Y0159514D02*
X0109584Y0159013D01*
X0109584Y0158012D01*
X0110084Y0157512D01*
X0112587Y0160735D02*
X0112587Y0162736D01*
X0112587Y0163957D02*
X0112587Y0165959D01*
X0112587Y0164958D02*
X0109584Y0164958D01*
X0110585Y0163957D01*
X0114328Y0168554D02*
X0114328Y0170555D01*
X0114328Y0169554D02*
X0117331Y0169554D01*
X0117331Y0171776D02*
X0117331Y0173778D01*
X0117331Y0172777D02*
X0114328Y0172777D01*
X0115329Y0171776D01*
X0116830Y0174999D02*
X0116830Y0175499D01*
X0117331Y0175499D01*
X0117331Y0174999D01*
X0116830Y0174999D01*
X0117331Y0176610D02*
X0115329Y0178612D01*
X0114829Y0178612D01*
X0114328Y0178112D01*
X0114328Y0177111D01*
X0114829Y0176610D01*
X0117331Y0176610D02*
X0117331Y0178612D01*
X0116330Y0179833D02*
X0114328Y0179833D01*
X0114328Y0181835D02*
X0116330Y0181835D01*
X0117331Y0180834D01*
X0116330Y0179833D01*
X0108506Y0179064D02*
X0108506Y0177063D01*
X0106504Y0179064D01*
X0106004Y0179064D01*
X0105503Y0178564D01*
X0105503Y0177563D01*
X0106004Y0177063D01*
X0108005Y0175952D02*
X0108506Y0175952D01*
X0108506Y0175451D01*
X0108005Y0175451D01*
X0108005Y0175952D01*
X0108506Y0174230D02*
X0108506Y0172229D01*
X0108506Y0173230D02*
X0105503Y0173230D01*
X0106504Y0172229D01*
X0107005Y0171008D02*
X0107005Y0169006D01*
X0108005Y0170007D02*
X0106004Y0170007D01*
X0105503Y0180286D02*
X0107505Y0180286D01*
X0108506Y0181286D01*
X0107505Y0182287D01*
X0105503Y0182287D01*
X0109506Y0189631D02*
X0110507Y0189631D01*
X0111008Y0190131D01*
X0111008Y0191132D01*
X0110007Y0191132D01*
X0111008Y0192133D02*
X0110507Y0192633D01*
X0109506Y0192633D01*
X0109006Y0192133D01*
X0109006Y0190131D01*
X0109506Y0189631D01*
X0112229Y0189631D02*
X0112229Y0192633D01*
X0114230Y0189631D01*
X0114230Y0192633D01*
X0115451Y0192633D02*
X0116953Y0192633D01*
X0117453Y0192133D01*
X0117453Y0190131D01*
X0116953Y0189631D01*
X0115451Y0189631D01*
X0115451Y0192633D01*
X0144444Y0166203D02*
X0144444Y0164201D01*
X0144944Y0163701D01*
X0145945Y0163701D01*
X0146446Y0164201D01*
X0147667Y0163701D02*
X0149668Y0163701D01*
X0148667Y0163701D02*
X0148667Y0166703D01*
X0147667Y0165702D01*
X0146446Y0166203D02*
X0145945Y0166703D01*
X0144944Y0166703D01*
X0144444Y0166203D01*
X0139506Y0156535D02*
X0139506Y0154533D01*
X0139506Y0155534D02*
X0136503Y0155534D01*
X0137504Y0154533D01*
X0136503Y0153312D02*
X0136503Y0151310D01*
X0139506Y0151310D01*
X0138005Y0151310D02*
X0138005Y0152311D01*
X0130131Y0145409D02*
X0129630Y0145910D01*
X0129130Y0145910D01*
X0128630Y0145409D01*
X0128630Y0143908D01*
X0129630Y0143908D01*
X0130131Y0144409D01*
X0130131Y0145409D01*
X0128630Y0143908D02*
X0127629Y0144909D01*
X0127128Y0145910D01*
X0127629Y0142687D02*
X0127128Y0142187D01*
X0127128Y0141186D01*
X0127629Y0140685D01*
X0129630Y0140685D01*
X0130131Y0141186D01*
X0130131Y0142187D01*
X0129630Y0142687D01*
X0130131Y0139538D02*
X0130131Y0138537D01*
X0130131Y0139037D02*
X0127128Y0139037D01*
X0127128Y0138537D02*
X0127128Y0139538D01*
X0125391Y0138701D02*
X0123389Y0138701D01*
X0125391Y0140702D01*
X0125391Y0141203D01*
X0124891Y0141703D01*
X0123890Y0141703D01*
X0123389Y0141203D01*
X0122168Y0141203D02*
X0122168Y0140702D01*
X0120167Y0138701D01*
X0122168Y0138701D01*
X0122168Y0141203D02*
X0121668Y0141703D01*
X0120667Y0141703D01*
X0120167Y0141203D01*
X0118946Y0141203D02*
X0118445Y0141703D01*
X0117444Y0141703D01*
X0116944Y0141203D01*
X0116944Y0139201D01*
X0117444Y0138701D01*
X0118445Y0138701D01*
X0118946Y0139201D01*
X0138177Y0138377D02*
X0139678Y0138377D01*
X0139177Y0139377D01*
X0139177Y0139878D01*
X0139678Y0140378D01*
X0140679Y0140378D01*
X0141179Y0139878D01*
X0141179Y0138877D01*
X0140679Y0138377D01*
X0141179Y0137156D02*
X0141179Y0135154D01*
X0141179Y0136155D02*
X0138177Y0136155D01*
X0139177Y0135154D01*
X0138677Y0133933D02*
X0138177Y0133432D01*
X0138177Y0132432D01*
X0138677Y0131931D01*
X0140679Y0131931D01*
X0141179Y0132432D01*
X0141179Y0133432D01*
X0140679Y0133933D01*
X0138177Y0138377D02*
X0138177Y0140378D01*
X0150183Y0136043D02*
X0150183Y0135042D01*
X0150684Y0134542D01*
X0150684Y0133321D02*
X0150183Y0132820D01*
X0150183Y0131819D01*
X0150684Y0131319D01*
X0152686Y0131319D01*
X0153186Y0131819D01*
X0153186Y0132820D01*
X0152686Y0133321D01*
X0153186Y0134542D02*
X0151184Y0136543D01*
X0150684Y0136543D01*
X0150183Y0136043D01*
X0153186Y0136543D02*
X0153186Y0134542D01*
X0154381Y0129828D02*
X0154381Y0127826D01*
X0154381Y0128827D02*
X0151378Y0128827D01*
X0152379Y0127826D01*
X0151378Y0126605D02*
X0154381Y0126605D01*
X0151378Y0124604D01*
X0154381Y0124604D01*
X0154381Y0123383D02*
X0153380Y0122382D01*
X0153380Y0122882D02*
X0153380Y0121381D01*
X0153252Y0120585D02*
X0154253Y0120585D01*
X0154753Y0120085D01*
X0154753Y0119584D01*
X0154253Y0119084D01*
X0153252Y0119084D01*
X0152752Y0119584D01*
X0152752Y0120085D01*
X0153252Y0120585D01*
X0154381Y0121381D02*
X0151378Y0121381D01*
X0151378Y0122882D01*
X0151879Y0123383D01*
X0152880Y0123383D01*
X0153380Y0122882D01*
X0150530Y0120585D02*
X0150530Y0117583D01*
X0149529Y0117583D02*
X0151531Y0117583D01*
X0152752Y0118083D02*
X0152752Y0118584D01*
X0153252Y0119084D01*
X0154253Y0119084D02*
X0154753Y0118584D01*
X0154753Y0118083D01*
X0154253Y0117583D01*
X0153252Y0117583D01*
X0152752Y0118083D01*
X0150530Y0120585D02*
X0149529Y0119584D01*
X0148308Y0120085D02*
X0147807Y0120585D01*
X0146807Y0120585D01*
X0146306Y0120085D01*
X0146306Y0118083D01*
X0146807Y0117583D01*
X0147807Y0117583D01*
X0148308Y0118083D01*
X0163669Y0140968D02*
X0163669Y0141969D01*
X0163669Y0141468D02*
X0166671Y0141468D01*
X0166671Y0140968D02*
X0166671Y0141969D01*
X0166171Y0143116D02*
X0164169Y0143116D01*
X0163669Y0143617D01*
X0163669Y0144618D01*
X0164169Y0145118D01*
X0164670Y0146339D02*
X0163669Y0147340D01*
X0166671Y0147340D01*
X0166671Y0146339D02*
X0166671Y0148341D01*
X0166171Y0145118D02*
X0166671Y0144618D01*
X0166671Y0143617D01*
X0166171Y0143116D01*
X0192631Y0012785D02*
X0192631Y0010783D01*
X0192631Y0011784D02*
X0189628Y0011784D01*
X0190629Y0010783D01*
X0189628Y0009562D02*
X0192631Y0007560D01*
X0192631Y0009562D02*
X0189628Y0007560D01*
D12*
X0155006Y0025631D02*
X0155006Y0029381D01*
X0145006Y0029381D02*
X0145006Y0025631D01*
X0135006Y0025631D02*
X0135006Y0029381D01*
X0125006Y0029381D02*
X0125006Y0025631D01*
X0106881Y0023756D02*
X0106881Y0018756D01*
X0104381Y0016256D01*
X0096256Y0016256D01*
X0096256Y0008756D01*
X0093756Y0006256D01*
X0088131Y0006256D01*
X0086256Y0008131D01*
X0086256Y0023756D01*
X0088756Y0026256D01*
X0104381Y0026256D01*
X0106881Y0023756D01*
X0016256Y0008131D02*
X0016256Y0186256D01*
X0098756Y0186256D01*
X0096256Y0183756D01*
X0096256Y0168756D01*
X0098756Y0166256D01*
X0098131Y0166256D01*
X0096256Y0164381D01*
X0096256Y0158756D01*
X0098756Y0156256D01*
X0096256Y0153756D01*
X0096256Y0128756D01*
X0098756Y0126256D01*
X0103756Y0126256D01*
X0106881Y0129381D01*
X0106881Y0132506D01*
X0110631Y0132506D01*
X0110631Y0150631D01*
X0106881Y0150631D01*
X0106881Y0153131D01*
X0103756Y0156256D01*
X0106256Y0158756D01*
X0106256Y0163756D01*
X0103756Y0166256D01*
X0098756Y0166256D01*
X0103756Y0166256D02*
X0105631Y0168131D01*
X0110631Y0168131D01*
X0110631Y0184381D01*
X0105631Y0184381D01*
X0103756Y0186256D01*
X0106256Y0188756D01*
X0106256Y0193756D01*
X0103756Y0196256D01*
X0008131Y0196256D01*
X0005631Y0193756D01*
X0005631Y0008756D01*
X0008756Y0005631D01*
X0013756Y0005631D01*
X0016256Y0008131D01*
X0098756Y0156256D02*
X0103756Y0156256D01*
X0103756Y0186256D02*
X0098756Y0186256D01*
D13*
X0118756Y0187506D02*
X0118756Y0182506D01*
X0121256Y0180006D01*
X0126256Y0180006D01*
X0128756Y0182506D01*
X0128756Y0187506D01*
X0126256Y0190006D01*
X0121256Y0190006D01*
X0118756Y0187506D01*
X0121256Y0180006D02*
X0118756Y0177506D01*
X0118756Y0172506D01*
X0121256Y0170006D01*
X0126256Y0170006D01*
X0128756Y0172506D01*
X0128756Y0177506D01*
X0126256Y0180006D01*
X0149416Y0155202D02*
X0160096Y0155202D01*
X0160096Y0151034D01*
X0163756Y0149381D02*
X0163756Y0154381D01*
X0166256Y0156881D01*
X0171256Y0156881D01*
X0173756Y0154381D01*
X0173756Y0149381D01*
X0171256Y0146881D01*
X0166256Y0146881D01*
X0163756Y0149381D01*
X0160096Y0141281D02*
X0160096Y0137309D01*
X0149416Y0137309D01*
X0149384Y0142624D02*
X0149384Y0144037D01*
X0149384Y0148530D02*
X0149384Y0149943D01*
X0168207Y0137104D02*
X0168207Y0122907D01*
X0186805Y0122907D02*
X0186805Y0137104D01*
X0187506Y0135006D02*
X0190006Y0137506D01*
X0187506Y0140006D01*
X0187506Y0145006D01*
X0190006Y0147506D01*
X0195006Y0147506D01*
X0197506Y0145006D01*
X0197506Y0140006D01*
X0195006Y0137506D01*
X0197506Y0135006D01*
X0197506Y0130006D01*
X0195006Y0127506D01*
X0190006Y0127506D01*
X0187506Y0130006D01*
X0187506Y0135006D01*
X0190006Y0137506D02*
X0195006Y0137506D01*
X0126856Y0146815D02*
X0126483Y0146815D01*
X0126856Y0146815D02*
X0126856Y0153196D01*
X0126483Y0153196D01*
X0123313Y0153196D02*
X0119199Y0153196D01*
X0116029Y0153196D02*
X0115656Y0153196D01*
X0115656Y0146815D01*
X0116029Y0146815D01*
X0119199Y0146815D02*
X0119572Y0146815D01*
X0122939Y0146815D02*
X0123313Y0146815D01*
X0118204Y0098709D02*
X0117069Y0098709D01*
X0118204Y0098709D02*
X0118204Y0095306D01*
X0117069Y0095306D01*
X0115655Y0095306D02*
X0115655Y0097575D01*
X0114521Y0098709D01*
X0113386Y0097575D01*
X0113386Y0095306D01*
X0112065Y0095306D02*
X0110931Y0095306D01*
X0110931Y0098709D01*
X0112065Y0098709D01*
X0113386Y0097007D02*
X0115655Y0097007D01*
X0151556Y0046834D02*
X0152690Y0046834D01*
X0151556Y0046834D02*
X0151556Y0043431D01*
X0152690Y0043431D01*
X0154011Y0043431D02*
X0155713Y0043431D01*
X0156280Y0043998D01*
X0156280Y0044565D01*
X0155713Y0045132D01*
X0154011Y0045132D01*
X0154011Y0043431D02*
X0154011Y0046834D01*
X0155713Y0046834D01*
X0156280Y0046267D01*
X0156280Y0045700D01*
X0155713Y0045132D01*
X0157694Y0043431D02*
X0158829Y0043431D01*
X0158829Y0046834D01*
X0157694Y0046834D01*
D14*
X0152722Y0054465D02*
X0117289Y0054465D01*
X0115715Y0056039D01*
X0115715Y0091472D01*
X0117289Y0093047D01*
X0152722Y0093047D01*
X0154297Y0091472D01*
X0154297Y0056039D01*
X0152722Y0054465D01*
X0162978Y0026104D02*
X0162277Y0025404D01*
X0162277Y0024003D01*
X0162978Y0023302D01*
X0162277Y0021500D02*
X0166481Y0018698D01*
X0166481Y0021500D02*
X0162277Y0018698D01*
X0166481Y0023302D02*
X0163679Y0026104D01*
X0162978Y0026104D01*
X0166481Y0026104D02*
X0166481Y0023302D01*
X0147789Y0088756D02*
X0147791Y0088850D01*
X0147797Y0088944D01*
X0147807Y0089038D01*
X0147821Y0089131D01*
X0147839Y0089223D01*
X0147861Y0089315D01*
X0147886Y0089405D01*
X0147916Y0089495D01*
X0147949Y0089583D01*
X0147986Y0089669D01*
X0148026Y0089754D01*
X0148071Y0089837D01*
X0148118Y0089918D01*
X0148169Y0089997D01*
X0148224Y0090074D01*
X0148281Y0090149D01*
X0148342Y0090221D01*
X0148405Y0090290D01*
X0148472Y0090357D01*
X0148541Y0090420D01*
X0148613Y0090481D01*
X0148688Y0090538D01*
X0148765Y0090593D01*
X0148844Y0090644D01*
X0148925Y0090691D01*
X0149008Y0090736D01*
X0149093Y0090776D01*
X0149179Y0090813D01*
X0149267Y0090846D01*
X0149357Y0090876D01*
X0149447Y0090901D01*
X0149539Y0090923D01*
X0149631Y0090941D01*
X0149724Y0090955D01*
X0149818Y0090965D01*
X0149912Y0090971D01*
X0150006Y0090973D01*
X0150100Y0090971D01*
X0150194Y0090965D01*
X0150288Y0090955D01*
X0150381Y0090941D01*
X0150473Y0090923D01*
X0150565Y0090901D01*
X0150655Y0090876D01*
X0150745Y0090846D01*
X0150833Y0090813D01*
X0150919Y0090776D01*
X0151004Y0090736D01*
X0151087Y0090691D01*
X0151168Y0090644D01*
X0151247Y0090593D01*
X0151324Y0090538D01*
X0151399Y0090481D01*
X0151471Y0090420D01*
X0151540Y0090357D01*
X0151607Y0090290D01*
X0151670Y0090221D01*
X0151731Y0090149D01*
X0151788Y0090074D01*
X0151843Y0089997D01*
X0151894Y0089918D01*
X0151941Y0089837D01*
X0151986Y0089754D01*
X0152026Y0089669D01*
X0152063Y0089583D01*
X0152096Y0089495D01*
X0152126Y0089405D01*
X0152151Y0089315D01*
X0152173Y0089223D01*
X0152191Y0089131D01*
X0152205Y0089038D01*
X0152215Y0088944D01*
X0152221Y0088850D01*
X0152223Y0088756D01*
X0152221Y0088662D01*
X0152215Y0088568D01*
X0152205Y0088474D01*
X0152191Y0088381D01*
X0152173Y0088289D01*
X0152151Y0088197D01*
X0152126Y0088107D01*
X0152096Y0088017D01*
X0152063Y0087929D01*
X0152026Y0087843D01*
X0151986Y0087758D01*
X0151941Y0087675D01*
X0151894Y0087594D01*
X0151843Y0087515D01*
X0151788Y0087438D01*
X0151731Y0087363D01*
X0151670Y0087291D01*
X0151607Y0087222D01*
X0151540Y0087155D01*
X0151471Y0087092D01*
X0151399Y0087031D01*
X0151324Y0086974D01*
X0151247Y0086919D01*
X0151168Y0086868D01*
X0151087Y0086821D01*
X0151004Y0086776D01*
X0150919Y0086736D01*
X0150833Y0086699D01*
X0150745Y0086666D01*
X0150655Y0086636D01*
X0150565Y0086611D01*
X0150473Y0086589D01*
X0150381Y0086571D01*
X0150288Y0086557D01*
X0150194Y0086547D01*
X0150100Y0086541D01*
X0150006Y0086539D01*
X0149912Y0086541D01*
X0149818Y0086547D01*
X0149724Y0086557D01*
X0149631Y0086571D01*
X0149539Y0086589D01*
X0149447Y0086611D01*
X0149357Y0086636D01*
X0149267Y0086666D01*
X0149179Y0086699D01*
X0149093Y0086736D01*
X0149008Y0086776D01*
X0148925Y0086821D01*
X0148844Y0086868D01*
X0148765Y0086919D01*
X0148688Y0086974D01*
X0148613Y0087031D01*
X0148541Y0087092D01*
X0148472Y0087155D01*
X0148405Y0087222D01*
X0148342Y0087291D01*
X0148281Y0087363D01*
X0148224Y0087438D01*
X0148169Y0087515D01*
X0148118Y0087594D01*
X0148071Y0087675D01*
X0148026Y0087758D01*
X0147986Y0087843D01*
X0147949Y0087929D01*
X0147916Y0088017D01*
X0147886Y0088107D01*
X0147861Y0088197D01*
X0147839Y0088289D01*
X0147821Y0088381D01*
X0147807Y0088474D01*
X0147797Y0088568D01*
X0147791Y0088662D01*
X0147789Y0088756D01*
X0169841Y0126106D02*
X0169843Y0126153D01*
X0169849Y0126200D01*
X0169859Y0126247D01*
X0169872Y0126292D01*
X0169890Y0126336D01*
X0169911Y0126378D01*
X0169935Y0126419D01*
X0169963Y0126457D01*
X0169994Y0126493D01*
X0170028Y0126526D01*
X0170064Y0126556D01*
X0170103Y0126583D01*
X0170144Y0126607D01*
X0170187Y0126627D01*
X0170231Y0126643D01*
X0170277Y0126656D01*
X0170323Y0126665D01*
X0170371Y0126670D01*
X0170418Y0126671D01*
X0170465Y0126668D01*
X0170512Y0126661D01*
X0170558Y0126650D01*
X0170603Y0126636D01*
X0170647Y0126617D01*
X0170688Y0126595D01*
X0170728Y0126570D01*
X0170766Y0126541D01*
X0170801Y0126510D01*
X0170834Y0126475D01*
X0170863Y0126438D01*
X0170889Y0126399D01*
X0170912Y0126357D01*
X0170931Y0126314D01*
X0170947Y0126269D01*
X0170959Y0126223D01*
X0170967Y0126177D01*
X0170971Y0126130D01*
X0170971Y0126082D01*
X0170967Y0126035D01*
X0170959Y0125989D01*
X0170947Y0125943D01*
X0170931Y0125898D01*
X0170912Y0125855D01*
X0170889Y0125813D01*
X0170863Y0125774D01*
X0170834Y0125737D01*
X0170801Y0125702D01*
X0170766Y0125671D01*
X0170728Y0125642D01*
X0170689Y0125617D01*
X0170647Y0125595D01*
X0170603Y0125576D01*
X0170558Y0125562D01*
X0170512Y0125551D01*
X0170465Y0125544D01*
X0170418Y0125541D01*
X0170371Y0125542D01*
X0170323Y0125547D01*
X0170277Y0125556D01*
X0170231Y0125569D01*
X0170187Y0125585D01*
X0170144Y0125605D01*
X0170103Y0125629D01*
X0170064Y0125656D01*
X0170028Y0125686D01*
X0169994Y0125719D01*
X0169963Y0125755D01*
X0169935Y0125793D01*
X0169911Y0125834D01*
X0169890Y0125876D01*
X0169872Y0125920D01*
X0169859Y0125965D01*
X0169849Y0126012D01*
X0169843Y0126059D01*
X0169841Y0126106D01*
D15*
X0162959Y0123904D02*
X0157053Y0123904D01*
X0157053Y0136108D02*
X0162959Y0136108D01*
D16*
X0162506Y0112506D02*
X0162506Y0097506D01*
X0160006Y0097506D01*
X0162506Y0097506D02*
X0162506Y0057506D01*
X0160006Y0057506D01*
X0162506Y0057506D02*
X0162506Y0017506D01*
X0160006Y0017506D01*
X0160006Y0037506D01*
X0110006Y0037506D01*
X0110006Y0017506D01*
X0160006Y0017506D01*
X0162506Y0017506D02*
X0162506Y0002506D01*
X0197506Y0002506D01*
X0197506Y0050006D01*
X0197506Y0065006D01*
X0197506Y0112506D01*
X0162506Y0112506D01*
D17*
X0166256Y0108756D02*
X0166256Y0006256D01*
X0193756Y0006256D01*
X0193756Y0050006D01*
X0197506Y0050006D01*
X0197506Y0065006D02*
X0193756Y0065006D01*
X0193756Y0108756D01*
X0166256Y0108756D01*
D18*
X0175006Y0092506D03*
X0185006Y0092506D03*
X0185006Y0082506D03*
X0185006Y0072506D03*
X0175006Y0072506D03*
X0175006Y0082506D03*
X0175006Y0062506D03*
X0185006Y0062506D03*
X0185006Y0052506D03*
X0185006Y0042506D03*
X0175006Y0042506D03*
X0175006Y0052506D03*
X0175006Y0032506D03*
X0185006Y0032506D03*
X0185006Y0022506D03*
X0175006Y0022506D03*
X0155006Y0022506D03*
X0155006Y0032506D03*
X0145006Y0032506D03*
X0145006Y0022506D03*
X0135006Y0022506D03*
X0135006Y0032506D03*
X0125006Y0032506D03*
X0125006Y0022506D03*
X0115006Y0022506D03*
X0115006Y0032506D03*
D19*
X0106121Y0023942D02*
X0103252Y0021073D01*
X0103969Y0020356D01*
X0105404Y0020356D01*
X0106121Y0021073D01*
X0106121Y0023942D01*
X0105404Y0024660D01*
X0103969Y0024660D01*
X0103252Y0023942D01*
X0103252Y0021073D01*
X0101517Y0020356D02*
X0098648Y0020356D01*
X0100083Y0020356D02*
X0100083Y0024660D01*
X0098648Y0023225D01*
X0160752Y0030356D02*
X0163621Y0030356D01*
X0162187Y0030356D02*
X0162187Y0034660D01*
X0160752Y0033225D01*
X0182852Y0016790D02*
X0187156Y0016790D01*
X0187156Y0015356D02*
X0187156Y0018225D01*
X0184287Y0015356D02*
X0182852Y0016790D01*
X0177156Y0097856D02*
X0177156Y0100725D01*
X0177156Y0099290D02*
X0172852Y0099290D01*
X0174287Y0097856D01*
X0175004Y0102460D02*
X0175004Y0104612D01*
X0175721Y0105329D01*
X0176439Y0105329D01*
X0177156Y0104612D01*
X0177156Y0103177D01*
X0176439Y0102460D01*
X0175004Y0102460D01*
X0173570Y0103894D01*
X0172852Y0105329D01*
D20*
X0124868Y0119971D03*
X0120144Y0119971D03*
D21*
X0122506Y0119971D03*
D22*
X0165513Y0165813D02*
X0173781Y0165813D01*
X0173781Y0167388D02*
X0165513Y0167388D01*
X0165513Y0177624D01*
X0173781Y0177624D01*
X0173781Y0167388D01*
X0169844Y0168963D02*
X0167088Y0168963D01*
X0167088Y0171325D01*
X0169844Y0171325D01*
X0169844Y0173687D01*
X0167088Y0173687D01*
X0167088Y0171325D01*
X0169844Y0173687D02*
X0169844Y0176049D01*
X0167088Y0176049D01*
X0169844Y0176049D02*
X0172206Y0176049D01*
X0171812Y0173687D02*
X0169844Y0173687D01*
M02*
