G75*
%MOIN*%
%OFA0B0*%
%FSLAX25Y25*%
%IPPOS*%
%LPD*%
%AMOC8*
5,1,8,0,0,1.08239X$1,22.5*
%
%ADD10R,0.05118X0.06299*%
%ADD11R,0.06299X0.05118*%
%ADD12R,0.04331X0.03937*%
%ADD13R,0.07098X0.06299*%
%ADD14R,0.08661X0.02362*%
%ADD15R,0.04331X0.02756*%
%ADD16R,0.07087X0.02756*%
%ADD17R,0.11024X0.07874*%
%ADD18R,0.06693X0.01772*%
%ADD19R,0.08268X0.05807*%
%ADD20R,0.07480X0.09350*%
%ADD21R,0.02400X0.08700*%
%ADD22R,0.03543X0.01969*%
%ADD23R,0.02165X0.04724*%
%ADD24R,0.01181X0.03543*%
%ADD25R,0.03543X0.01181*%
%ADD26C,0.01040*%
%ADD27R,0.02600X0.03300*%
%ADD28R,0.03642X0.02913*%
%ADD29R,0.05500X0.05500*%
%ADD30R,0.02913X0.03642*%
%ADD31R,0.04724X0.04724*%
%ADD32C,0.05200*%
%ADD33OC8,0.05200*%
%ADD34C,0.01600*%
%ADD35C,0.00800*%
%ADD36C,0.01200*%
%ADD37C,0.02400*%
%ADD38C,0.02775*%
%ADD39C,0.02381*%
%ADD40C,0.03200*%
%ADD41C,0.01000*%
%ADD42OC8,0.07500*%
%ADD43C,0.07000*%
%ADD44C,0.03169*%
%ADD45C,0.04000*%
D10*
X0117319Y0135006D03*
X0125193Y0135006D03*
X0141069Y0160006D03*
X0148943Y0160006D03*
X0123943Y0163756D03*
X0116069Y0163756D03*
D11*
X0146256Y0132693D03*
X0146256Y0124819D03*
D12*
X0138756Y0124602D03*
X0138756Y0117909D03*
X0143131Y0109602D03*
X0143131Y0102909D03*
X0131256Y0117909D03*
X0131256Y0124602D03*
X0122506Y0109602D03*
X0122506Y0102909D03*
X0192506Y0116659D03*
X0192506Y0123352D03*
D13*
X0132506Y0149407D03*
X0132506Y0160604D03*
D14*
X0138520Y0171256D03*
X0138520Y0176256D03*
X0138520Y0181256D03*
X0138520Y0186256D03*
X0158992Y0186256D03*
X0158992Y0181256D03*
X0158992Y0176256D03*
X0158992Y0171256D03*
D15*
X0146866Y0152161D03*
X0146866Y0140350D03*
D16*
X0148244Y0146256D03*
D17*
X0157299Y0146256D03*
D18*
X0178982Y0164888D03*
X0178982Y0167447D03*
X0178982Y0170006D03*
X0178982Y0172565D03*
X0178982Y0175124D03*
D19*
X0180951Y0179848D03*
X0180951Y0160163D03*
D20*
X0190006Y0158392D03*
X0190006Y0181620D03*
D21*
X0185006Y0140306D03*
X0180006Y0140306D03*
X0175006Y0140306D03*
X0170006Y0140306D03*
X0170006Y0119706D03*
X0175006Y0119706D03*
X0180006Y0119706D03*
X0185006Y0119706D03*
D22*
X0163156Y0125281D03*
X0163156Y0128431D03*
X0163156Y0131581D03*
X0163156Y0134730D03*
X0156856Y0134730D03*
X0156856Y0131581D03*
X0156856Y0128431D03*
X0156856Y0125281D03*
D23*
X0124996Y0144887D03*
X0121256Y0144887D03*
X0117516Y0144887D03*
X0117516Y0155124D03*
X0124996Y0155124D03*
D24*
X0124179Y0096000D03*
X0122211Y0096000D03*
X0120242Y0096000D03*
X0126148Y0096000D03*
X0128116Y0096000D03*
X0130085Y0096000D03*
X0132053Y0096000D03*
X0134022Y0096000D03*
X0135990Y0096000D03*
X0137959Y0096000D03*
X0139927Y0096000D03*
X0141896Y0096000D03*
X0143864Y0096000D03*
X0145833Y0096000D03*
X0147801Y0096000D03*
X0149770Y0096000D03*
X0149770Y0051512D03*
X0147801Y0051512D03*
X0145833Y0051512D03*
X0143864Y0051512D03*
X0141896Y0051512D03*
X0139927Y0051512D03*
X0137959Y0051512D03*
X0135990Y0051512D03*
X0134022Y0051512D03*
X0132053Y0051512D03*
X0130085Y0051512D03*
X0128116Y0051512D03*
X0126148Y0051512D03*
X0124179Y0051512D03*
X0122211Y0051512D03*
X0120242Y0051512D03*
D25*
X0112762Y0058992D03*
X0112762Y0060961D03*
X0112762Y0062929D03*
X0112762Y0064898D03*
X0112762Y0066866D03*
X0112762Y0068835D03*
X0112762Y0070803D03*
X0112762Y0072772D03*
X0112762Y0074740D03*
X0112762Y0076709D03*
X0112762Y0078677D03*
X0112762Y0080646D03*
X0112762Y0082614D03*
X0112762Y0084583D03*
X0112762Y0086551D03*
X0112762Y0088520D03*
X0157250Y0088520D03*
X0157250Y0086551D03*
X0157250Y0084583D03*
X0157250Y0082614D03*
X0157250Y0080646D03*
X0157250Y0078677D03*
X0157250Y0076709D03*
X0157250Y0074740D03*
X0157250Y0072772D03*
X0157250Y0070803D03*
X0157250Y0068835D03*
X0157250Y0066866D03*
X0157250Y0064898D03*
X0157250Y0062929D03*
X0157250Y0060961D03*
X0157250Y0058992D03*
D26*
X0156536Y0104336D02*
X0154976Y0104336D01*
X0156536Y0104336D02*
X0156536Y0102076D01*
X0154976Y0102076D01*
X0154976Y0104336D01*
X0154976Y0103115D02*
X0156536Y0103115D01*
X0156536Y0104154D02*
X0154976Y0104154D01*
X0150036Y0104336D02*
X0148476Y0104336D01*
X0150036Y0104336D02*
X0150036Y0102076D01*
X0148476Y0102076D01*
X0148476Y0104336D01*
X0148476Y0103115D02*
X0150036Y0103115D01*
X0150036Y0104154D02*
X0148476Y0104154D01*
X0148476Y0110436D02*
X0150036Y0110436D01*
X0150036Y0108176D01*
X0148476Y0108176D01*
X0148476Y0110436D01*
X0148476Y0109215D02*
X0150036Y0109215D01*
X0150036Y0110254D02*
X0148476Y0110254D01*
D27*
X0155756Y0109306D03*
D28*
X0154868Y0115006D03*
X0150144Y0115006D03*
D29*
X0175006Y0092506D03*
X0185006Y0092506D03*
X0185006Y0082506D03*
X0185006Y0072506D03*
X0175006Y0072506D03*
X0175006Y0082506D03*
X0175006Y0062506D03*
X0185006Y0062506D03*
X0185006Y0052506D03*
X0185006Y0042506D03*
X0175006Y0042506D03*
X0175006Y0052506D03*
X0175006Y0032506D03*
X0185006Y0032506D03*
X0185006Y0022506D03*
X0175006Y0022506D03*
X0155006Y0022506D03*
X0155006Y0032506D03*
X0145006Y0032506D03*
X0145006Y0022506D03*
X0135006Y0022506D03*
X0135006Y0032506D03*
X0125006Y0032506D03*
X0125006Y0022506D03*
X0115006Y0022506D03*
X0115006Y0032506D03*
D30*
X0140006Y0143894D03*
X0140006Y0148618D03*
D31*
X0122506Y0123515D03*
X0122506Y0115247D03*
D32*
X0121156Y0175006D02*
X0126356Y0175006D01*
X0126356Y0185006D02*
X0121156Y0185006D01*
X0189906Y0142506D02*
X0195106Y0142506D01*
X0195106Y0132506D02*
X0189906Y0132506D01*
D33*
X0168756Y0151881D03*
D34*
X0176069Y0156443D02*
X0185006Y0147506D01*
X0185006Y0140306D01*
X0178982Y0164888D02*
X0170124Y0164888D01*
X0163756Y0171256D01*
X0158992Y0171256D01*
X0158992Y0176256D02*
X0163756Y0176256D01*
X0172565Y0167447D01*
X0178982Y0167447D01*
X0178982Y0170006D02*
X0173756Y0170006D01*
X0162506Y0181256D01*
X0158992Y0181256D01*
X0158992Y0186256D02*
X0162506Y0186256D01*
X0173638Y0175124D01*
X0178982Y0175124D01*
X0159937Y0148894D02*
X0157299Y0146256D01*
X0148244Y0146256D02*
X0145006Y0146256D01*
X0146866Y0152161D02*
X0147319Y0152614D01*
X0141069Y0157319D02*
X0132506Y0148756D01*
X0132506Y0149407D01*
X0125006Y0148756D02*
X0125006Y0144897D01*
X0124996Y0144887D01*
X0125006Y0144878D01*
X0125006Y0143756D01*
X0128283Y0140350D01*
X0146866Y0140350D01*
X0146735Y0124339D02*
X0146735Y0121381D01*
X0146659Y0117181D01*
X0146645Y0117157D01*
X0146523Y0116700D01*
X0146523Y0115006D01*
X0146620Y0115006D01*
X0146620Y0115006D01*
X0146523Y0115006D01*
X0146523Y0113312D01*
X0146585Y0113082D01*
X0146580Y0112833D01*
X0146401Y0113011D01*
X0145991Y0113248D01*
X0145533Y0113371D01*
X0143315Y0113371D01*
X0143315Y0109787D01*
X0142947Y0109787D01*
X0142947Y0113371D01*
X0142033Y0113371D01*
X0142507Y0113567D01*
X0143295Y0114355D01*
X0143721Y0115384D01*
X0143721Y0120435D01*
X0143711Y0120460D01*
X0145776Y0120460D01*
X0145776Y0124339D01*
X0146735Y0124339D01*
X0146735Y0122743D02*
X0145776Y0122743D01*
X0145776Y0121144D02*
X0146731Y0121144D01*
X0146702Y0119546D02*
X0143721Y0119546D01*
X0143721Y0117947D02*
X0146673Y0117947D01*
X0146523Y0116349D02*
X0143721Y0116349D01*
X0143459Y0114750D02*
X0146523Y0114750D01*
X0146566Y0113152D02*
X0146158Y0113152D01*
X0143315Y0113152D02*
X0142947Y0113152D01*
X0142947Y0111553D02*
X0143315Y0111553D01*
X0143315Y0109955D02*
X0142947Y0109955D01*
X0142947Y0109787D02*
X0142947Y0109418D01*
X0139166Y0109418D01*
X0139166Y0107397D01*
X0139288Y0106939D01*
X0139525Y0106529D01*
X0139860Y0106193D01*
X0139961Y0106136D01*
X0139366Y0105541D01*
X0139366Y0102955D01*
X0139031Y0103289D01*
X0139031Y0113141D01*
X0140085Y0113141D01*
X0139860Y0113011D01*
X0139525Y0112676D01*
X0139288Y0112266D01*
X0139166Y0111808D01*
X0139166Y0109787D01*
X0142947Y0109787D01*
X0139166Y0109955D02*
X0139031Y0109955D01*
X0139031Y0111553D02*
X0139166Y0111553D01*
X0139166Y0108356D02*
X0139031Y0108356D01*
X0139031Y0106758D02*
X0139393Y0106758D01*
X0139366Y0105159D02*
X0139031Y0105159D01*
X0139031Y0103561D02*
X0139366Y0103561D01*
X0129731Y0103561D02*
X0126271Y0103561D01*
X0126271Y0102255D02*
X0126271Y0105541D01*
X0125556Y0106256D01*
X0126271Y0106971D01*
X0126271Y0112025D01*
X0126468Y0112222D01*
X0126468Y0114955D01*
X0126717Y0114355D01*
X0127504Y0113567D01*
X0128534Y0113141D01*
X0129731Y0113141D01*
X0129731Y0100580D01*
X0130148Y0099572D01*
X0130085Y0099572D01*
X0130085Y0098939D01*
X0130085Y0098939D01*
X0130085Y0099572D01*
X0129257Y0099572D01*
X0128799Y0099449D01*
X0128665Y0099372D01*
X0127567Y0099372D01*
X0127433Y0099449D01*
X0126975Y0099572D01*
X0126379Y0099572D01*
X0126379Y0102147D01*
X0126271Y0102255D01*
X0126379Y0101962D02*
X0129731Y0101962D01*
X0129820Y0100364D02*
X0126379Y0100364D01*
X0130316Y0096000D02*
X0131822Y0096000D01*
X0130316Y0096000D01*
X0130316Y0096000D01*
X0131822Y0096000D02*
X0131822Y0096000D01*
X0129731Y0105159D02*
X0126271Y0105159D01*
X0126058Y0106758D02*
X0129731Y0106758D01*
X0129731Y0108356D02*
X0126271Y0108356D01*
X0126271Y0109955D02*
X0129731Y0109955D01*
X0129731Y0111553D02*
X0126271Y0111553D01*
X0126468Y0113152D02*
X0128508Y0113152D01*
X0126553Y0114750D02*
X0126468Y0114750D01*
X0126291Y0118450D02*
X0125531Y0119209D01*
X0119481Y0119209D01*
X0118544Y0118272D01*
X0118544Y0112222D01*
X0118741Y0112025D01*
X0118741Y0107093D01*
X0118462Y0107372D01*
X0118103Y0107520D01*
X0116256Y0109367D01*
X0116256Y0129381D01*
X0130819Y0129381D01*
X0130819Y0129377D01*
X0130813Y0129371D01*
X0128534Y0129371D01*
X0127504Y0128945D01*
X0126717Y0128157D01*
X0126291Y0127128D01*
X0126291Y0127000D01*
X0125973Y0127317D01*
X0125563Y0127554D01*
X0125105Y0127677D01*
X0122887Y0127677D01*
X0122887Y0123896D01*
X0122125Y0123896D01*
X0122125Y0127677D01*
X0119907Y0127677D01*
X0119449Y0127554D01*
X0119038Y0127317D01*
X0118703Y0126982D01*
X0118466Y0126572D01*
X0118344Y0126114D01*
X0118344Y0123896D01*
X0122125Y0123896D01*
X0122125Y0123134D01*
X0118344Y0123134D01*
X0118344Y0120916D01*
X0118466Y0120458D01*
X0118703Y0120047D01*
X0119038Y0119712D01*
X0119449Y0119475D01*
X0119907Y0119353D01*
X0122125Y0119353D01*
X0122125Y0123134D01*
X0122887Y0123134D01*
X0122887Y0119353D01*
X0125105Y0119353D01*
X0125563Y0119475D01*
X0125973Y0119712D01*
X0126291Y0120029D01*
X0126291Y0118450D01*
X0126291Y0119546D02*
X0125685Y0119546D01*
X0122887Y0119546D02*
X0122125Y0119546D01*
X0122125Y0121144D02*
X0122887Y0121144D01*
X0122887Y0122743D02*
X0122125Y0122743D01*
X0122125Y0124341D02*
X0122887Y0124341D01*
X0122887Y0125940D02*
X0122125Y0125940D01*
X0122125Y0127538D02*
X0122887Y0127538D01*
X0125591Y0127538D02*
X0126461Y0127538D01*
X0127969Y0129137D02*
X0116256Y0129137D01*
X0116256Y0127538D02*
X0119421Y0127538D01*
X0118344Y0125940D02*
X0116256Y0125940D01*
X0116256Y0124341D02*
X0118344Y0124341D01*
X0118344Y0122743D02*
X0116256Y0122743D01*
X0116256Y0121144D02*
X0118344Y0121144D01*
X0119327Y0119546D02*
X0116256Y0119546D01*
X0116256Y0117947D02*
X0118544Y0117947D01*
X0118544Y0116349D02*
X0116256Y0116349D01*
X0116256Y0114750D02*
X0118544Y0114750D01*
X0118544Y0113152D02*
X0116256Y0113152D01*
X0116256Y0111553D02*
X0118741Y0111553D01*
X0118741Y0109955D02*
X0116256Y0109955D01*
X0117267Y0108356D02*
X0118741Y0108356D01*
X0122506Y0109602D02*
X0122506Y0115247D01*
X0118741Y0102919D02*
X0118741Y0100278D01*
X0119647Y0099372D01*
X0118989Y0099372D01*
X0118052Y0098434D01*
X0118052Y0098200D01*
X0117423Y0098200D01*
X0116256Y0099367D01*
X0116256Y0102244D01*
X0116326Y0102215D01*
X0117436Y0102215D01*
X0118462Y0102640D01*
X0118741Y0102919D01*
X0118741Y0101962D02*
X0116256Y0101962D01*
X0116256Y0100364D02*
X0118741Y0100364D01*
X0118382Y0098765D02*
X0116858Y0098765D01*
X0117319Y0135006D02*
X0117319Y0137693D01*
X0116881Y0138131D01*
X0114381Y0140444D01*
X0117516Y0144887D02*
X0117516Y0148766D01*
X0118756Y0150006D01*
X0123756Y0150006D01*
X0125006Y0148756D01*
X0121256Y0144887D02*
X0121256Y0140006D01*
X0125193Y0136069D01*
X0125193Y0135006D01*
X0117516Y0155124D02*
X0114391Y0155016D01*
X0130006Y0163104D02*
X0130006Y0170006D01*
X0131256Y0171256D01*
X0138520Y0171256D01*
X0132506Y0161854D02*
X0132506Y0160604D01*
X0130006Y0163104D01*
X0141069Y0160006D02*
X0141069Y0157319D01*
D35*
X0142566Y0154856D02*
X0144207Y0154856D01*
X0144160Y0154844D01*
X0143841Y0154660D01*
X0143581Y0154399D01*
X0143396Y0154080D01*
X0143301Y0153724D01*
X0143301Y0152450D01*
X0146577Y0152450D01*
X0146577Y0151872D01*
X0143301Y0151872D01*
X0143301Y0150599D01*
X0143396Y0150243D01*
X0143581Y0149924D01*
X0143598Y0149906D01*
X0142863Y0149906D01*
X0142863Y0150623D01*
X0142767Y0150979D01*
X0142583Y0151299D01*
X0142322Y0151559D01*
X0142003Y0151744D01*
X0141647Y0151839D01*
X0140334Y0151839D01*
X0140334Y0149906D01*
X0139678Y0149906D01*
X0139678Y0151839D01*
X0139549Y0151839D01*
X0142566Y0154856D01*
X0142280Y0154570D02*
X0143752Y0154570D01*
X0144539Y0154939D02*
X0145430Y0155830D01*
X0145524Y0155736D01*
X0145843Y0155552D01*
X0146200Y0155456D01*
X0148543Y0155456D01*
X0148543Y0159606D01*
X0149343Y0159606D01*
X0149343Y0160406D01*
X0148543Y0160406D01*
X0148543Y0164555D01*
X0146200Y0164555D01*
X0145843Y0164460D01*
X0145524Y0164276D01*
X0145430Y0164182D01*
X0144456Y0165155D01*
X0137681Y0165155D01*
X0137582Y0165056D01*
X0136884Y0165754D01*
X0132806Y0165754D01*
X0132806Y0168456D01*
X0132979Y0168456D01*
X0133361Y0168075D01*
X0143679Y0168075D01*
X0144850Y0169246D01*
X0144850Y0172469D01*
X0145759Y0172469D01*
X0147151Y0173045D01*
X0148217Y0174111D01*
X0148793Y0175503D01*
X0148793Y0177009D01*
X0148217Y0178401D01*
X0147862Y0178756D01*
X0148217Y0179111D01*
X0148793Y0180503D01*
X0148793Y0182009D01*
X0148217Y0183401D01*
X0147151Y0184467D01*
X0145759Y0185043D01*
X0144253Y0185043D01*
X0144250Y0185042D01*
X0144250Y0186065D01*
X0138710Y0186065D01*
X0138710Y0186446D01*
X0144250Y0186446D01*
X0144250Y0187621D01*
X0144155Y0187977D01*
X0143971Y0188297D01*
X0143710Y0188557D01*
X0143391Y0188742D01*
X0143035Y0188837D01*
X0138710Y0188837D01*
X0138710Y0186447D01*
X0138329Y0186447D01*
X0138329Y0188837D01*
X0134005Y0188837D01*
X0133649Y0188742D01*
X0133329Y0188557D01*
X0133069Y0188297D01*
X0132884Y0187977D01*
X0132789Y0187621D01*
X0132789Y0186446D01*
X0138329Y0186446D01*
X0138329Y0186065D01*
X0132789Y0186065D01*
X0132789Y0184890D01*
X0132884Y0184534D01*
X0132903Y0184502D01*
X0132829Y0184472D01*
X0132154Y0183796D01*
X0131789Y0182914D01*
X0131789Y0179597D01*
X0132138Y0178756D01*
X0131789Y0177914D01*
X0131789Y0174597D01*
X0132013Y0174056D01*
X0130941Y0174056D01*
X0130956Y0174091D01*
X0130956Y0175921D01*
X0130256Y0177612D01*
X0128962Y0178906D01*
X0127271Y0179606D01*
X0126934Y0179606D01*
X0126871Y0179669D01*
X0124850Y0180506D01*
X0107006Y0180506D01*
X0107006Y0183638D01*
X0103638Y0187006D01*
X0102381Y0187006D01*
X0097506Y0191881D01*
X0097506Y0195706D01*
X0195706Y0195706D01*
X0195706Y0188744D01*
X0195237Y0188744D01*
X0194355Y0188379D01*
X0193680Y0187704D01*
X0193676Y0187695D01*
X0190406Y0187695D01*
X0190406Y0182020D01*
X0189606Y0182020D01*
X0189606Y0187695D01*
X0186081Y0187695D01*
X0185725Y0187600D01*
X0185406Y0187416D01*
X0185145Y0187155D01*
X0184961Y0186836D01*
X0184866Y0186480D01*
X0184866Y0184152D01*
X0181351Y0184152D01*
X0181351Y0180248D01*
X0180551Y0180248D01*
X0180551Y0179448D01*
X0175417Y0179448D01*
X0175417Y0178010D01*
X0174807Y0178010D01*
X0174760Y0177962D01*
X0165323Y0187399D01*
X0165323Y0188265D01*
X0164151Y0189437D01*
X0153833Y0189437D01*
X0152661Y0188265D01*
X0152661Y0184246D01*
X0153152Y0183756D01*
X0152661Y0183265D01*
X0152661Y0179246D01*
X0153152Y0178756D01*
X0152661Y0178265D01*
X0152661Y0174246D01*
X0153152Y0173756D01*
X0152661Y0173265D01*
X0152661Y0169246D01*
X0153833Y0168075D01*
X0162977Y0168075D01*
X0168538Y0162514D01*
X0169567Y0162088D01*
X0174722Y0162088D01*
X0174807Y0162002D01*
X0175417Y0162002D01*
X0175417Y0160563D01*
X0180551Y0160563D01*
X0180551Y0159763D01*
X0181351Y0159763D01*
X0181351Y0155860D01*
X0184866Y0155860D01*
X0184866Y0153532D01*
X0184961Y0153176D01*
X0185145Y0152857D01*
X0185406Y0152596D01*
X0185725Y0152412D01*
X0186081Y0152317D01*
X0189606Y0152317D01*
X0189606Y0157992D01*
X0190406Y0157992D01*
X0190406Y0152317D01*
X0193676Y0152317D01*
X0193680Y0152308D01*
X0194355Y0151633D01*
X0195237Y0151267D01*
X0195706Y0151267D01*
X0195706Y0147506D01*
X0173656Y0147506D01*
X0173656Y0147983D01*
X0173357Y0148704D01*
X0173419Y0148765D01*
X0174256Y0150787D01*
X0174256Y0152975D01*
X0173419Y0154996D01*
X0171871Y0156544D01*
X0169850Y0157381D01*
X0167662Y0157381D01*
X0165640Y0156544D01*
X0161290Y0152193D01*
X0150959Y0152193D01*
X0150431Y0151665D01*
X0150431Y0151872D01*
X0147155Y0151872D01*
X0147155Y0152450D01*
X0150431Y0152450D01*
X0150431Y0153724D01*
X0150336Y0154080D01*
X0150152Y0154399D01*
X0149891Y0154660D01*
X0149572Y0154844D01*
X0149216Y0154939D01*
X0147155Y0154939D01*
X0147155Y0152450D01*
X0146577Y0152450D01*
X0146577Y0154939D01*
X0144539Y0154939D01*
X0144969Y0155369D02*
X0164465Y0155369D01*
X0163667Y0154570D02*
X0149981Y0154570D01*
X0150419Y0153772D02*
X0162868Y0153772D01*
X0162070Y0152973D02*
X0150431Y0152973D01*
X0150941Y0152175D02*
X0147155Y0152175D01*
X0146577Y0152175D02*
X0139884Y0152175D01*
X0139678Y0151376D02*
X0140334Y0151376D01*
X0140334Y0150578D02*
X0139678Y0150578D01*
X0140683Y0152973D02*
X0143301Y0152973D01*
X0143314Y0153772D02*
X0141481Y0153772D01*
X0142505Y0151376D02*
X0143301Y0151376D01*
X0143307Y0150578D02*
X0142863Y0150578D01*
X0146577Y0152973D02*
X0147155Y0152973D01*
X0147155Y0153772D02*
X0146577Y0153772D01*
X0146577Y0154570D02*
X0147155Y0154570D01*
X0148543Y0156167D02*
X0149343Y0156167D01*
X0149343Y0155456D02*
X0151686Y0155456D01*
X0152042Y0155552D01*
X0152362Y0155736D01*
X0152622Y0155997D01*
X0152807Y0156316D01*
X0152902Y0156672D01*
X0152902Y0159606D01*
X0149343Y0159606D01*
X0149343Y0155456D01*
X0149343Y0156966D02*
X0148543Y0156966D01*
X0148543Y0157764D02*
X0149343Y0157764D01*
X0149343Y0158563D02*
X0148543Y0158563D01*
X0148543Y0159361D02*
X0149343Y0159361D01*
X0149343Y0160160D02*
X0180551Y0160160D01*
X0180551Y0159763D02*
X0175417Y0159763D01*
X0175417Y0157076D01*
X0175512Y0156719D01*
X0175697Y0156400D01*
X0175957Y0156140D01*
X0176277Y0155955D01*
X0176633Y0155860D01*
X0180551Y0155860D01*
X0180551Y0159763D01*
X0180551Y0159361D02*
X0181351Y0159361D01*
X0181351Y0158563D02*
X0180551Y0158563D01*
X0180551Y0157764D02*
X0181351Y0157764D01*
X0181351Y0156966D02*
X0180551Y0156966D01*
X0180551Y0156167D02*
X0181351Y0156167D01*
X0184866Y0155369D02*
X0173046Y0155369D01*
X0173595Y0154570D02*
X0184866Y0154570D01*
X0184866Y0153772D02*
X0173926Y0153772D01*
X0174256Y0152973D02*
X0185078Y0152973D01*
X0189606Y0152973D02*
X0190406Y0152973D01*
X0190406Y0153772D02*
X0189606Y0153772D01*
X0189606Y0154570D02*
X0190406Y0154570D01*
X0190406Y0155369D02*
X0189606Y0155369D01*
X0189606Y0156167D02*
X0190406Y0156167D01*
X0190406Y0156966D02*
X0189606Y0156966D01*
X0189606Y0157764D02*
X0190406Y0157764D01*
X0190406Y0158792D02*
X0189606Y0158792D01*
X0189606Y0164467D01*
X0187281Y0164467D01*
X0187281Y0175545D01*
X0189606Y0175545D01*
X0189606Y0181220D01*
X0190406Y0181220D01*
X0190406Y0175545D01*
X0193315Y0175545D01*
X0193315Y0164467D01*
X0190406Y0164467D01*
X0190406Y0158792D01*
X0190406Y0159361D02*
X0189606Y0159361D01*
X0189606Y0160160D02*
X0190406Y0160160D01*
X0190406Y0160958D02*
X0189606Y0160958D01*
X0189606Y0161757D02*
X0190406Y0161757D01*
X0190406Y0162555D02*
X0189606Y0162555D01*
X0189606Y0163354D02*
X0190406Y0163354D01*
X0190406Y0164152D02*
X0189606Y0164152D01*
X0187281Y0164951D02*
X0193315Y0164951D01*
X0193315Y0165749D02*
X0187281Y0165749D01*
X0187281Y0166548D02*
X0193315Y0166548D01*
X0193315Y0167346D02*
X0187281Y0167346D01*
X0187281Y0168145D02*
X0193315Y0168145D01*
X0193315Y0168943D02*
X0187281Y0168943D01*
X0187281Y0169742D02*
X0193315Y0169742D01*
X0193315Y0170540D02*
X0187281Y0170540D01*
X0187281Y0171339D02*
X0193315Y0171339D01*
X0193315Y0172137D02*
X0187281Y0172137D01*
X0187281Y0172936D02*
X0193315Y0172936D01*
X0193315Y0173734D02*
X0187281Y0173734D01*
X0187281Y0174533D02*
X0193315Y0174533D01*
X0193315Y0175331D02*
X0187281Y0175331D01*
X0189606Y0176130D02*
X0190406Y0176130D01*
X0190406Y0176928D02*
X0189606Y0176928D01*
X0189606Y0177727D02*
X0190406Y0177727D01*
X0190406Y0178525D02*
X0189606Y0178525D01*
X0189606Y0179324D02*
X0190406Y0179324D01*
X0190406Y0180122D02*
X0189606Y0180122D01*
X0189606Y0180921D02*
X0190406Y0180921D01*
X0190406Y0182518D02*
X0189606Y0182518D01*
X0189606Y0183316D02*
X0190406Y0183316D01*
X0190406Y0184115D02*
X0189606Y0184115D01*
X0189606Y0184914D02*
X0190406Y0184914D01*
X0190406Y0185712D02*
X0189606Y0185712D01*
X0189606Y0186511D02*
X0190406Y0186511D01*
X0190406Y0187309D02*
X0189606Y0187309D01*
X0185300Y0187309D02*
X0165413Y0187309D01*
X0165323Y0188108D02*
X0194084Y0188108D01*
X0195706Y0188906D02*
X0164682Y0188906D01*
X0166211Y0186511D02*
X0184874Y0186511D01*
X0184866Y0185712D02*
X0167010Y0185712D01*
X0167808Y0184914D02*
X0184866Y0184914D01*
X0181351Y0184115D02*
X0180551Y0184115D01*
X0180551Y0184152D02*
X0176633Y0184152D01*
X0176277Y0184057D01*
X0175957Y0183872D01*
X0175697Y0183612D01*
X0175512Y0183292D01*
X0175417Y0182936D01*
X0175417Y0180248D01*
X0180551Y0180248D01*
X0180551Y0184152D01*
X0180551Y0183316D02*
X0181351Y0183316D01*
X0181351Y0182518D02*
X0180551Y0182518D01*
X0180551Y0181719D02*
X0181351Y0181719D01*
X0181351Y0180921D02*
X0180551Y0180921D01*
X0180551Y0180122D02*
X0172599Y0180122D01*
X0173398Y0179324D02*
X0175417Y0179324D01*
X0175417Y0178525D02*
X0174196Y0178525D01*
X0175417Y0180921D02*
X0171801Y0180921D01*
X0171002Y0181719D02*
X0175417Y0181719D01*
X0175417Y0182518D02*
X0170204Y0182518D01*
X0169405Y0183316D02*
X0175526Y0183316D01*
X0176495Y0184115D02*
X0168607Y0184115D01*
X0152793Y0184115D02*
X0147503Y0184115D01*
X0148252Y0183316D02*
X0152712Y0183316D01*
X0152661Y0182518D02*
X0148583Y0182518D01*
X0148793Y0181719D02*
X0152661Y0181719D01*
X0152661Y0180921D02*
X0148793Y0180921D01*
X0148636Y0180122D02*
X0152661Y0180122D01*
X0152661Y0179324D02*
X0148305Y0179324D01*
X0148093Y0178525D02*
X0152921Y0178525D01*
X0152661Y0177727D02*
X0148496Y0177727D01*
X0148793Y0176928D02*
X0152661Y0176928D01*
X0152661Y0176130D02*
X0148793Y0176130D01*
X0148722Y0175331D02*
X0152661Y0175331D01*
X0152661Y0174533D02*
X0148392Y0174533D01*
X0147841Y0173734D02*
X0153130Y0173734D01*
X0152661Y0172936D02*
X0146888Y0172936D01*
X0144850Y0172137D02*
X0152661Y0172137D01*
X0152661Y0171339D02*
X0144850Y0171339D01*
X0144850Y0170540D02*
X0152661Y0170540D01*
X0152661Y0169742D02*
X0144850Y0169742D01*
X0144547Y0168943D02*
X0152965Y0168943D01*
X0153763Y0168145D02*
X0143749Y0168145D01*
X0144661Y0164951D02*
X0166101Y0164951D01*
X0165303Y0165749D02*
X0136888Y0165749D01*
X0132806Y0166548D02*
X0164504Y0166548D01*
X0163706Y0167346D02*
X0132806Y0167346D01*
X0132806Y0168145D02*
X0133291Y0168145D01*
X0131816Y0174533D02*
X0130956Y0174533D01*
X0130956Y0175331D02*
X0131789Y0175331D01*
X0131789Y0176130D02*
X0130869Y0176130D01*
X0130539Y0176928D02*
X0131789Y0176928D01*
X0131789Y0177727D02*
X0130140Y0177727D01*
X0129342Y0178525D02*
X0132042Y0178525D01*
X0131902Y0179324D02*
X0127952Y0179324D01*
X0127523Y0181160D02*
X0126750Y0181006D01*
X0124156Y0181006D01*
X0124156Y0184606D01*
X0124156Y0185406D01*
X0123356Y0185406D01*
X0123356Y0189006D01*
X0120762Y0189006D01*
X0119989Y0188852D01*
X0119261Y0188551D01*
X0118606Y0188113D01*
X0118049Y0187556D01*
X0117611Y0186901D01*
X0117310Y0186173D01*
X0117157Y0185406D01*
X0123356Y0185406D01*
X0123356Y0184606D01*
X0124156Y0184606D01*
X0130355Y0184606D01*
X0130202Y0183839D01*
X0129901Y0183111D01*
X0129463Y0182456D01*
X0128906Y0181899D01*
X0128251Y0181461D01*
X0127523Y0181160D01*
X0128637Y0181719D02*
X0131789Y0181719D01*
X0131789Y0180921D02*
X0107006Y0180921D01*
X0107006Y0181719D02*
X0118875Y0181719D01*
X0118606Y0181899D02*
X0119261Y0181461D01*
X0119989Y0181160D01*
X0120762Y0181006D01*
X0123356Y0181006D01*
X0123356Y0184606D01*
X0117157Y0184606D01*
X0117310Y0183839D01*
X0117611Y0183111D01*
X0118049Y0182456D01*
X0118606Y0181899D01*
X0118008Y0182518D02*
X0107006Y0182518D01*
X0107006Y0183316D02*
X0117526Y0183316D01*
X0117255Y0184115D02*
X0106529Y0184115D01*
X0105730Y0184914D02*
X0123356Y0184914D01*
X0123356Y0185712D02*
X0124156Y0185712D01*
X0124156Y0185406D02*
X0124156Y0189006D01*
X0126750Y0189006D01*
X0127523Y0188852D01*
X0128251Y0188551D01*
X0128906Y0188113D01*
X0129463Y0187556D01*
X0129901Y0186901D01*
X0130202Y0186173D01*
X0130355Y0185406D01*
X0124156Y0185406D01*
X0124156Y0184914D02*
X0132789Y0184914D01*
X0132789Y0185712D02*
X0130294Y0185712D01*
X0130062Y0186511D02*
X0132789Y0186511D01*
X0132789Y0187309D02*
X0129628Y0187309D01*
X0128911Y0188108D02*
X0132960Y0188108D01*
X0132473Y0184115D02*
X0130257Y0184115D01*
X0129986Y0183316D02*
X0131956Y0183316D01*
X0131789Y0182518D02*
X0129504Y0182518D01*
X0131789Y0180122D02*
X0125776Y0180122D01*
X0124156Y0181719D02*
X0123356Y0181719D01*
X0123356Y0182518D02*
X0124156Y0182518D01*
X0124156Y0183316D02*
X0123356Y0183316D01*
X0123356Y0184115D02*
X0124156Y0184115D01*
X0124156Y0186511D02*
X0123356Y0186511D01*
X0123356Y0187309D02*
X0124156Y0187309D01*
X0124156Y0188108D02*
X0123356Y0188108D01*
X0123356Y0188906D02*
X0124156Y0188906D01*
X0127252Y0188906D02*
X0153302Y0188906D01*
X0152661Y0188108D02*
X0144080Y0188108D01*
X0144250Y0187309D02*
X0152661Y0187309D01*
X0152661Y0186511D02*
X0144250Y0186511D01*
X0144250Y0185712D02*
X0152661Y0185712D01*
X0152661Y0184914D02*
X0146073Y0184914D01*
X0138710Y0186511D02*
X0138329Y0186511D01*
X0138329Y0187309D02*
X0138710Y0187309D01*
X0138710Y0188108D02*
X0138329Y0188108D01*
X0120260Y0188906D02*
X0100481Y0188906D01*
X0101279Y0188108D02*
X0118601Y0188108D01*
X0117884Y0187309D02*
X0102078Y0187309D01*
X0104133Y0186511D02*
X0117450Y0186511D01*
X0117218Y0185712D02*
X0104931Y0185712D01*
X0099682Y0189705D02*
X0195706Y0189705D01*
X0195706Y0190503D02*
X0098884Y0190503D01*
X0098085Y0191302D02*
X0195706Y0191302D01*
X0195706Y0192100D02*
X0097506Y0192100D01*
X0097506Y0192899D02*
X0195706Y0192899D01*
X0195706Y0193697D02*
X0097506Y0193697D01*
X0097506Y0194496D02*
X0195706Y0194496D01*
X0195706Y0195294D02*
X0097506Y0195294D01*
X0099035Y0155910D02*
X0099040Y0155906D01*
X0103472Y0155906D01*
X0103789Y0156223D01*
X0106881Y0153131D01*
X0112051Y0153131D01*
X0112699Y0152483D01*
X0113797Y0152028D01*
X0114904Y0152028D01*
X0115770Y0151162D01*
X0119261Y0151162D01*
X0120198Y0152099D01*
X0120198Y0153131D01*
X0122313Y0153131D01*
X0122313Y0152099D01*
X0123251Y0151162D01*
X0126741Y0151162D01*
X0127357Y0151777D01*
X0127357Y0147836D01*
X0127199Y0148109D01*
X0126938Y0148370D01*
X0126619Y0148554D01*
X0126263Y0148650D01*
X0125137Y0148650D01*
X0125137Y0145029D01*
X0124855Y0145029D01*
X0124855Y0148650D01*
X0123729Y0148650D01*
X0123373Y0148554D01*
X0123325Y0148526D01*
X0123001Y0148850D01*
X0119510Y0148850D01*
X0119187Y0148526D01*
X0119139Y0148554D01*
X0118783Y0148650D01*
X0117657Y0148650D01*
X0117657Y0145029D01*
X0117374Y0145029D01*
X0117374Y0144746D01*
X0115033Y0144746D01*
X0115033Y0143407D01*
X0114975Y0143431D01*
X0113787Y0143431D01*
X0112689Y0142976D01*
X0111848Y0142136D01*
X0111394Y0141038D01*
X0111394Y0139850D01*
X0111848Y0138752D01*
X0112689Y0137911D01*
X0113160Y0137716D01*
X0113160Y0136986D01*
X0104381Y0126256D01*
X0103822Y0126256D01*
X0103472Y0126606D01*
X0099040Y0126606D01*
X0099035Y0126601D01*
X0096601Y0129035D01*
X0096606Y0129040D01*
X0096606Y0133472D01*
X0096256Y0133822D01*
X0096256Y0138690D01*
X0096606Y0139040D01*
X0096606Y0143472D01*
X0096256Y0143822D01*
X0096256Y0148690D01*
X0096606Y0149040D01*
X0096606Y0153472D01*
X0096601Y0153476D01*
X0099035Y0155910D01*
X0098494Y0155369D02*
X0104643Y0155369D01*
X0103845Y0156167D02*
X0103733Y0156167D01*
X0105442Y0154570D02*
X0097695Y0154570D01*
X0096897Y0153772D02*
X0106240Y0153772D01*
X0112209Y0152973D02*
X0096606Y0152973D01*
X0096606Y0152175D02*
X0113444Y0152175D01*
X0115556Y0151376D02*
X0096606Y0151376D01*
X0096606Y0150578D02*
X0127357Y0150578D01*
X0127357Y0151376D02*
X0126955Y0151376D01*
X0127357Y0149779D02*
X0096606Y0149779D01*
X0096547Y0148980D02*
X0127357Y0148980D01*
X0127357Y0148182D02*
X0127126Y0148182D01*
X0125137Y0148182D02*
X0124855Y0148182D01*
X0124855Y0147383D02*
X0125137Y0147383D01*
X0125137Y0146585D02*
X0124855Y0146585D01*
X0124855Y0145786D02*
X0125137Y0145786D01*
X0125137Y0145029D02*
X0127479Y0145029D01*
X0127479Y0145473D01*
X0128294Y0144658D01*
X0132019Y0144658D01*
X0134369Y0142308D01*
X0135157Y0141520D01*
X0136186Y0141094D01*
X0137266Y0141094D01*
X0137886Y0140473D01*
X0142125Y0140473D01*
X0142746Y0141094D01*
X0143201Y0141094D01*
X0143301Y0141135D01*
X0143301Y0140639D01*
X0146577Y0140639D01*
X0146577Y0140061D01*
X0147155Y0140061D01*
X0147155Y0137572D01*
X0149216Y0137572D01*
X0149572Y0137668D01*
X0149891Y0137852D01*
X0150152Y0138113D01*
X0150336Y0138432D01*
X0150431Y0138788D01*
X0150431Y0140061D01*
X0147155Y0140061D01*
X0147155Y0140639D01*
X0150431Y0140639D01*
X0150431Y0141412D01*
X0151125Y0140719D01*
X0163474Y0140719D01*
X0163911Y0141156D01*
X0164145Y0141156D01*
X0166020Y0141932D01*
X0167406Y0143318D01*
X0167406Y0140506D01*
X0169806Y0140506D01*
X0169806Y0145718D01*
X0171256Y0147168D01*
X0171256Y0146056D01*
X0170206Y0146056D01*
X0170206Y0140506D01*
X0169806Y0140506D01*
X0169806Y0140106D01*
X0170206Y0140106D01*
X0170206Y0134556D01*
X0171256Y0134556D01*
X0171256Y0133117D01*
X0170592Y0133781D01*
X0166527Y0133781D01*
X0166527Y0136377D01*
X0165590Y0137315D01*
X0160721Y0137315D01*
X0159833Y0136427D01*
X0159748Y0136574D01*
X0159488Y0136835D01*
X0159168Y0137019D01*
X0158812Y0137115D01*
X0156948Y0137115D01*
X0156948Y0134823D01*
X0156764Y0134823D01*
X0156764Y0137115D01*
X0154900Y0137115D01*
X0154544Y0137019D01*
X0154225Y0136835D01*
X0153964Y0136574D01*
X0153780Y0136255D01*
X0153685Y0135899D01*
X0153685Y0134822D01*
X0156764Y0134822D01*
X0156764Y0134638D01*
X0153685Y0134638D01*
X0153685Y0133562D01*
X0153780Y0133206D01*
X0153809Y0133156D01*
X0153780Y0133105D01*
X0153685Y0132749D01*
X0153685Y0131673D01*
X0156764Y0131673D01*
X0156764Y0133965D01*
X0156764Y0134638D01*
X0156948Y0134638D01*
X0156948Y0131673D01*
X0156764Y0131673D01*
X0156764Y0131489D01*
X0153685Y0131489D01*
X0153685Y0130412D01*
X0153780Y0130056D01*
X0153809Y0130006D01*
X0153780Y0129956D01*
X0153685Y0129600D01*
X0153685Y0128523D01*
X0156764Y0128523D01*
X0156764Y0128339D01*
X0153685Y0128339D01*
X0153685Y0127263D01*
X0153780Y0126906D01*
X0153809Y0126856D01*
X0153780Y0126806D01*
X0153685Y0126450D01*
X0153685Y0125374D01*
X0156764Y0125374D01*
X0156764Y0127666D01*
X0156764Y0128339D01*
X0156948Y0128339D01*
X0156948Y0125374D01*
X0156764Y0125374D01*
X0156764Y0125189D01*
X0156948Y0125189D01*
X0156948Y0122897D01*
X0158812Y0122897D01*
X0159168Y0122993D01*
X0159488Y0123177D01*
X0159748Y0123438D01*
X0159833Y0123585D01*
X0160721Y0122697D01*
X0165590Y0122697D01*
X0165974Y0123081D01*
X0167206Y0123081D01*
X0167206Y0114693D01*
X0167806Y0114093D01*
X0167806Y0104667D01*
X0160345Y0097206D01*
X0159056Y0095917D01*
X0159056Y0093634D01*
X0158061Y0094046D01*
X0156951Y0094046D01*
X0155925Y0093622D01*
X0155140Y0092837D01*
X0155003Y0092506D01*
X0150001Y0092506D01*
X0150001Y0092628D01*
X0151023Y0092628D01*
X0151960Y0093566D01*
X0151960Y0095079D01*
X0151970Y0095089D01*
X0151970Y0096216D01*
X0152576Y0095965D01*
X0153686Y0095965D01*
X0154712Y0096390D01*
X0155497Y0097175D01*
X0155921Y0098201D01*
X0155921Y0099311D01*
X0155506Y0100314D01*
X0155506Y0102956D01*
X0153056Y0102956D01*
X0153056Y0101823D01*
X0153130Y0101546D01*
X0152576Y0101546D01*
X0152156Y0101372D01*
X0152156Y0105214D01*
X0151114Y0106256D01*
X0152156Y0107298D01*
X0152156Y0111314D01*
X0151521Y0111949D01*
X0152627Y0111949D01*
X0152835Y0112157D01*
X0152863Y0112149D01*
X0153723Y0112149D01*
X0153596Y0112076D01*
X0153336Y0111816D01*
X0153151Y0111496D01*
X0153056Y0111140D01*
X0153056Y0109556D01*
X0155506Y0109556D01*
X0155506Y0109056D01*
X0156006Y0109056D01*
X0156006Y0109556D01*
X0158456Y0109556D01*
X0158456Y0111140D01*
X0158360Y0111496D01*
X0158176Y0111816D01*
X0157916Y0112076D01*
X0157596Y0112260D01*
X0157364Y0112323D01*
X0157549Y0112429D01*
X0157809Y0112690D01*
X0157994Y0113009D01*
X0158089Y0113365D01*
X0158089Y0114678D01*
X0155197Y0114678D01*
X0155197Y0115334D01*
X0158089Y0115334D01*
X0158089Y0116647D01*
X0157994Y0117003D01*
X0157809Y0117322D01*
X0157549Y0117583D01*
X0157229Y0117767D01*
X0156873Y0117863D01*
X0155196Y0117863D01*
X0155196Y0115334D01*
X0154540Y0115334D01*
X0154540Y0117863D01*
X0152863Y0117863D01*
X0152835Y0117855D01*
X0152627Y0118063D01*
X0149381Y0118063D01*
X0149381Y0120660D01*
X0150068Y0120660D01*
X0151005Y0121597D01*
X0151005Y0128041D01*
X0150118Y0128928D01*
X0150265Y0129014D01*
X0150526Y0129274D01*
X0150710Y0129593D01*
X0150805Y0129950D01*
X0150805Y0132293D01*
X0146656Y0132293D01*
X0146656Y0133093D01*
X0145856Y0133093D01*
X0145856Y0136652D01*
X0142922Y0136652D01*
X0142566Y0136557D01*
X0142247Y0136372D01*
X0141986Y0136112D01*
X0141802Y0135792D01*
X0141706Y0135436D01*
X0141706Y0133093D01*
X0145856Y0133093D01*
X0145856Y0132293D01*
X0141825Y0132293D01*
X0140901Y0133217D01*
X0139509Y0133793D01*
X0138003Y0133793D01*
X0136881Y0133329D01*
X0135759Y0133793D01*
X0134253Y0133793D01*
X0132861Y0133217D01*
X0131795Y0132151D01*
X0131642Y0131781D01*
X0130006Y0131781D01*
X0130006Y0136256D01*
X0129352Y0136910D01*
X0129352Y0138818D01*
X0128415Y0139755D01*
X0126506Y0139755D01*
X0126256Y0140006D01*
X0124650Y0140006D01*
X0123656Y0141000D01*
X0123656Y0141145D01*
X0123729Y0141125D01*
X0124855Y0141125D01*
X0124855Y0144746D01*
X0125137Y0144746D01*
X0125137Y0141125D01*
X0126263Y0141125D01*
X0126619Y0141221D01*
X0126938Y0141405D01*
X0127199Y0141666D01*
X0127383Y0141985D01*
X0127479Y0142341D01*
X0127479Y0144746D01*
X0125137Y0144746D01*
X0125137Y0145029D01*
X0125137Y0144988D02*
X0127964Y0144988D01*
X0127479Y0144189D02*
X0132488Y0144189D01*
X0133286Y0143391D02*
X0127479Y0143391D01*
X0127479Y0142592D02*
X0134085Y0142592D01*
X0134883Y0141794D02*
X0127273Y0141794D01*
X0125137Y0141794D02*
X0124855Y0141794D01*
X0124855Y0142592D02*
X0125137Y0142592D01*
X0125137Y0143391D02*
X0124855Y0143391D01*
X0124855Y0144189D02*
X0125137Y0144189D01*
X0123661Y0140995D02*
X0137364Y0140995D01*
X0142648Y0140995D02*
X0143301Y0140995D01*
X0143301Y0140061D02*
X0143301Y0138788D01*
X0143396Y0138432D01*
X0143581Y0138113D01*
X0143841Y0137852D01*
X0144160Y0137668D01*
X0144516Y0137572D01*
X0146577Y0137572D01*
X0146577Y0140061D01*
X0143301Y0140061D01*
X0143301Y0139398D02*
X0128772Y0139398D01*
X0129352Y0138600D02*
X0143351Y0138600D01*
X0143929Y0137801D02*
X0129352Y0137801D01*
X0129352Y0137003D02*
X0154516Y0137003D01*
X0153766Y0136204D02*
X0150433Y0136204D01*
X0150526Y0136112D02*
X0150265Y0136372D01*
X0149946Y0136557D01*
X0149590Y0136652D01*
X0146656Y0136652D01*
X0146656Y0133093D01*
X0150805Y0133093D01*
X0150805Y0135436D01*
X0150710Y0135792D01*
X0150526Y0136112D01*
X0150805Y0135406D02*
X0153685Y0135406D01*
X0153685Y0134607D02*
X0150805Y0134607D01*
X0150805Y0133809D02*
X0153685Y0133809D01*
X0153755Y0133010D02*
X0146656Y0133010D01*
X0146656Y0133809D02*
X0145856Y0133809D01*
X0145856Y0134607D02*
X0146656Y0134607D01*
X0146656Y0135406D02*
X0145856Y0135406D01*
X0145856Y0136204D02*
X0146656Y0136204D01*
X0146577Y0137801D02*
X0147155Y0137801D01*
X0147155Y0138600D02*
X0146577Y0138600D01*
X0146577Y0139398D02*
X0147155Y0139398D01*
X0147155Y0140197D02*
X0169806Y0140197D01*
X0169806Y0140106D02*
X0167406Y0140106D01*
X0167406Y0135772D01*
X0167501Y0135416D01*
X0167686Y0135096D01*
X0167946Y0134836D01*
X0168266Y0134651D01*
X0168622Y0134556D01*
X0169806Y0134556D01*
X0169806Y0140106D01*
X0169806Y0139398D02*
X0170206Y0139398D01*
X0170206Y0138600D02*
X0169806Y0138600D01*
X0169806Y0137801D02*
X0170206Y0137801D01*
X0170206Y0137003D02*
X0169806Y0137003D01*
X0169806Y0136204D02*
X0170206Y0136204D01*
X0170206Y0135406D02*
X0169806Y0135406D01*
X0169806Y0134607D02*
X0170206Y0134607D01*
X0171256Y0133809D02*
X0166527Y0133809D01*
X0166527Y0134607D02*
X0168430Y0134607D01*
X0167507Y0135406D02*
X0166527Y0135406D01*
X0166527Y0136204D02*
X0167406Y0136204D01*
X0167406Y0137003D02*
X0165902Y0137003D01*
X0167406Y0137801D02*
X0149803Y0137801D01*
X0150381Y0138600D02*
X0167406Y0138600D01*
X0167406Y0139398D02*
X0150431Y0139398D01*
X0150431Y0140995D02*
X0150848Y0140995D01*
X0150187Y0142526D02*
X0150152Y0142588D01*
X0149891Y0142849D01*
X0149572Y0143033D01*
X0149216Y0143128D01*
X0147155Y0143128D01*
X0147155Y0140639D01*
X0146577Y0140639D01*
X0146577Y0143128D01*
X0145838Y0143128D01*
X0145988Y0143278D01*
X0150187Y0143278D01*
X0150187Y0142526D01*
X0150187Y0142592D02*
X0150147Y0142592D01*
X0147155Y0142592D02*
X0146577Y0142592D01*
X0146577Y0141794D02*
X0147155Y0141794D01*
X0147155Y0140995D02*
X0146577Y0140995D01*
X0146577Y0140197D02*
X0124459Y0140197D01*
X0118856Y0140197D02*
X0118182Y0140197D01*
X0118196Y0140184D02*
X0117368Y0140950D01*
X0117368Y0141038D01*
X0117332Y0141125D01*
X0117374Y0141125D01*
X0117374Y0144746D01*
X0117657Y0144746D01*
X0117657Y0141125D01*
X0118783Y0141125D01*
X0118856Y0141145D01*
X0118856Y0140006D01*
X0118400Y0140006D01*
X0118240Y0140166D01*
X0118196Y0140184D01*
X0118856Y0140995D02*
X0117368Y0140995D01*
X0117374Y0141794D02*
X0117657Y0141794D01*
X0117657Y0142592D02*
X0117374Y0142592D01*
X0117374Y0143391D02*
X0117657Y0143391D01*
X0117657Y0144189D02*
X0117374Y0144189D01*
X0117374Y0144988D02*
X0096256Y0144988D01*
X0096256Y0145786D02*
X0115033Y0145786D01*
X0115033Y0145029D02*
X0115033Y0147434D01*
X0115128Y0147790D01*
X0115313Y0148109D01*
X0115573Y0148370D01*
X0115893Y0148554D01*
X0116249Y0148650D01*
X0117374Y0148650D01*
X0117374Y0145029D01*
X0115033Y0145029D01*
X0115033Y0144189D02*
X0096256Y0144189D01*
X0096606Y0143391D02*
X0113689Y0143391D01*
X0112305Y0142592D02*
X0096606Y0142592D01*
X0096606Y0141794D02*
X0111707Y0141794D01*
X0111394Y0140995D02*
X0096606Y0140995D01*
X0096606Y0140197D02*
X0111394Y0140197D01*
X0111580Y0139398D02*
X0096606Y0139398D01*
X0096256Y0138600D02*
X0112000Y0138600D01*
X0112954Y0137801D02*
X0096256Y0137801D01*
X0096256Y0137003D02*
X0113160Y0137003D01*
X0112521Y0136204D02*
X0096256Y0136204D01*
X0096256Y0135406D02*
X0111867Y0135406D01*
X0111214Y0134607D02*
X0096256Y0134607D01*
X0096269Y0133809D02*
X0110561Y0133809D01*
X0109907Y0133010D02*
X0096606Y0133010D01*
X0096606Y0132212D02*
X0109254Y0132212D01*
X0108601Y0131413D02*
X0096606Y0131413D01*
X0096606Y0130615D02*
X0107947Y0130615D01*
X0107294Y0129816D02*
X0096606Y0129816D01*
X0096619Y0129018D02*
X0106641Y0129018D01*
X0105987Y0128219D02*
X0097418Y0128219D01*
X0098216Y0127421D02*
X0105334Y0127421D01*
X0104681Y0126622D02*
X0099015Y0126622D01*
X0096256Y0146585D02*
X0115033Y0146585D01*
X0115033Y0147383D02*
X0096256Y0147383D01*
X0096256Y0148182D02*
X0115386Y0148182D01*
X0117374Y0148182D02*
X0117657Y0148182D01*
X0117657Y0147383D02*
X0117374Y0147383D01*
X0117374Y0146585D02*
X0117657Y0146585D01*
X0117657Y0145786D02*
X0117374Y0145786D01*
X0119475Y0151376D02*
X0123037Y0151376D01*
X0122313Y0152175D02*
X0120198Y0152175D01*
X0120198Y0152973D02*
X0122313Y0152973D01*
X0130006Y0136204D02*
X0142079Y0136204D01*
X0141706Y0135406D02*
X0130006Y0135406D01*
X0130006Y0134607D02*
X0141706Y0134607D01*
X0141706Y0133809D02*
X0130006Y0133809D01*
X0130006Y0133010D02*
X0132654Y0133010D01*
X0131856Y0132212D02*
X0130006Y0132212D01*
X0141108Y0133010D02*
X0145856Y0133010D01*
X0150805Y0132212D02*
X0153685Y0132212D01*
X0153685Y0131413D02*
X0150805Y0131413D01*
X0150805Y0130615D02*
X0153685Y0130615D01*
X0153743Y0129816D02*
X0150770Y0129816D01*
X0150269Y0129018D02*
X0153685Y0129018D01*
X0153685Y0128219D02*
X0150827Y0128219D01*
X0151005Y0127421D02*
X0153685Y0127421D01*
X0153731Y0126622D02*
X0151005Y0126622D01*
X0151005Y0125824D02*
X0153685Y0125824D01*
X0153685Y0125189D02*
X0153685Y0124113D01*
X0153780Y0123757D01*
X0153964Y0123438D01*
X0154225Y0123177D01*
X0154544Y0122993D01*
X0154900Y0122897D01*
X0156764Y0122897D01*
X0156764Y0125189D01*
X0153685Y0125189D01*
X0153685Y0125025D02*
X0151005Y0125025D01*
X0151005Y0124227D02*
X0153685Y0124227D01*
X0153974Y0123428D02*
X0151005Y0123428D01*
X0151005Y0122630D02*
X0167206Y0122630D01*
X0167206Y0121831D02*
X0151005Y0121831D01*
X0150441Y0121033D02*
X0167206Y0121033D01*
X0167206Y0120234D02*
X0149381Y0120234D01*
X0149381Y0119436D02*
X0167206Y0119436D01*
X0167206Y0118637D02*
X0149381Y0118637D01*
X0154540Y0117839D02*
X0155196Y0117839D01*
X0155196Y0117040D02*
X0154540Y0117040D01*
X0154540Y0116242D02*
X0155196Y0116242D01*
X0155196Y0115443D02*
X0154540Y0115443D01*
X0156963Y0117839D02*
X0167206Y0117839D01*
X0167206Y0117040D02*
X0157972Y0117040D01*
X0158089Y0116242D02*
X0167206Y0116242D01*
X0167206Y0115443D02*
X0158089Y0115443D01*
X0158089Y0114645D02*
X0167255Y0114645D01*
X0167806Y0113846D02*
X0158089Y0113846D01*
X0158004Y0113047D02*
X0167806Y0113047D01*
X0167806Y0112249D02*
X0157616Y0112249D01*
X0158373Y0111450D02*
X0167806Y0111450D01*
X0167806Y0110652D02*
X0158456Y0110652D01*
X0158456Y0109853D02*
X0167806Y0109853D01*
X0167806Y0109055D02*
X0158456Y0109055D01*
X0158456Y0109056D02*
X0156006Y0109056D01*
X0156006Y0106256D01*
X0157240Y0106256D01*
X0157596Y0106351D01*
X0157916Y0106536D01*
X0158176Y0106796D01*
X0158360Y0107116D01*
X0158456Y0107472D01*
X0158456Y0109056D01*
X0158456Y0108256D02*
X0167806Y0108256D01*
X0167806Y0107458D02*
X0158452Y0107458D01*
X0158039Y0106659D02*
X0167806Y0106659D01*
X0167806Y0105861D02*
X0157726Y0105861D01*
X0157715Y0105872D02*
X0157277Y0106125D01*
X0156789Y0106256D01*
X0156006Y0106256D01*
X0156006Y0103456D01*
X0155506Y0103456D01*
X0155506Y0106256D01*
X0155506Y0109056D01*
X0153056Y0109056D01*
X0153056Y0107472D01*
X0153151Y0107116D01*
X0153336Y0106796D01*
X0153596Y0106536D01*
X0153916Y0106351D01*
X0154272Y0106256D01*
X0155506Y0106256D01*
X0154723Y0106256D01*
X0154235Y0106125D01*
X0153797Y0105872D01*
X0153440Y0105515D01*
X0153187Y0105077D01*
X0153056Y0104589D01*
X0153056Y0103456D01*
X0155506Y0103456D01*
X0155506Y0102956D01*
X0156006Y0102956D01*
X0156006Y0103456D01*
X0158456Y0103456D01*
X0158456Y0104589D01*
X0158325Y0105077D01*
X0158072Y0105515D01*
X0157715Y0105872D01*
X0158329Y0105062D02*
X0167806Y0105062D01*
X0167403Y0104264D02*
X0158456Y0104264D01*
X0158456Y0103465D02*
X0166604Y0103465D01*
X0165806Y0102667D02*
X0158456Y0102667D01*
X0158456Y0102956D02*
X0158456Y0101823D01*
X0158325Y0101335D01*
X0158072Y0100897D01*
X0157715Y0100540D01*
X0157277Y0100287D01*
X0156789Y0100156D01*
X0156006Y0100156D01*
X0156006Y0102956D01*
X0158456Y0102956D01*
X0158456Y0101868D02*
X0165007Y0101868D01*
X0164209Y0101070D02*
X0158172Y0101070D01*
X0157219Y0100271D02*
X0163410Y0100271D01*
X0162612Y0099473D02*
X0155854Y0099473D01*
X0155921Y0098674D02*
X0161813Y0098674D01*
X0161015Y0097876D02*
X0155787Y0097876D01*
X0155399Y0097077D02*
X0160216Y0097077D01*
X0159417Y0096279D02*
X0154443Y0096279D01*
X0151970Y0095480D02*
X0159056Y0095480D01*
X0159056Y0094682D02*
X0151960Y0094682D01*
X0151960Y0093883D02*
X0156557Y0093883D01*
X0155388Y0093085D02*
X0151479Y0093085D01*
X0158455Y0093883D02*
X0159056Y0093883D01*
X0156006Y0100271D02*
X0155524Y0100271D01*
X0155506Y0101070D02*
X0156006Y0101070D01*
X0156006Y0101868D02*
X0155506Y0101868D01*
X0155506Y0102667D02*
X0156006Y0102667D01*
X0156006Y0103465D02*
X0155506Y0103465D01*
X0155506Y0104264D02*
X0156006Y0104264D01*
X0156006Y0105062D02*
X0155506Y0105062D01*
X0155506Y0105861D02*
X0156006Y0105861D01*
X0156006Y0106659D02*
X0155506Y0106659D01*
X0155506Y0107458D02*
X0156006Y0107458D01*
X0156006Y0108256D02*
X0155506Y0108256D01*
X0155506Y0109055D02*
X0156006Y0109055D01*
X0153056Y0109055D02*
X0152156Y0109055D01*
X0152156Y0109853D02*
X0153056Y0109853D01*
X0153056Y0110652D02*
X0152156Y0110652D01*
X0152019Y0111450D02*
X0153139Y0111450D01*
X0153056Y0108256D02*
X0152156Y0108256D01*
X0152156Y0107458D02*
X0153060Y0107458D01*
X0153473Y0106659D02*
X0151518Y0106659D01*
X0151509Y0105861D02*
X0153786Y0105861D01*
X0153183Y0105062D02*
X0152156Y0105062D01*
X0152156Y0104264D02*
X0153056Y0104264D01*
X0153056Y0103465D02*
X0152156Y0103465D01*
X0152156Y0102667D02*
X0153056Y0102667D01*
X0153056Y0101868D02*
X0152156Y0101868D01*
X0156764Y0123428D02*
X0156948Y0123428D01*
X0156948Y0124227D02*
X0156764Y0124227D01*
X0156764Y0125025D02*
X0156948Y0125025D01*
X0156948Y0125824D02*
X0156764Y0125824D01*
X0156764Y0126622D02*
X0156948Y0126622D01*
X0156948Y0127421D02*
X0156764Y0127421D01*
X0156764Y0128219D02*
X0156948Y0128219D01*
X0156948Y0128523D02*
X0156764Y0128523D01*
X0156764Y0129196D01*
X0156764Y0131488D01*
X0156948Y0131488D01*
X0156948Y0128523D01*
X0156948Y0129018D02*
X0156764Y0129018D01*
X0156764Y0129816D02*
X0156948Y0129816D01*
X0156948Y0130615D02*
X0156764Y0130615D01*
X0156764Y0131413D02*
X0156948Y0131413D01*
X0156948Y0132212D02*
X0156764Y0132212D01*
X0156764Y0133010D02*
X0156948Y0133010D01*
X0156948Y0133809D02*
X0156764Y0133809D01*
X0156764Y0134607D02*
X0156948Y0134607D01*
X0156948Y0135406D02*
X0156764Y0135406D01*
X0156764Y0136204D02*
X0156948Y0136204D01*
X0156948Y0137003D02*
X0156764Y0137003D01*
X0159197Y0137003D02*
X0160409Y0137003D01*
X0163750Y0140995D02*
X0167406Y0140995D01*
X0167406Y0141794D02*
X0165686Y0141794D01*
X0166680Y0142592D02*
X0167406Y0142592D01*
X0169806Y0142592D02*
X0170206Y0142592D01*
X0170206Y0141794D02*
X0169806Y0141794D01*
X0169806Y0140995D02*
X0170206Y0140995D01*
X0170206Y0143391D02*
X0169806Y0143391D01*
X0169806Y0144189D02*
X0170206Y0144189D01*
X0170206Y0144988D02*
X0169806Y0144988D01*
X0169874Y0145786D02*
X0170206Y0145786D01*
X0170672Y0146585D02*
X0171256Y0146585D01*
X0173574Y0148182D02*
X0195706Y0148182D01*
X0195706Y0148980D02*
X0173508Y0148980D01*
X0173838Y0149779D02*
X0195706Y0149779D01*
X0195706Y0150578D02*
X0174169Y0150578D01*
X0174256Y0151376D02*
X0194975Y0151376D01*
X0193813Y0152175D02*
X0174256Y0152175D01*
X0175930Y0156167D02*
X0172248Y0156167D01*
X0170852Y0156966D02*
X0175446Y0156966D01*
X0175417Y0157764D02*
X0152902Y0157764D01*
X0152902Y0156966D02*
X0166659Y0156966D01*
X0165264Y0156167D02*
X0152721Y0156167D01*
X0152902Y0158563D02*
X0175417Y0158563D01*
X0175417Y0159361D02*
X0152902Y0159361D01*
X0152902Y0160406D02*
X0152902Y0163340D01*
X0152807Y0163696D01*
X0152622Y0164015D01*
X0152362Y0164276D01*
X0152042Y0164460D01*
X0151686Y0164555D01*
X0149343Y0164555D01*
X0149343Y0160406D01*
X0152902Y0160406D01*
X0152902Y0160958D02*
X0175417Y0160958D01*
X0175417Y0161757D02*
X0152902Y0161757D01*
X0152902Y0162555D02*
X0168497Y0162555D01*
X0167698Y0163354D02*
X0152898Y0163354D01*
X0152485Y0164152D02*
X0166900Y0164152D01*
X0149343Y0164152D02*
X0148543Y0164152D01*
X0148543Y0163354D02*
X0149343Y0163354D01*
X0149343Y0162555D02*
X0148543Y0162555D01*
X0148543Y0161757D02*
X0149343Y0161757D01*
X0149343Y0160958D02*
X0148543Y0160958D01*
X0159739Y0123428D02*
X0159990Y0123428D01*
D36*
X0163156Y0125281D02*
X0168480Y0125281D01*
X0170006Y0123756D01*
X0170006Y0119706D01*
X0170006Y0103756D01*
X0161256Y0095006D01*
X0161256Y0087506D01*
X0160301Y0086551D01*
X0157250Y0086551D01*
X0157250Y0084583D02*
X0162083Y0084583D01*
X0163756Y0086256D01*
X0163756Y0094381D01*
X0175006Y0105631D01*
X0175006Y0119706D01*
X0175006Y0123756D01*
X0172506Y0126256D01*
X0171256Y0126256D01*
X0169081Y0128431D01*
X0163156Y0128431D01*
X0163156Y0131581D02*
X0169681Y0131581D01*
X0172506Y0128756D01*
X0175006Y0128756D01*
X0180006Y0123756D01*
X0182506Y0126256D01*
X0189602Y0126256D01*
X0192506Y0123352D01*
X0192506Y0116659D02*
X0185409Y0116659D01*
X0185006Y0116256D01*
X0185006Y0119706D01*
X0180006Y0119706D02*
X0180006Y0123756D01*
X0180006Y0119706D02*
X0180006Y0107506D01*
X0166256Y0093756D01*
X0166256Y0085006D01*
X0163864Y0082614D01*
X0157250Y0082614D01*
X0157250Y0078677D02*
X0163677Y0078677D01*
X0168756Y0083756D01*
X0168756Y0086256D01*
X0175006Y0092506D01*
X0175006Y0082506D02*
X0175006Y0080006D01*
X0172506Y0077506D01*
X0170006Y0077506D01*
X0167240Y0074740D01*
X0157250Y0074740D01*
X0157250Y0072772D02*
X0154022Y0072772D01*
X0152506Y0071256D01*
X0152506Y0068131D01*
X0152506Y0064381D02*
X0154179Y0062929D01*
X0157250Y0062929D01*
X0157250Y0060961D02*
X0160926Y0060961D01*
X0161256Y0060631D01*
X0161256Y0058756D01*
X0159381Y0056881D01*
X0153131Y0056881D01*
X0149381Y0060631D01*
X0140631Y0060631D01*
X0137506Y0057506D01*
X0137959Y0057053D01*
X0137959Y0051512D01*
X0139927Y0051512D02*
X0139927Y0045710D01*
X0145631Y0040006D01*
X0167506Y0040006D01*
X0170006Y0037506D01*
X0180006Y0037506D01*
X0185006Y0042506D01*
X0175006Y0042506D02*
X0146256Y0042506D01*
X0141896Y0046866D01*
X0141896Y0051512D01*
X0143864Y0051512D02*
X0143864Y0048023D01*
X0146881Y0045006D01*
X0167506Y0045006D01*
X0170006Y0047506D01*
X0170006Y0052506D02*
X0165006Y0047506D01*
X0147506Y0047506D01*
X0145833Y0049179D01*
X0145833Y0051512D01*
X0147801Y0051512D02*
X0147801Y0057211D01*
X0147506Y0057506D01*
X0149770Y0051512D02*
X0149770Y0050262D01*
X0150026Y0050006D01*
X0163756Y0050006D01*
X0171256Y0057506D01*
X0180006Y0057506D01*
X0185006Y0062506D01*
X0179991Y0067491D02*
X0171866Y0067491D01*
X0171256Y0066881D01*
X0157250Y0066866D01*
X0157250Y0064898D02*
X0172614Y0064898D01*
X0175006Y0062506D01*
X0179991Y0067491D02*
X0185006Y0072506D01*
X0175006Y0072506D02*
X0173756Y0072506D01*
X0170085Y0068835D01*
X0157250Y0068835D01*
X0157250Y0070803D02*
X0167678Y0070803D01*
X0169381Y0072506D01*
X0165459Y0076709D02*
X0157250Y0076709D01*
X0153131Y0083756D02*
X0149381Y0080006D01*
X0153131Y0083756D02*
X0153131Y0087506D01*
X0154145Y0088520D01*
X0157250Y0088520D01*
X0157506Y0088776D01*
X0157506Y0091256D01*
X0149770Y0096000D02*
X0149770Y0097895D01*
X0150631Y0098756D01*
X0153131Y0098756D01*
X0149256Y0103206D02*
X0147801Y0101751D01*
X0147801Y0096000D01*
X0147801Y0090301D01*
X0146256Y0088756D01*
X0127506Y0088756D01*
X0125631Y0090631D01*
X0124179Y0092929D02*
X0122506Y0091256D01*
X0124179Y0092929D02*
X0124179Y0096000D01*
X0124179Y0101236D01*
X0122506Y0102909D01*
X0121256Y0099381D02*
X0118756Y0099381D01*
X0117506Y0100631D01*
X0116881Y0105006D02*
X0116881Y0105631D01*
X0101256Y0121256D01*
X0101256Y0111256D02*
X0116512Y0096000D01*
X0120242Y0096000D01*
X0122211Y0096000D02*
X0122211Y0098426D01*
X0121256Y0099381D01*
X0126148Y0098023D02*
X0126148Y0096000D01*
X0128116Y0096000D02*
X0128116Y0093146D01*
X0130006Y0091256D01*
X0133756Y0091256D02*
X0134022Y0091522D01*
X0134022Y0096000D01*
X0135990Y0096000D02*
X0135990Y0098397D01*
X0133131Y0101256D01*
X0133131Y0114784D01*
X0131256Y0116881D01*
X0131256Y0117909D01*
X0135631Y0114784D02*
X0138756Y0117909D01*
X0135631Y0114784D02*
X0135631Y0101881D01*
X0137959Y0099553D01*
X0137959Y0096000D01*
X0139927Y0096000D02*
X0139927Y0099706D01*
X0143131Y0102909D01*
X0141552Y0109306D02*
X0143131Y0109602D01*
X0141552Y0109306D02*
X0149256Y0109306D01*
X0149256Y0114118D01*
X0150144Y0115006D01*
X0138756Y0124602D02*
X0138756Y0130006D01*
X0135006Y0130006D02*
X0135006Y0128756D01*
X0131256Y0125006D01*
X0131256Y0124602D01*
X0125006Y0126015D02*
X0125006Y0128756D01*
X0125006Y0126015D02*
X0122506Y0123515D01*
X0125006Y0134819D02*
X0125193Y0135006D01*
X0101256Y0101256D02*
X0107506Y0095006D01*
X0107506Y0089381D01*
X0108367Y0088520D01*
X0112762Y0088520D01*
X0112762Y0086551D02*
X0105961Y0086551D01*
X0101256Y0091256D01*
X0104583Y0084583D02*
X0101256Y0081256D01*
X0104583Y0084583D02*
X0112762Y0084583D01*
X0112762Y0082614D02*
X0116773Y0082614D01*
X0118131Y0080631D01*
X0117506Y0073131D02*
X0117147Y0072772D01*
X0112762Y0072772D01*
X0112762Y0060961D02*
X0117836Y0060961D01*
X0118131Y0061256D01*
X0124179Y0057304D02*
X0124381Y0057506D01*
X0124179Y0057304D02*
X0124179Y0051512D01*
X0128116Y0051512D02*
X0128116Y0057491D01*
X0128131Y0057506D01*
X0130085Y0051512D02*
X0130085Y0048835D01*
X0127506Y0046256D01*
X0127506Y0045631D01*
X0130631Y0045631D02*
X0132053Y0047959D01*
X0132053Y0051512D01*
X0134022Y0051512D02*
X0134022Y0046615D01*
X0133756Y0045631D01*
X0135990Y0047772D02*
X0136881Y0045631D01*
X0135990Y0047772D02*
X0135990Y0051512D01*
X0138756Y0042506D02*
X0125631Y0042506D01*
X0120631Y0047506D01*
X0113756Y0047506D01*
X0101256Y0060006D01*
X0101256Y0061256D01*
X0101256Y0051256D02*
X0106881Y0051256D01*
X0113131Y0045006D01*
X0120006Y0045006D01*
X0125006Y0040006D01*
X0137506Y0040006D01*
X0145006Y0032506D01*
X0143756Y0037506D02*
X0150006Y0037506D01*
X0155006Y0032506D01*
X0165006Y0032506D02*
X0155006Y0022506D01*
X0160631Y0023756D02*
X0160631Y0018756D01*
X0158756Y0016881D01*
X0150631Y0016881D01*
X0145006Y0022506D01*
X0143131Y0014381D02*
X0135006Y0022506D01*
X0135006Y0032506D02*
X0130006Y0037506D01*
X0123756Y0037506D01*
X0118756Y0042506D01*
X0102506Y0042506D01*
X0101256Y0041256D01*
X0110006Y0040006D02*
X0101256Y0031256D01*
X0110006Y0040006D02*
X0117506Y0040006D01*
X0125006Y0032506D01*
X0125006Y0022506D02*
X0135631Y0011881D01*
X0161256Y0011881D01*
X0166881Y0017506D01*
X0180006Y0017506D01*
X0185006Y0022506D01*
X0180006Y0027506D02*
X0164381Y0027506D01*
X0160631Y0023756D01*
X0168131Y0022506D02*
X0160006Y0014381D01*
X0143131Y0014381D01*
X0165006Y0032506D02*
X0175006Y0032506D01*
X0180006Y0027506D02*
X0185006Y0032506D01*
X0175006Y0022506D02*
X0168131Y0022506D01*
X0143756Y0037506D02*
X0138756Y0042506D01*
X0154145Y0058992D02*
X0157250Y0058992D01*
X0154145Y0058992D02*
X0149381Y0063756D01*
X0165459Y0076709D02*
X0169381Y0080631D01*
X0145006Y0091256D02*
X0143864Y0093239D01*
X0143864Y0096000D01*
X0141896Y0096000D02*
X0141896Y0093146D01*
X0140631Y0091881D01*
X0137506Y0091881D01*
X0132053Y0096000D02*
X0132053Y0097334D01*
X0129381Y0100006D01*
X0128131Y0100006D01*
X0126148Y0098023D01*
X0129381Y0100006D02*
X0130085Y0099302D01*
X0130085Y0096000D01*
X0170006Y0052506D02*
X0175006Y0052506D01*
X0145006Y0176256D02*
X0138520Y0176256D01*
X0138520Y0181256D02*
X0145006Y0181256D01*
X0147506Y0186256D02*
X0141256Y0186256D01*
X0138520Y0186256D01*
D37*
X0132506Y0149407D02*
X0132506Y0148131D01*
X0136743Y0143894D01*
X0140006Y0143894D01*
X0142644Y0143894D01*
X0145006Y0146256D01*
X0148244Y0146256D02*
X0157299Y0146256D01*
X0170006Y0140306D02*
X0170006Y0136256D01*
X0173756Y0132506D01*
X0192506Y0132506D01*
X0192506Y0142506D02*
X0188756Y0146256D01*
X0190006Y0158392D01*
X0156881Y0095631D02*
X0148756Y0087506D01*
X0149381Y0080006D02*
X0130006Y0080006D01*
X0121256Y0079381D02*
X0121256Y0071881D01*
X0118131Y0068756D01*
X0118131Y0061256D01*
X0128131Y0057506D02*
X0134381Y0063756D01*
X0149381Y0063756D01*
X0149381Y0080006D01*
X0145631Y0070631D02*
X0138131Y0070631D01*
X0121256Y0079381D02*
X0118131Y0080631D01*
X0118131Y0086881D01*
X0122506Y0091256D01*
D38*
X0144381Y0115631D03*
X0144381Y0118756D03*
X0138756Y0130006D03*
X0135006Y0130006D03*
X0125006Y0128756D03*
X0121256Y0128756D03*
X0114381Y0140444D03*
X0114391Y0155016D03*
X0133756Y0166256D03*
X0137506Y0166256D03*
X0141256Y0166256D03*
X0145006Y0176256D03*
X0145006Y0181256D03*
X0158756Y0165006D03*
X0158756Y0161256D03*
X0158756Y0157506D03*
X0143756Y0154381D03*
X0141256Y0152506D03*
X0143756Y0150006D03*
X0175006Y0153131D03*
X0178756Y0153131D03*
X0182506Y0153131D03*
X0183131Y0186881D03*
X0178756Y0186881D03*
X0174381Y0186881D03*
X0161256Y0120006D03*
X0161256Y0116256D03*
X0157506Y0120006D03*
D39*
X0153131Y0098756D03*
X0157506Y0091256D03*
X0169381Y0080631D03*
X0169381Y0072506D03*
X0161256Y0060631D03*
X0152506Y0064381D03*
X0152506Y0068131D03*
X0145631Y0070631D03*
X0147506Y0057506D03*
X0137506Y0057506D03*
X0128131Y0057506D03*
X0124381Y0057506D03*
X0118131Y0061256D03*
X0117506Y0073131D03*
X0118131Y0080631D03*
X0122506Y0091256D03*
X0125631Y0090631D03*
X0130006Y0091256D03*
X0133756Y0091256D03*
X0137506Y0091881D03*
X0145006Y0091256D03*
X0130006Y0080006D03*
X0129381Y0100006D03*
X0126881Y0100006D03*
X0117506Y0100631D03*
X0116881Y0105006D03*
X0170006Y0047506D03*
X0136881Y0045631D03*
X0133756Y0045631D03*
X0130631Y0045631D03*
X0127506Y0045631D03*
D40*
X0118131Y0056881D02*
X0118131Y0061256D01*
X0118131Y0056881D02*
X0113756Y0052506D01*
X0121881Y0090631D02*
X0122506Y0091256D01*
X0121256Y0128756D02*
X0125006Y0128756D01*
X0125006Y0134819D01*
X0124996Y0155124D02*
X0123943Y0156571D01*
X0123943Y0163756D01*
X0117516Y0163559D02*
X0117516Y0155124D01*
X0117516Y0163559D02*
X0116069Y0163756D01*
X0117319Y0168569D01*
X0123756Y0175006D01*
X0123756Y0185006D02*
X0125006Y0186256D01*
X0141256Y0186256D01*
D41*
X0144381Y0115631D02*
X0145006Y0115006D01*
X0150144Y0115006D01*
X0152460Y0095052D02*
X0154621Y0092890D01*
X0154215Y0091910D01*
X0154215Y0091220D01*
X0153608Y0091220D01*
X0152615Y0090809D01*
X0151601Y0089795D01*
X0150842Y0089035D01*
X0150431Y0088043D01*
X0150431Y0084874D01*
X0148863Y0083306D01*
X0129349Y0083306D01*
X0128137Y0082803D01*
X0127208Y0081875D01*
X0126706Y0080662D01*
X0126706Y0079349D01*
X0127208Y0078137D01*
X0128137Y0077208D01*
X0129349Y0076706D01*
X0146081Y0076706D01*
X0146081Y0067056D01*
X0133724Y0067056D01*
X0132512Y0066553D01*
X0126249Y0060291D01*
X0126245Y0060295D01*
X0125035Y0060796D01*
X0123726Y0060796D01*
X0122517Y0060295D01*
X0121591Y0059370D01*
X0121090Y0058160D01*
X0121090Y0056851D01*
X0121479Y0055913D01*
X0121479Y0055383D01*
X0118782Y0055383D01*
X0118580Y0055182D01*
X0116432Y0057330D01*
X0116633Y0057532D01*
X0116633Y0060453D01*
X0116125Y0060961D01*
X0116633Y0061469D01*
X0116633Y0064390D01*
X0116633Y0066358D01*
X0116633Y0069931D01*
X0116851Y0069840D01*
X0118160Y0069840D01*
X0119370Y0070341D01*
X0120295Y0071267D01*
X0120796Y0072476D01*
X0120796Y0073785D01*
X0120295Y0074995D01*
X0119370Y0075920D01*
X0118160Y0076421D01*
X0116851Y0076421D01*
X0116633Y0076331D01*
X0116633Y0082106D01*
X0116125Y0082614D01*
X0116633Y0083122D01*
X0116633Y0089980D01*
X0116119Y0090494D01*
X0117731Y0092106D01*
X0122680Y0092106D01*
X0122340Y0091285D01*
X0122340Y0089976D01*
X0122841Y0088767D01*
X0123767Y0087841D01*
X0124976Y0087340D01*
X0125103Y0087340D01*
X0125217Y0087226D01*
X0125976Y0086467D01*
X0126969Y0086056D01*
X0146793Y0086056D01*
X0147785Y0086467D01*
X0149331Y0088012D01*
X0150090Y0088772D01*
X0150501Y0089764D01*
X0150501Y0092128D01*
X0151230Y0092128D01*
X0152460Y0093358D01*
X0152460Y0095052D01*
X0152460Y0094117D02*
X0153394Y0094117D01*
X0154393Y0093119D02*
X0152221Y0093119D01*
X0150501Y0092120D02*
X0154302Y0092120D01*
X0153372Y0091122D02*
X0150501Y0091122D01*
X0150501Y0090123D02*
X0151930Y0090123D01*
X0150932Y0089125D02*
X0150236Y0089125D01*
X0150465Y0088126D02*
X0149445Y0088126D01*
X0150431Y0087128D02*
X0148446Y0087128D01*
X0146970Y0086129D02*
X0150431Y0086129D01*
X0150431Y0085131D02*
X0116633Y0085131D01*
X0116633Y0086129D02*
X0126791Y0086129D01*
X0125316Y0087128D02*
X0116633Y0087128D01*
X0116633Y0088126D02*
X0123482Y0088126D01*
X0122693Y0089125D02*
X0116633Y0089125D01*
X0116490Y0090123D02*
X0122340Y0090123D01*
X0122340Y0091122D02*
X0116747Y0091122D01*
X0116633Y0084132D02*
X0149689Y0084132D01*
X0146081Y0076144D02*
X0118830Y0076144D01*
X0120145Y0075146D02*
X0146081Y0075146D01*
X0146081Y0074147D02*
X0120647Y0074147D01*
X0120796Y0073149D02*
X0146081Y0073149D01*
X0146081Y0072150D02*
X0120661Y0072150D01*
X0120180Y0071152D02*
X0146081Y0071152D01*
X0146081Y0070153D02*
X0118916Y0070153D01*
X0116633Y0069155D02*
X0146081Y0069155D01*
X0146081Y0068156D02*
X0116633Y0068156D01*
X0116633Y0067158D02*
X0146081Y0067158D01*
X0146029Y0060456D02*
X0135748Y0060456D01*
X0130816Y0055524D01*
X0130816Y0055383D01*
X0137451Y0055383D01*
X0137959Y0054875D01*
X0138467Y0055383D01*
X0144975Y0055383D01*
X0144716Y0055642D01*
X0144215Y0056851D01*
X0144215Y0058160D01*
X0144716Y0059370D01*
X0145642Y0060295D01*
X0146029Y0060456D01*
X0145515Y0060168D02*
X0135460Y0060168D01*
X0134461Y0059170D02*
X0144633Y0059170D01*
X0144220Y0058171D02*
X0133463Y0058171D01*
X0132464Y0057173D02*
X0144215Y0057173D01*
X0144496Y0056174D02*
X0131466Y0056174D01*
X0127125Y0061167D02*
X0116331Y0061167D01*
X0116633Y0062165D02*
X0128123Y0062165D01*
X0129122Y0063164D02*
X0116633Y0063164D01*
X0116633Y0064162D02*
X0130120Y0064162D01*
X0131119Y0065161D02*
X0116633Y0065161D01*
X0116633Y0066159D02*
X0132117Y0066159D01*
X0122390Y0060168D02*
X0116633Y0060168D01*
X0116633Y0059170D02*
X0121508Y0059170D01*
X0121095Y0058171D02*
X0116633Y0058171D01*
X0116589Y0057173D02*
X0121090Y0057173D01*
X0121371Y0056174D02*
X0117588Y0056174D01*
X0137658Y0055176D02*
X0138259Y0055176D01*
X0128295Y0077143D02*
X0116633Y0077143D01*
X0116633Y0078141D02*
X0127206Y0078141D01*
X0126793Y0079140D02*
X0116633Y0079140D01*
X0116633Y0080138D02*
X0126706Y0080138D01*
X0126902Y0081137D02*
X0116633Y0081137D01*
X0116604Y0082135D02*
X0127468Y0082135D01*
X0128934Y0083134D02*
X0116633Y0083134D01*
D42*
X0011256Y0011256D03*
X0011256Y0021256D03*
X0011256Y0031256D03*
X0021256Y0031256D03*
X0031256Y0031256D03*
X0031256Y0021256D03*
X0031256Y0011256D03*
X0021256Y0011256D03*
X0021256Y0021256D03*
X0021256Y0041256D03*
X0021256Y0051256D03*
X0031256Y0051256D03*
X0031256Y0041256D03*
X0041256Y0041256D03*
X0041256Y0051256D03*
X0051256Y0051256D03*
X0051256Y0041256D03*
X0061256Y0041256D03*
X0061256Y0051256D03*
X0071256Y0051256D03*
X0071256Y0041256D03*
X0081256Y0041256D03*
X0081256Y0051256D03*
X0091256Y0051256D03*
X0091256Y0041256D03*
X0101256Y0041256D03*
X0101256Y0051256D03*
X0101256Y0061256D03*
X0101256Y0071256D03*
X0101256Y0081256D03*
X0101256Y0091256D03*
X0101256Y0101256D03*
X0101256Y0111256D03*
X0101256Y0121256D03*
X0101256Y0131256D03*
X0101256Y0141256D03*
X0101256Y0151256D03*
X0101256Y0161256D03*
X0101256Y0171256D03*
X0101256Y0181256D03*
X0101256Y0191256D03*
X0091256Y0191256D03*
X0091256Y0181256D03*
X0081256Y0181256D03*
X0081256Y0191256D03*
X0071256Y0191256D03*
X0071256Y0181256D03*
X0061256Y0181256D03*
X0061256Y0191256D03*
X0051256Y0191256D03*
X0051256Y0181256D03*
X0041256Y0181256D03*
X0041256Y0191256D03*
X0031256Y0191256D03*
X0031256Y0181256D03*
X0021256Y0181256D03*
X0021256Y0191256D03*
X0011256Y0191256D03*
X0011256Y0181256D03*
X0011256Y0171256D03*
X0021256Y0171256D03*
X0031256Y0171256D03*
X0031256Y0161256D03*
X0021256Y0161256D03*
X0011256Y0161256D03*
X0011256Y0151256D03*
X0021256Y0151256D03*
X0031256Y0151256D03*
X0031256Y0141256D03*
X0021256Y0141256D03*
X0011256Y0141256D03*
X0011256Y0131256D03*
X0021256Y0131256D03*
X0031256Y0131256D03*
X0031256Y0121256D03*
X0021256Y0121256D03*
X0011256Y0121256D03*
X0011256Y0111256D03*
X0021256Y0111256D03*
X0031256Y0111256D03*
X0031256Y0101256D03*
X0021256Y0101256D03*
X0011256Y0101256D03*
X0011256Y0091256D03*
X0021256Y0091256D03*
X0031256Y0091256D03*
X0031256Y0081256D03*
X0021256Y0081256D03*
X0011256Y0081256D03*
X0011256Y0071256D03*
X0021256Y0071256D03*
X0031256Y0071256D03*
X0031256Y0061256D03*
X0021256Y0061256D03*
X0011256Y0061256D03*
X0011256Y0051256D03*
X0011256Y0041256D03*
X0041256Y0031256D03*
X0051256Y0031256D03*
X0051256Y0021256D03*
X0051256Y0011256D03*
X0041256Y0011256D03*
X0041256Y0021256D03*
X0061256Y0021256D03*
X0061256Y0031256D03*
X0071256Y0031256D03*
X0071256Y0021256D03*
X0071256Y0011256D03*
X0061256Y0011256D03*
X0081256Y0011256D03*
X0081256Y0021256D03*
X0081256Y0031256D03*
X0091256Y0031256D03*
X0091256Y0021256D03*
X0091256Y0011256D03*
X0101256Y0011256D03*
X0101256Y0021256D03*
X0101256Y0031256D03*
X0091256Y0061256D03*
X0091256Y0071256D03*
X0081256Y0071256D03*
X0081256Y0061256D03*
X0071256Y0061256D03*
X0071256Y0071256D03*
X0061256Y0071256D03*
X0061256Y0061256D03*
X0051256Y0061256D03*
X0051256Y0071256D03*
X0041256Y0071256D03*
X0041256Y0061256D03*
X0041256Y0081256D03*
X0041256Y0091256D03*
X0051256Y0091256D03*
X0051256Y0081256D03*
X0061256Y0081256D03*
X0061256Y0091256D03*
X0071256Y0091256D03*
X0071256Y0081256D03*
X0081256Y0081256D03*
X0081256Y0091256D03*
X0091256Y0091256D03*
X0091256Y0081256D03*
X0091256Y0101256D03*
X0091256Y0111256D03*
X0081256Y0111256D03*
X0081256Y0101256D03*
X0071256Y0101256D03*
X0071256Y0111256D03*
X0061256Y0111256D03*
X0061256Y0101256D03*
X0051256Y0101256D03*
X0051256Y0111256D03*
X0041256Y0111256D03*
X0041256Y0101256D03*
X0041256Y0121256D03*
X0041256Y0131256D03*
X0051256Y0131256D03*
X0051256Y0121256D03*
X0061256Y0121256D03*
X0061256Y0131256D03*
X0071256Y0131256D03*
X0071256Y0121256D03*
X0081256Y0121256D03*
X0081256Y0131256D03*
X0091256Y0131256D03*
X0091256Y0121256D03*
X0091256Y0141256D03*
X0091256Y0151256D03*
X0081256Y0151256D03*
X0081256Y0141256D03*
X0071256Y0141256D03*
X0071256Y0151256D03*
X0061256Y0151256D03*
X0061256Y0141256D03*
X0051256Y0141256D03*
X0051256Y0151256D03*
X0041256Y0151256D03*
X0041256Y0141256D03*
X0041256Y0161256D03*
X0041256Y0171256D03*
X0051256Y0171256D03*
X0051256Y0161256D03*
X0061256Y0161256D03*
X0061256Y0171256D03*
X0071256Y0171256D03*
X0071256Y0161256D03*
X0081256Y0161256D03*
X0081256Y0171256D03*
X0091256Y0171256D03*
X0091256Y0161256D03*
D43*
X0101256Y0171256D02*
X0101256Y0181256D01*
X0101256Y0175006D02*
X0101256Y0171256D01*
X0101256Y0175006D02*
X0123756Y0175006D01*
X0101256Y0191256D02*
X0011256Y0191256D01*
X0011256Y0011256D01*
X0091256Y0011256D02*
X0091256Y0021256D01*
X0101256Y0021256D01*
X0157299Y0146256D02*
X0163131Y0146256D01*
X0168756Y0151881D01*
D44*
X0113756Y0052506D03*
D45*
X0114381Y0032506D02*
X0115006Y0032506D01*
X0114381Y0032506D02*
X0103131Y0021256D01*
X0101256Y0021256D01*
M02*
