G75*
%MOIN*%
%OFA0B0*%
%FSLAX25Y25*%
%IPPOS*%
%LPD*%
%AMOC8*
5,1,8,0,0,1.08239X$1,22.5*
%
%ADD10R,0.05425X0.06606*%
%ADD11R,0.06606X0.05425*%
%ADD12R,0.04567X0.04173*%
%ADD13R,0.07476X0.06677*%
%ADD14R,0.08861X0.02562*%
%ADD15R,0.04531X0.02956*%
%ADD16R,0.11496X0.08346*%
%ADD17R,0.05118X0.03543*%
%ADD18R,0.06893X0.01972*%
%ADD19R,0.08616X0.06156*%
%ADD20R,0.07929X0.09799*%
%ADD21R,0.08268X0.04528*%
%ADD22R,0.02600X0.08900*%
%ADD23R,0.03937X0.02362*%
%ADD24R,0.02365X0.04924*%
%ADD25R,0.01381X0.03743*%
%ADD26R,0.03743X0.01381*%
%ADD27C,0.01120*%
%ADD28R,0.02800X0.03500*%
%ADD29R,0.03842X0.03113*%
%ADD30R,0.05830X0.05830*%
%ADD31R,0.03113X0.03842*%
%ADD32R,0.05008X0.05008*%
%ADD33C,0.05512*%
%ADD34OC8,0.05512*%
%ADD35C,0.02975*%
%ADD36OC8,0.07950*%
%ADD37C,0.02581*%
%ADD38C,0.03369*%
D10*
X0117319Y0135006D03*
X0125193Y0135006D03*
X0141069Y0160006D03*
X0148943Y0160006D03*
X0123943Y0163756D03*
X0116069Y0163756D03*
D11*
X0146256Y0132693D03*
X0146256Y0124819D03*
D12*
X0138756Y0124602D03*
X0138756Y0117909D03*
X0143131Y0109602D03*
X0143131Y0102909D03*
X0131256Y0117909D03*
X0131256Y0124602D03*
X0122506Y0109602D03*
X0122506Y0102909D03*
X0192506Y0116659D03*
X0192506Y0123352D03*
D13*
X0132506Y0149407D03*
X0132506Y0160604D03*
D14*
X0138520Y0171256D03*
X0138520Y0176256D03*
X0138520Y0181256D03*
X0138520Y0186256D03*
X0158992Y0186256D03*
X0158992Y0181256D03*
X0158992Y0176256D03*
X0158992Y0171256D03*
D15*
X0146866Y0152161D03*
X0146866Y0140350D03*
D16*
X0157299Y0146256D03*
D17*
X0146866Y0146256D03*
D18*
X0178982Y0164888D03*
X0178982Y0167447D03*
X0178982Y0170006D03*
X0178982Y0172565D03*
X0178982Y0175124D03*
D19*
X0180951Y0179848D03*
X0180951Y0160163D03*
D20*
X0190006Y0158392D03*
X0190006Y0181620D03*
D21*
X0190006Y0173057D03*
X0190006Y0166955D03*
D22*
X0185006Y0140306D03*
X0180006Y0140306D03*
X0175006Y0140306D03*
X0170006Y0140306D03*
X0170006Y0119706D03*
X0175006Y0119706D03*
X0180006Y0119706D03*
X0185006Y0119706D03*
D23*
X0163156Y0125281D03*
X0163156Y0128431D03*
X0163156Y0131581D03*
X0163156Y0134730D03*
X0156856Y0134730D03*
X0156856Y0131581D03*
X0156856Y0128431D03*
X0156856Y0125281D03*
D24*
X0124996Y0144887D03*
X0121256Y0144887D03*
X0117516Y0144887D03*
X0117516Y0155124D03*
X0124996Y0155124D03*
D25*
X0124179Y0096000D03*
X0122211Y0096000D03*
X0120242Y0096000D03*
X0126148Y0096000D03*
X0128116Y0096000D03*
X0130085Y0096000D03*
X0132053Y0096000D03*
X0134022Y0096000D03*
X0135990Y0096000D03*
X0137959Y0096000D03*
X0139927Y0096000D03*
X0141896Y0096000D03*
X0143864Y0096000D03*
X0145833Y0096000D03*
X0147801Y0096000D03*
X0149770Y0096000D03*
X0149770Y0051512D03*
X0147801Y0051512D03*
X0145833Y0051512D03*
X0143864Y0051512D03*
X0141896Y0051512D03*
X0139927Y0051512D03*
X0137959Y0051512D03*
X0135990Y0051512D03*
X0134022Y0051512D03*
X0132053Y0051512D03*
X0130085Y0051512D03*
X0128116Y0051512D03*
X0126148Y0051512D03*
X0124179Y0051512D03*
X0122211Y0051512D03*
X0120242Y0051512D03*
D26*
X0112762Y0058992D03*
X0112762Y0060961D03*
X0112762Y0062929D03*
X0112762Y0064898D03*
X0112762Y0066866D03*
X0112762Y0068835D03*
X0112762Y0070803D03*
X0112762Y0072772D03*
X0112762Y0074740D03*
X0112762Y0076709D03*
X0112762Y0078677D03*
X0112762Y0080646D03*
X0112762Y0082614D03*
X0112762Y0084583D03*
X0112762Y0086551D03*
X0112762Y0088520D03*
X0157250Y0088520D03*
X0157250Y0086551D03*
X0157250Y0084583D03*
X0157250Y0082614D03*
X0157250Y0080646D03*
X0157250Y0078677D03*
X0157250Y0076709D03*
X0157250Y0074740D03*
X0157250Y0072772D03*
X0157250Y0070803D03*
X0157250Y0068835D03*
X0157250Y0066866D03*
X0157250Y0064898D03*
X0157250Y0062929D03*
X0157250Y0060961D03*
X0157250Y0058992D03*
D27*
X0156596Y0104396D02*
X0154916Y0104396D01*
X0156596Y0104396D02*
X0156596Y0102016D01*
X0154916Y0102016D01*
X0154916Y0104396D01*
X0154916Y0103135D02*
X0156596Y0103135D01*
X0156596Y0104254D02*
X0154916Y0104254D01*
X0150096Y0104396D02*
X0148416Y0104396D01*
X0150096Y0104396D02*
X0150096Y0102016D01*
X0148416Y0102016D01*
X0148416Y0104396D01*
X0148416Y0103135D02*
X0150096Y0103135D01*
X0150096Y0104254D02*
X0148416Y0104254D01*
X0148416Y0110496D02*
X0150096Y0110496D01*
X0150096Y0108116D01*
X0148416Y0108116D01*
X0148416Y0110496D01*
X0148416Y0109235D02*
X0150096Y0109235D01*
X0150096Y0110354D02*
X0148416Y0110354D01*
D28*
X0155756Y0109306D03*
D29*
X0154868Y0115006D03*
X0150144Y0115006D03*
D30*
X0175006Y0092506D03*
X0185006Y0092506D03*
X0185006Y0082506D03*
X0185006Y0072506D03*
X0175006Y0072506D03*
X0175006Y0082506D03*
X0175006Y0062506D03*
X0185006Y0062506D03*
X0185006Y0052506D03*
X0185006Y0042506D03*
X0175006Y0042506D03*
X0175006Y0052506D03*
X0175006Y0032506D03*
X0185006Y0032506D03*
X0185006Y0022506D03*
X0175006Y0022506D03*
X0155006Y0022506D03*
X0155006Y0032506D03*
X0145006Y0032506D03*
X0145006Y0022506D03*
X0135006Y0022506D03*
X0135006Y0032506D03*
X0125006Y0032506D03*
X0125006Y0022506D03*
X0115006Y0022506D03*
X0115006Y0032506D03*
D31*
X0140006Y0143894D03*
X0140006Y0148618D03*
D32*
X0122506Y0123515D03*
X0122506Y0115247D03*
D33*
X0121156Y0175006D02*
X0126356Y0175006D01*
X0126356Y0185006D02*
X0121156Y0185006D01*
X0189906Y0142506D02*
X0195106Y0142506D01*
X0195106Y0132506D02*
X0189906Y0132506D01*
D34*
X0168756Y0151881D03*
D35*
X0175006Y0153131D03*
X0178756Y0153131D03*
X0182506Y0153131D03*
X0158756Y0157506D03*
X0158756Y0161256D03*
X0158756Y0165006D03*
X0174381Y0186881D03*
X0178756Y0186881D03*
X0183131Y0186881D03*
X0138756Y0130006D03*
X0135006Y0130006D03*
X0144381Y0118756D03*
X0144381Y0115631D03*
X0157506Y0120006D03*
X0161256Y0120006D03*
X0161256Y0116256D03*
D36*
X0011256Y0011256D03*
X0011256Y0021256D03*
X0011256Y0031256D03*
X0021256Y0031256D03*
X0031256Y0031256D03*
X0031256Y0021256D03*
X0031256Y0011256D03*
X0021256Y0011256D03*
X0021256Y0021256D03*
X0021256Y0041256D03*
X0021256Y0051256D03*
X0031256Y0051256D03*
X0031256Y0041256D03*
X0041256Y0041256D03*
X0041256Y0051256D03*
X0051256Y0051256D03*
X0051256Y0041256D03*
X0061256Y0041256D03*
X0061256Y0051256D03*
X0071256Y0051256D03*
X0071256Y0041256D03*
X0081256Y0041256D03*
X0081256Y0051256D03*
X0091256Y0051256D03*
X0091256Y0041256D03*
X0101256Y0041256D03*
X0101256Y0051256D03*
X0101256Y0061256D03*
X0101256Y0071256D03*
X0101256Y0081256D03*
X0101256Y0091256D03*
X0101256Y0101256D03*
X0101256Y0111256D03*
X0101256Y0121256D03*
X0101256Y0131256D03*
X0101256Y0141256D03*
X0101256Y0151256D03*
X0101256Y0161256D03*
X0101256Y0171256D03*
X0101256Y0181256D03*
X0101256Y0191256D03*
X0091256Y0191256D03*
X0091256Y0181256D03*
X0081256Y0181256D03*
X0081256Y0191256D03*
X0071256Y0191256D03*
X0071256Y0181256D03*
X0061256Y0181256D03*
X0061256Y0191256D03*
X0051256Y0191256D03*
X0051256Y0181256D03*
X0041256Y0181256D03*
X0041256Y0191256D03*
X0031256Y0191256D03*
X0031256Y0181256D03*
X0021256Y0181256D03*
X0021256Y0191256D03*
X0011256Y0191256D03*
X0011256Y0181256D03*
X0011256Y0171256D03*
X0021256Y0171256D03*
X0031256Y0171256D03*
X0031256Y0161256D03*
X0021256Y0161256D03*
X0011256Y0161256D03*
X0011256Y0151256D03*
X0021256Y0151256D03*
X0031256Y0151256D03*
X0031256Y0141256D03*
X0021256Y0141256D03*
X0011256Y0141256D03*
X0011256Y0131256D03*
X0021256Y0131256D03*
X0031256Y0131256D03*
X0031256Y0121256D03*
X0021256Y0121256D03*
X0011256Y0121256D03*
X0011256Y0111256D03*
X0021256Y0111256D03*
X0031256Y0111256D03*
X0031256Y0101256D03*
X0021256Y0101256D03*
X0011256Y0101256D03*
X0011256Y0091256D03*
X0021256Y0091256D03*
X0031256Y0091256D03*
X0031256Y0081256D03*
X0021256Y0081256D03*
X0011256Y0081256D03*
X0011256Y0071256D03*
X0021256Y0071256D03*
X0031256Y0071256D03*
X0031256Y0061256D03*
X0021256Y0061256D03*
X0011256Y0061256D03*
X0011256Y0051256D03*
X0011256Y0041256D03*
X0041256Y0031256D03*
X0051256Y0031256D03*
X0051256Y0021256D03*
X0051256Y0011256D03*
X0041256Y0011256D03*
X0041256Y0021256D03*
X0061256Y0021256D03*
X0061256Y0031256D03*
X0071256Y0031256D03*
X0071256Y0021256D03*
X0071256Y0011256D03*
X0061256Y0011256D03*
X0081256Y0011256D03*
X0081256Y0021256D03*
X0081256Y0031256D03*
X0091256Y0031256D03*
X0091256Y0021256D03*
X0091256Y0011256D03*
X0101256Y0011256D03*
X0101256Y0021256D03*
X0101256Y0031256D03*
X0091256Y0061256D03*
X0091256Y0071256D03*
X0081256Y0071256D03*
X0081256Y0061256D03*
X0071256Y0061256D03*
X0071256Y0071256D03*
X0061256Y0071256D03*
X0061256Y0061256D03*
X0051256Y0061256D03*
X0051256Y0071256D03*
X0041256Y0071256D03*
X0041256Y0061256D03*
X0041256Y0081256D03*
X0041256Y0091256D03*
X0051256Y0091256D03*
X0051256Y0081256D03*
X0061256Y0081256D03*
X0061256Y0091256D03*
X0071256Y0091256D03*
X0071256Y0081256D03*
X0081256Y0081256D03*
X0081256Y0091256D03*
X0091256Y0091256D03*
X0091256Y0081256D03*
X0091256Y0101256D03*
X0091256Y0111256D03*
X0081256Y0111256D03*
X0081256Y0101256D03*
X0071256Y0101256D03*
X0071256Y0111256D03*
X0061256Y0111256D03*
X0061256Y0101256D03*
X0051256Y0101256D03*
X0051256Y0111256D03*
X0041256Y0111256D03*
X0041256Y0101256D03*
X0041256Y0121256D03*
X0041256Y0131256D03*
X0051256Y0131256D03*
X0051256Y0121256D03*
X0061256Y0121256D03*
X0061256Y0131256D03*
X0071256Y0131256D03*
X0071256Y0121256D03*
X0081256Y0121256D03*
X0081256Y0131256D03*
X0091256Y0131256D03*
X0091256Y0121256D03*
X0091256Y0141256D03*
X0091256Y0151256D03*
X0081256Y0151256D03*
X0081256Y0141256D03*
X0071256Y0141256D03*
X0071256Y0151256D03*
X0061256Y0151256D03*
X0061256Y0141256D03*
X0051256Y0141256D03*
X0051256Y0151256D03*
X0041256Y0151256D03*
X0041256Y0141256D03*
X0041256Y0161256D03*
X0041256Y0171256D03*
X0051256Y0171256D03*
X0051256Y0161256D03*
X0061256Y0161256D03*
X0061256Y0171256D03*
X0071256Y0171256D03*
X0071256Y0161256D03*
X0081256Y0161256D03*
X0081256Y0171256D03*
X0091256Y0171256D03*
X0091256Y0161256D03*
D37*
X0145631Y0070631D03*
D38*
X0113756Y0052506D03*
M02*
