G75*
%MOIN*%
%OFA0B0*%
%FSLAX25Y25*%
%IPPOS*%
%LPD*%
%AMOC8*
5,1,8,0,0,1.08239X$1,22.5*
%
%ADD10R,0.05500X0.05500*%
%ADD11R,0.03642X0.02913*%
%ADD12R,0.02913X0.03642*%
%ADD13R,0.02756X0.03346*%
%ADD14C,0.05200*%
%ADD15OC8,0.05200*%
%ADD16C,0.02775*%
%ADD17C,0.02381*%
%ADD18C,0.01200*%
%ADD19OC8,0.07500*%
%ADD20C,0.07000*%
%ADD21C,0.02400*%
%ADD22C,0.03200*%
%ADD23C,0.03169*%
%ADD24C,0.06000*%
%ADD25C,0.01600*%
D10*
X0115006Y0022506D03*
X0115006Y0032506D03*
X0125006Y0032506D03*
X0125006Y0022506D03*
X0135006Y0022506D03*
X0135006Y0032506D03*
X0145006Y0032506D03*
X0145006Y0022506D03*
X0155006Y0022506D03*
X0155006Y0032506D03*
X0175006Y0032506D03*
X0185006Y0032506D03*
X0185006Y0022506D03*
X0175006Y0022506D03*
X0175006Y0042506D03*
X0175006Y0052506D03*
X0175006Y0062506D03*
X0185006Y0062506D03*
X0185006Y0052506D03*
X0185006Y0042506D03*
X0185006Y0072506D03*
X0185006Y0082506D03*
X0175006Y0082506D03*
X0175006Y0072506D03*
X0175006Y0092506D03*
X0185006Y0092506D03*
D11*
X0161118Y0088756D03*
X0156394Y0088756D03*
X0133618Y0095631D03*
X0128894Y0095631D03*
D12*
X0121256Y0095144D03*
X0121256Y0099868D03*
X0134381Y0086743D03*
X0134381Y0082019D03*
X0139381Y0082019D03*
X0139381Y0086743D03*
X0144381Y0086743D03*
X0144381Y0082019D03*
X0150006Y0082019D03*
X0150006Y0086743D03*
X0156256Y0073618D03*
X0156256Y0068894D03*
X0141256Y0062368D03*
X0141256Y0057644D03*
X0131256Y0057644D03*
X0131256Y0062368D03*
X0121881Y0068894D03*
X0117506Y0069243D03*
X0117506Y0064519D03*
X0121881Y0073618D03*
D13*
X0143756Y0095705D03*
X0149381Y0095705D03*
X0149381Y0101807D03*
X0143756Y0101807D03*
D14*
X0189906Y0132506D02*
X0195106Y0132506D01*
X0195106Y0142506D02*
X0189906Y0142506D01*
X0126356Y0175006D02*
X0121156Y0175006D01*
X0121156Y0185006D02*
X0126356Y0185006D01*
D15*
X0168756Y0151881D03*
D16*
X0175006Y0153131D03*
X0178756Y0153131D03*
X0182506Y0153131D03*
X0158756Y0157506D03*
X0158756Y0161256D03*
X0158756Y0165006D03*
X0145006Y0176256D03*
X0145006Y0181256D03*
X0141256Y0166256D03*
X0137506Y0166256D03*
X0133756Y0166256D03*
X0143756Y0154381D03*
X0141256Y0152506D03*
X0143756Y0150006D03*
X0138756Y0130006D03*
X0135006Y0130006D03*
X0125006Y0128756D03*
X0121256Y0128756D03*
X0114381Y0140444D03*
X0114391Y0155016D03*
X0144381Y0118756D03*
X0144381Y0115631D03*
X0157506Y0120006D03*
X0161256Y0120006D03*
X0161256Y0116256D03*
X0174381Y0186881D03*
X0178756Y0186881D03*
X0183131Y0186881D03*
D17*
X0116881Y0105006D03*
X0117506Y0100631D03*
X0126881Y0100006D03*
X0129381Y0100006D03*
X0130006Y0091256D03*
X0133756Y0091256D03*
X0137506Y0091881D03*
X0145006Y0091256D03*
X0153131Y0098756D03*
X0157506Y0091256D03*
X0169381Y0080631D03*
X0169381Y0072506D03*
X0161256Y0060631D03*
X0152506Y0064381D03*
X0152506Y0068131D03*
X0145631Y0070631D03*
X0147506Y0057506D03*
X0137506Y0057506D03*
X0128131Y0057506D03*
X0124381Y0057506D03*
X0118131Y0061256D03*
X0117506Y0073131D03*
X0118131Y0080631D03*
X0122506Y0091256D03*
X0125631Y0090631D03*
X0130006Y0080006D03*
X0130631Y0045631D03*
X0133756Y0045631D03*
X0136881Y0045631D03*
X0127506Y0045631D03*
X0170006Y0047506D03*
D18*
X0180006Y0047506D01*
X0185006Y0052506D01*
X0189356Y0052792D02*
X0195506Y0052792D01*
X0195506Y0053990D02*
X0189356Y0053990D01*
X0189356Y0055189D02*
X0195506Y0055189D01*
X0195506Y0056387D02*
X0188887Y0056387D01*
X0188419Y0056856D02*
X0181593Y0056856D01*
X0180656Y0055919D01*
X0180656Y0051267D01*
X0179356Y0049967D01*
X0179356Y0055919D01*
X0178419Y0056856D01*
X0171593Y0056856D01*
X0170656Y0055919D01*
X0170656Y0050257D01*
X0170561Y0050296D01*
X0169451Y0050296D01*
X0168425Y0049872D01*
X0167640Y0049087D01*
X0167215Y0048061D01*
X0167215Y0046951D01*
X0167640Y0045925D01*
X0168425Y0045140D01*
X0169451Y0044715D01*
X0170561Y0044715D01*
X0170656Y0044755D01*
X0170656Y0039093D01*
X0171593Y0038156D01*
X0178419Y0038156D01*
X0179356Y0039093D01*
X0179356Y0045306D01*
X0180656Y0045306D01*
X0180656Y0039093D01*
X0181593Y0038156D01*
X0188419Y0038156D01*
X0189356Y0039093D01*
X0189356Y0045919D01*
X0188419Y0046856D01*
X0182467Y0046856D01*
X0183767Y0048156D01*
X0188419Y0048156D01*
X0189356Y0049093D01*
X0189356Y0055919D01*
X0188419Y0056856D01*
X0188419Y0058156D02*
X0189356Y0059093D01*
X0189356Y0065919D01*
X0188419Y0066856D01*
X0181593Y0066856D01*
X0180656Y0065919D01*
X0180656Y0059093D01*
X0181593Y0058156D01*
X0188419Y0058156D01*
X0189047Y0058784D02*
X0195506Y0058784D01*
X0195506Y0057586D02*
X0144313Y0057586D01*
X0144313Y0058784D02*
X0159143Y0058784D01*
X0158882Y0059045D02*
X0159670Y0058257D01*
X0160699Y0057831D01*
X0161813Y0057831D01*
X0162842Y0058257D01*
X0163630Y0059045D01*
X0164056Y0060074D01*
X0164056Y0064938D01*
X0163630Y0065967D01*
X0159313Y0070284D01*
X0159313Y0071377D01*
X0159268Y0071422D01*
X0159313Y0071587D01*
X0159313Y0073490D01*
X0156384Y0073490D01*
X0156384Y0073746D01*
X0159313Y0073746D01*
X0159313Y0075650D01*
X0159204Y0076057D01*
X0158993Y0076421D01*
X0158695Y0076719D01*
X0158330Y0076930D01*
X0157923Y0077039D01*
X0156384Y0077039D01*
X0156384Y0073747D01*
X0156128Y0073747D01*
X0156128Y0077039D01*
X0154589Y0077039D01*
X0154182Y0076930D01*
X0153817Y0076719D01*
X0153519Y0076421D01*
X0153308Y0076057D01*
X0153199Y0075650D01*
X0153199Y0073746D01*
X0156127Y0073746D01*
X0156127Y0073490D01*
X0153199Y0073490D01*
X0153199Y0071587D01*
X0153243Y0071422D01*
X0153199Y0071377D01*
X0153199Y0070965D01*
X0153185Y0070931D01*
X0149291Y0070931D01*
X0147217Y0073005D01*
X0146188Y0073431D01*
X0145074Y0073431D01*
X0144045Y0073005D01*
X0143257Y0072217D01*
X0142831Y0071188D01*
X0142831Y0070074D01*
X0143257Y0069045D01*
X0146545Y0065757D01*
X0147574Y0065331D01*
X0156346Y0065331D01*
X0158456Y0063221D01*
X0158456Y0060074D01*
X0158882Y0059045D01*
X0158494Y0059983D02*
X0144313Y0059983D01*
X0144313Y0060127D02*
X0144268Y0060172D01*
X0144313Y0060337D01*
X0144313Y0062240D01*
X0141384Y0062240D01*
X0141384Y0062496D01*
X0144313Y0062496D01*
X0144313Y0064400D01*
X0144204Y0064807D01*
X0143993Y0065171D01*
X0143695Y0065469D01*
X0143330Y0065680D01*
X0142923Y0065789D01*
X0141384Y0065789D01*
X0141384Y0062497D01*
X0141128Y0062497D01*
X0141128Y0065789D01*
X0139589Y0065789D01*
X0139182Y0065680D01*
X0138817Y0065469D01*
X0138519Y0065171D01*
X0138308Y0064807D01*
X0138199Y0064400D01*
X0138199Y0062496D01*
X0141127Y0062496D01*
X0141127Y0062240D01*
X0138199Y0062240D01*
X0138199Y0060337D01*
X0138229Y0060227D01*
X0138061Y0060296D01*
X0136951Y0060296D01*
X0135925Y0059872D01*
X0135140Y0059087D01*
X0134715Y0058061D01*
X0134715Y0056951D01*
X0135140Y0055925D01*
X0135925Y0055140D01*
X0136951Y0054715D01*
X0138061Y0054715D01*
X0138473Y0054886D01*
X0139136Y0054223D01*
X0143375Y0054223D01*
X0144313Y0055160D01*
X0144313Y0060127D01*
X0144313Y0061181D02*
X0158456Y0061181D01*
X0158456Y0062380D02*
X0141384Y0062380D01*
X0141127Y0062380D02*
X0131384Y0062380D01*
X0131384Y0062496D02*
X0134313Y0062496D01*
X0134313Y0064400D01*
X0134204Y0064807D01*
X0133993Y0065171D01*
X0133695Y0065469D01*
X0133330Y0065680D01*
X0132923Y0065789D01*
X0131384Y0065789D01*
X0131384Y0062497D01*
X0131128Y0062497D01*
X0131128Y0065789D01*
X0129589Y0065789D01*
X0129182Y0065680D01*
X0128817Y0065469D01*
X0128519Y0065171D01*
X0128308Y0064807D01*
X0128199Y0064400D01*
X0128199Y0062496D01*
X0131127Y0062496D01*
X0131127Y0062240D01*
X0128199Y0062240D01*
X0128199Y0060337D01*
X0128210Y0060296D01*
X0127576Y0060296D01*
X0126550Y0059872D01*
X0125765Y0059087D01*
X0125340Y0058061D01*
X0125340Y0056951D01*
X0125765Y0055925D01*
X0126550Y0055140D01*
X0127576Y0054715D01*
X0128644Y0054715D01*
X0129136Y0054223D01*
X0133375Y0054223D01*
X0134313Y0055160D01*
X0134313Y0060127D01*
X0134268Y0060172D01*
X0134313Y0060337D01*
X0134313Y0062240D01*
X0131384Y0062240D01*
X0131384Y0062496D01*
X0131127Y0062380D02*
X0120686Y0062380D01*
X0120563Y0062677D02*
X0120921Y0061811D01*
X0120921Y0060701D01*
X0120497Y0059675D01*
X0119712Y0058890D01*
X0118686Y0058465D01*
X0117576Y0058465D01*
X0116550Y0058890D01*
X0115765Y0059675D01*
X0115340Y0060701D01*
X0115340Y0061144D01*
X0114449Y0062035D01*
X0114449Y0067002D01*
X0114493Y0067047D01*
X0114449Y0067212D01*
X0114449Y0069115D01*
X0117377Y0069115D01*
X0117377Y0069371D01*
X0114449Y0069371D01*
X0114449Y0071275D01*
X0114558Y0071682D01*
X0114769Y0072046D01*
X0115067Y0072344D01*
X0115432Y0072555D01*
X0115839Y0072664D01*
X0117378Y0072664D01*
X0117378Y0069372D01*
X0117634Y0069372D01*
X0117634Y0072664D01*
X0118824Y0072664D01*
X0118824Y0073676D01*
X0116718Y0075943D01*
X0116111Y0076499D01*
X0116106Y0076601D01*
X0116037Y0076676D01*
X0116067Y0077498D01*
X0116009Y0078806D01*
X0115765Y0079050D01*
X0115340Y0080076D01*
X0115340Y0081186D01*
X0115765Y0082212D01*
X0116550Y0082997D01*
X0117576Y0083421D01*
X0118686Y0083421D01*
X0119712Y0082997D01*
X0120497Y0082212D01*
X0120921Y0081186D01*
X0120921Y0080076D01*
X0120497Y0079050D01*
X0120407Y0078960D01*
X0120431Y0078411D01*
X0121706Y0077039D01*
X0124000Y0077039D01*
X0124938Y0076102D01*
X0124938Y0071134D01*
X0124893Y0071090D01*
X0124938Y0070925D01*
X0124938Y0069022D01*
X0122009Y0069022D01*
X0122009Y0068765D01*
X0122009Y0065473D01*
X0123548Y0065473D01*
X0123955Y0065582D01*
X0124320Y0065793D01*
X0124618Y0066090D01*
X0124829Y0066455D01*
X0124938Y0066862D01*
X0124938Y0068765D01*
X0122009Y0068765D01*
X0121753Y0068765D01*
X0121753Y0065473D01*
X0120563Y0065473D01*
X0120563Y0062677D01*
X0120563Y0063578D02*
X0128199Y0063578D01*
X0128300Y0064777D02*
X0120563Y0064777D01*
X0121753Y0065976D02*
X0122009Y0065976D01*
X0122009Y0067174D02*
X0121753Y0067174D01*
X0121753Y0068373D02*
X0122009Y0068373D01*
X0124938Y0068373D02*
X0143929Y0068373D01*
X0143039Y0069571D02*
X0124938Y0069571D01*
X0124938Y0070770D02*
X0142831Y0070770D01*
X0143154Y0071968D02*
X0124938Y0071968D01*
X0124938Y0073167D02*
X0144436Y0073167D01*
X0146826Y0073167D02*
X0153199Y0073167D01*
X0153199Y0074365D02*
X0124938Y0074365D01*
X0124938Y0075564D02*
X0153199Y0075564D01*
X0153891Y0076762D02*
X0124277Y0076762D01*
X0120849Y0077961D02*
X0128091Y0077961D01*
X0128420Y0077632D02*
X0129449Y0077206D01*
X0130563Y0077206D01*
X0131592Y0077632D01*
X0132380Y0078420D01*
X0132479Y0078661D01*
X0132714Y0078598D01*
X0134253Y0078598D01*
X0134253Y0081890D01*
X0134509Y0081890D01*
X0134509Y0078598D01*
X0136048Y0078598D01*
X0136455Y0078707D01*
X0136820Y0078918D01*
X0136881Y0078978D01*
X0136942Y0078918D01*
X0137307Y0078707D01*
X0137714Y0078598D01*
X0139253Y0078598D01*
X0139253Y0081890D01*
X0139509Y0081890D01*
X0139509Y0078598D01*
X0141048Y0078598D01*
X0141455Y0078707D01*
X0141820Y0078918D01*
X0141881Y0078978D01*
X0141942Y0078918D01*
X0142307Y0078707D01*
X0142714Y0078598D01*
X0144253Y0078598D01*
X0144253Y0081890D01*
X0144509Y0081890D01*
X0144509Y0078598D01*
X0146048Y0078598D01*
X0146455Y0078707D01*
X0146820Y0078918D01*
X0147118Y0079215D01*
X0147193Y0079346D01*
X0147269Y0079215D01*
X0147567Y0078918D01*
X0147932Y0078707D01*
X0148339Y0078598D01*
X0149878Y0078598D01*
X0149878Y0081890D01*
X0150134Y0081890D01*
X0150134Y0078598D01*
X0151673Y0078598D01*
X0152080Y0078707D01*
X0152445Y0078918D01*
X0152743Y0079215D01*
X0152954Y0079580D01*
X0153063Y0079987D01*
X0153063Y0081890D01*
X0150134Y0081890D01*
X0150134Y0082147D01*
X0153063Y0082147D01*
X0153063Y0084050D01*
X0153018Y0084215D01*
X0153063Y0084259D01*
X0153063Y0086547D01*
X0153910Y0085699D01*
X0158877Y0085699D01*
X0158922Y0085743D01*
X0159087Y0085699D01*
X0160990Y0085699D01*
X0160990Y0088627D01*
X0161246Y0088627D01*
X0161246Y0085699D01*
X0163150Y0085699D01*
X0163557Y0085808D01*
X0163921Y0086019D01*
X0164219Y0086317D01*
X0164430Y0086682D01*
X0164539Y0087089D01*
X0164539Y0088628D01*
X0161247Y0088628D01*
X0161247Y0088884D01*
X0164539Y0088884D01*
X0164539Y0090423D01*
X0164430Y0090830D01*
X0164219Y0091195D01*
X0163921Y0091493D01*
X0163557Y0091704D01*
X0163150Y0091813D01*
X0161246Y0091813D01*
X0161246Y0088884D01*
X0160990Y0088884D01*
X0160990Y0091813D01*
X0160296Y0091813D01*
X0159872Y0092837D01*
X0159087Y0093622D01*
X0158061Y0094046D01*
X0156951Y0094046D01*
X0155925Y0093622D01*
X0155140Y0092837D01*
X0154716Y0091813D01*
X0153910Y0091813D01*
X0152973Y0090875D01*
X0152973Y0089316D01*
X0152125Y0090164D01*
X0151581Y0090164D01*
X0151581Y0092591D01*
X0152359Y0093369D01*
X0152359Y0098041D01*
X0151644Y0098756D01*
X0152359Y0099471D01*
X0152359Y0100825D01*
X0162842Y0111308D01*
X0163630Y0112096D01*
X0164056Y0113125D01*
X0164056Y0115209D01*
X0164243Y0115662D01*
X0164243Y0116850D01*
X0164056Y0117303D01*
X0164056Y0118959D01*
X0164243Y0119412D01*
X0164243Y0120600D01*
X0163788Y0121698D01*
X0162948Y0122538D01*
X0161850Y0122993D01*
X0160662Y0122993D01*
X0160209Y0122806D01*
X0158553Y0122806D01*
X0158100Y0122993D01*
X0156912Y0122993D01*
X0155814Y0122538D01*
X0154973Y0121698D01*
X0154519Y0120600D01*
X0154519Y0119412D01*
X0154973Y0118314D01*
X0155814Y0117473D01*
X0156266Y0117286D01*
X0158456Y0115096D01*
X0158456Y0114842D01*
X0148694Y0105080D01*
X0147340Y0105080D01*
X0146867Y0104607D01*
X0146270Y0104607D01*
X0145797Y0105080D01*
X0141715Y0105080D01*
X0140778Y0104143D01*
X0140778Y0099471D01*
X0141493Y0098756D01*
X0140778Y0098041D01*
X0140778Y0093889D01*
X0138470Y0091581D01*
X0137181Y0090292D01*
X0137181Y0090083D01*
X0137181Y0091188D01*
X0136755Y0092217D01*
X0136203Y0092768D01*
X0136421Y0092894D01*
X0136719Y0093192D01*
X0136930Y0093557D01*
X0137039Y0093964D01*
X0137039Y0095503D01*
X0133747Y0095503D01*
X0133747Y0095759D01*
X0137039Y0095759D01*
X0137039Y0097298D01*
X0136930Y0097705D01*
X0136719Y0098070D01*
X0136421Y0098368D01*
X0136057Y0098579D01*
X0135650Y0098688D01*
X0133746Y0098688D01*
X0133746Y0095759D01*
X0133490Y0095759D01*
X0133490Y0098688D01*
X0131587Y0098688D01*
X0131422Y0098643D01*
X0131377Y0098688D01*
X0127206Y0098688D01*
X0127206Y0099042D01*
X0126581Y0099667D01*
X0126581Y0104042D01*
X0125292Y0105331D01*
X0123417Y0107206D01*
X0118627Y0107206D01*
X0118462Y0107372D01*
X0117436Y0107796D01*
X0116326Y0107796D01*
X0115300Y0107372D01*
X0114515Y0106587D01*
X0114090Y0105561D01*
X0114090Y0104451D01*
X0114515Y0103425D01*
X0115300Y0102640D01*
X0116326Y0102215D01*
X0117436Y0102215D01*
X0118462Y0102640D01*
X0118627Y0102806D01*
X0118653Y0102806D01*
X0118519Y0102671D01*
X0118308Y0102307D01*
X0118199Y0101900D01*
X0118199Y0099996D01*
X0121127Y0099996D01*
X0121127Y0099740D01*
X0118199Y0099740D01*
X0118199Y0097837D01*
X0118243Y0097672D01*
X0118199Y0097627D01*
X0118199Y0092660D01*
X0118887Y0091972D01*
X0118874Y0091711D01*
X0118962Y0091613D01*
X0118969Y0091481D01*
X0119560Y0090948D01*
X0119715Y0090776D01*
X0119715Y0090701D01*
X0120140Y0089675D01*
X0120925Y0088890D01*
X0121951Y0088465D01*
X0123061Y0088465D01*
X0123619Y0088696D01*
X0124050Y0088265D01*
X0125076Y0087840D01*
X0126186Y0087840D01*
X0127206Y0088263D01*
X0127206Y0079449D01*
X0127632Y0078420D01*
X0128420Y0077632D01*
X0127326Y0079159D02*
X0120542Y0079159D01*
X0120921Y0080358D02*
X0127206Y0080358D01*
X0127206Y0081556D02*
X0120768Y0081556D01*
X0119954Y0082755D02*
X0127206Y0082755D01*
X0127206Y0083953D02*
X0106881Y0083953D01*
X0106881Y0082755D02*
X0116308Y0082755D01*
X0115494Y0081556D02*
X0106881Y0081556D01*
X0106881Y0080358D02*
X0115340Y0080358D01*
X0115720Y0079159D02*
X0106881Y0079159D01*
X0106881Y0077961D02*
X0116047Y0077961D01*
X0116040Y0076762D02*
X0106881Y0076762D01*
X0106881Y0075564D02*
X0117070Y0075564D01*
X0118184Y0074365D02*
X0106881Y0074365D01*
X0106881Y0073167D02*
X0118824Y0073167D01*
X0117634Y0071968D02*
X0117378Y0071968D01*
X0117378Y0070770D02*
X0117634Y0070770D01*
X0117634Y0069571D02*
X0117378Y0069571D01*
X0114449Y0069571D02*
X0106881Y0069571D01*
X0106881Y0068373D02*
X0114449Y0068373D01*
X0114459Y0067174D02*
X0106881Y0067174D01*
X0106881Y0065976D02*
X0114449Y0065976D01*
X0114449Y0064777D02*
X0106881Y0064777D01*
X0106881Y0063578D02*
X0114449Y0063578D01*
X0114449Y0062380D02*
X0106881Y0062380D01*
X0106881Y0061181D02*
X0115303Y0061181D01*
X0115638Y0059983D02*
X0106881Y0059983D01*
X0106881Y0058784D02*
X0116805Y0058784D01*
X0119456Y0058784D02*
X0125640Y0058784D01*
X0125340Y0057586D02*
X0106881Y0057586D01*
X0106881Y0056387D02*
X0125574Y0056387D01*
X0126501Y0055189D02*
X0115598Y0055189D01*
X0115569Y0055219D02*
X0114392Y0055706D01*
X0113119Y0055706D01*
X0111943Y0055219D01*
X0111043Y0054319D01*
X0110556Y0053142D01*
X0110556Y0051869D01*
X0111043Y0050693D01*
X0111806Y0049930D01*
X0111806Y0036856D01*
X0111593Y0036856D01*
X0110656Y0035919D01*
X0110656Y0029093D01*
X0111593Y0028156D01*
X0118419Y0028156D01*
X0119356Y0029093D01*
X0119356Y0035919D01*
X0118419Y0036856D01*
X0118206Y0036856D01*
X0118206Y0051892D01*
X0117719Y0053069D01*
X0115569Y0055219D01*
X0116797Y0053990D02*
X0170656Y0053990D01*
X0170656Y0052792D02*
X0117833Y0052792D01*
X0118206Y0051593D02*
X0170656Y0051593D01*
X0170656Y0050395D02*
X0118206Y0050395D01*
X0118206Y0049196D02*
X0167750Y0049196D01*
X0167215Y0047998D02*
X0138459Y0047998D01*
X0138462Y0047997D02*
X0137436Y0048421D01*
X0136326Y0048421D01*
X0135318Y0048004D01*
X0134311Y0048421D01*
X0133201Y0048421D01*
X0132193Y0048004D01*
X0131186Y0048421D01*
X0130076Y0048421D01*
X0129068Y0048004D01*
X0128061Y0048421D01*
X0126951Y0048421D01*
X0125925Y0047997D01*
X0125140Y0047212D01*
X0124715Y0046186D01*
X0124715Y0045076D01*
X0125140Y0044050D01*
X0125306Y0043884D01*
X0125306Y0043470D01*
X0127806Y0040970D01*
X0127806Y0036856D01*
X0121593Y0036856D01*
X0120656Y0035919D01*
X0120656Y0029093D01*
X0121593Y0028156D01*
X0127545Y0028156D01*
X0126245Y0026856D01*
X0121593Y0026856D01*
X0120656Y0025919D01*
X0120656Y0019093D01*
X0121593Y0018156D01*
X0128419Y0018156D01*
X0129356Y0019093D01*
X0129356Y0023745D01*
X0130656Y0025045D01*
X0130656Y0019093D01*
X0131593Y0018156D01*
X0138419Y0018156D01*
X0139356Y0019093D01*
X0139356Y0023745D01*
X0140656Y0025045D01*
X0140656Y0019093D01*
X0141593Y0018156D01*
X0148419Y0018156D01*
X0149356Y0019093D01*
X0149356Y0023745D01*
X0150656Y0025045D01*
X0150656Y0019093D01*
X0151593Y0018156D01*
X0158419Y0018156D01*
X0159356Y0019093D01*
X0159356Y0023745D01*
X0162831Y0027220D01*
X0162831Y0036542D01*
X0161542Y0037831D01*
X0159042Y0040331D01*
X0152792Y0040331D01*
X0150292Y0042831D01*
X0144042Y0042831D01*
X0141542Y0045331D01*
X0140292Y0045331D01*
X0139671Y0045952D01*
X0139671Y0046186D01*
X0139247Y0047212D01*
X0138462Y0047997D01*
X0139417Y0046799D02*
X0167278Y0046799D01*
X0167965Y0045601D02*
X0140022Y0045601D01*
X0140631Y0043131D02*
X0143131Y0040631D01*
X0149381Y0040631D01*
X0151881Y0038131D01*
X0158131Y0038131D01*
X0160631Y0035631D01*
X0160631Y0028131D01*
X0155006Y0022506D01*
X0159356Y0022829D02*
X0170656Y0022829D01*
X0170656Y0021631D02*
X0159356Y0021631D01*
X0159356Y0020432D02*
X0170656Y0020432D01*
X0170656Y0019234D02*
X0159356Y0019234D01*
X0159639Y0024028D02*
X0170656Y0024028D01*
X0170656Y0025226D02*
X0160837Y0025226D01*
X0162036Y0026425D02*
X0171162Y0026425D01*
X0171593Y0026856D02*
X0170656Y0025919D01*
X0170656Y0019093D01*
X0171593Y0018156D01*
X0178419Y0018156D01*
X0179356Y0019093D01*
X0179356Y0025919D01*
X0178419Y0026856D01*
X0171593Y0026856D01*
X0171593Y0028156D02*
X0178419Y0028156D01*
X0179356Y0029093D01*
X0179356Y0035919D01*
X0178419Y0036856D01*
X0171593Y0036856D01*
X0170656Y0035919D01*
X0170656Y0029093D01*
X0171593Y0028156D01*
X0170927Y0028822D02*
X0162831Y0028822D01*
X0162831Y0030020D02*
X0170656Y0030020D01*
X0170656Y0031219D02*
X0162831Y0031219D01*
X0162831Y0032417D02*
X0170656Y0032417D01*
X0170656Y0033616D02*
X0162831Y0033616D01*
X0162831Y0034814D02*
X0170656Y0034814D01*
X0170750Y0036013D02*
X0162831Y0036013D01*
X0162162Y0037211D02*
X0195506Y0037211D01*
X0195506Y0036013D02*
X0189262Y0036013D01*
X0189356Y0035919D02*
X0188419Y0036856D01*
X0181593Y0036856D01*
X0180656Y0035919D01*
X0180656Y0029093D01*
X0181593Y0028156D01*
X0188419Y0028156D01*
X0189356Y0029093D01*
X0189356Y0035919D01*
X0189356Y0034814D02*
X0195506Y0034814D01*
X0195506Y0033616D02*
X0189356Y0033616D01*
X0189356Y0032417D02*
X0195506Y0032417D01*
X0195506Y0031219D02*
X0189356Y0031219D01*
X0189356Y0030020D02*
X0195506Y0030020D01*
X0195506Y0028822D02*
X0189084Y0028822D01*
X0188419Y0026856D02*
X0189356Y0025919D01*
X0189356Y0019093D01*
X0188419Y0018156D01*
X0181593Y0018156D01*
X0180656Y0019093D01*
X0180656Y0025919D01*
X0181593Y0026856D01*
X0188419Y0026856D01*
X0188850Y0026425D02*
X0195506Y0026425D01*
X0195506Y0027623D02*
X0162831Y0027623D01*
X0160963Y0038410D02*
X0171339Y0038410D01*
X0170656Y0039608D02*
X0159765Y0039608D01*
X0152316Y0040807D02*
X0170656Y0040807D01*
X0170656Y0042005D02*
X0151118Y0042005D01*
X0148131Y0038131D02*
X0150006Y0036256D01*
X0150006Y0027506D01*
X0145006Y0022506D01*
X0149356Y0022829D02*
X0150656Y0022829D01*
X0150656Y0021631D02*
X0149356Y0021631D01*
X0149356Y0020432D02*
X0150656Y0020432D01*
X0150656Y0019234D02*
X0149356Y0019234D01*
X0149639Y0024028D02*
X0150656Y0024028D01*
X0140656Y0024028D02*
X0139639Y0024028D01*
X0139356Y0022829D02*
X0140656Y0022829D01*
X0140656Y0021631D02*
X0139356Y0021631D01*
X0139356Y0020432D02*
X0140656Y0020432D01*
X0140656Y0019234D02*
X0139356Y0019234D01*
X0135006Y0022506D02*
X0140006Y0027506D01*
X0140006Y0036881D01*
X0138756Y0038131D01*
X0136881Y0038131D01*
X0130631Y0044381D01*
X0130631Y0045631D01*
X0133756Y0045631D02*
X0133756Y0044381D01*
X0137506Y0040631D01*
X0140006Y0040631D01*
X0142506Y0038131D01*
X0148131Y0038131D01*
X0143669Y0043204D02*
X0170656Y0043204D01*
X0170656Y0044402D02*
X0142471Y0044402D01*
X0140631Y0043131D02*
X0139381Y0043131D01*
X0136881Y0045631D01*
X0130006Y0041881D02*
X0130006Y0027506D01*
X0125006Y0022506D01*
X0120656Y0022829D02*
X0119356Y0022829D01*
X0119356Y0022781D02*
X0119356Y0025467D01*
X0119247Y0025873D01*
X0119036Y0026238D01*
X0118738Y0026536D01*
X0118373Y0026747D01*
X0117967Y0026856D01*
X0115281Y0026856D01*
X0115281Y0022781D01*
X0114731Y0022781D01*
X0114731Y0026856D01*
X0112045Y0026856D01*
X0111638Y0026747D01*
X0111273Y0026536D01*
X0110976Y0026238D01*
X0110765Y0025873D01*
X0110656Y0025467D01*
X0110656Y0022781D01*
X0114731Y0022781D01*
X0114731Y0022231D01*
X0110656Y0022231D01*
X0110656Y0019545D01*
X0110765Y0019138D01*
X0110976Y0018773D01*
X0111273Y0018476D01*
X0111638Y0018265D01*
X0112045Y0018156D01*
X0114731Y0018156D01*
X0114731Y0022231D01*
X0115281Y0022231D01*
X0115281Y0022781D01*
X0119356Y0022781D01*
X0119356Y0022231D02*
X0115281Y0022231D01*
X0115281Y0018156D01*
X0117967Y0018156D01*
X0118373Y0018265D01*
X0118738Y0018476D01*
X0119036Y0018773D01*
X0119247Y0019138D01*
X0119356Y0019545D01*
X0119356Y0022231D01*
X0119356Y0021631D02*
X0120656Y0021631D01*
X0120656Y0020432D02*
X0119356Y0020432D01*
X0119272Y0019234D02*
X0120656Y0019234D01*
X0120656Y0024028D02*
X0119356Y0024028D01*
X0119356Y0025226D02*
X0120656Y0025226D01*
X0121162Y0026425D02*
X0118850Y0026425D01*
X0119084Y0028822D02*
X0120927Y0028822D01*
X0120656Y0030020D02*
X0119356Y0030020D01*
X0119356Y0031219D02*
X0120656Y0031219D01*
X0120656Y0032417D02*
X0119356Y0032417D01*
X0119356Y0033616D02*
X0120656Y0033616D01*
X0120656Y0034814D02*
X0119356Y0034814D01*
X0119262Y0036013D02*
X0120750Y0036013D01*
X0118206Y0037211D02*
X0127806Y0037211D01*
X0127806Y0038410D02*
X0118206Y0038410D01*
X0118206Y0039608D02*
X0127806Y0039608D01*
X0127806Y0040807D02*
X0118206Y0040807D01*
X0118206Y0042005D02*
X0126770Y0042005D01*
X0125572Y0043204D02*
X0118206Y0043204D01*
X0118206Y0044402D02*
X0124994Y0044402D01*
X0124715Y0045601D02*
X0118206Y0045601D01*
X0118206Y0046799D02*
X0124969Y0046799D01*
X0125928Y0047998D02*
X0118206Y0047998D01*
X0111806Y0047998D02*
X0106881Y0047998D01*
X0106881Y0049196D02*
X0111806Y0049196D01*
X0111341Y0050395D02*
X0106881Y0050395D01*
X0106881Y0051593D02*
X0110670Y0051593D01*
X0110556Y0052792D02*
X0106881Y0052792D01*
X0106881Y0053990D02*
X0110907Y0053990D01*
X0111913Y0055189D02*
X0106881Y0055189D01*
X0106881Y0046799D02*
X0111806Y0046799D01*
X0111806Y0045601D02*
X0106881Y0045601D01*
X0106881Y0044402D02*
X0111806Y0044402D01*
X0111806Y0043204D02*
X0106881Y0043204D01*
X0106881Y0042005D02*
X0111806Y0042005D01*
X0111806Y0040807D02*
X0106881Y0040807D01*
X0106881Y0039608D02*
X0111806Y0039608D01*
X0111806Y0038410D02*
X0106881Y0038410D01*
X0106881Y0037211D02*
X0111806Y0037211D01*
X0110750Y0036013D02*
X0106881Y0036013D01*
X0106881Y0034814D02*
X0110656Y0034814D01*
X0110656Y0033616D02*
X0106881Y0033616D01*
X0106881Y0032417D02*
X0110656Y0032417D01*
X0110656Y0031219D02*
X0106881Y0031219D01*
X0106881Y0030020D02*
X0110656Y0030020D01*
X0110927Y0028822D02*
X0106881Y0028822D01*
X0106881Y0027623D02*
X0127012Y0027623D01*
X0129639Y0024028D02*
X0130656Y0024028D01*
X0130656Y0022829D02*
X0129356Y0022829D01*
X0129356Y0021631D02*
X0130656Y0021631D01*
X0130656Y0020432D02*
X0129356Y0020432D01*
X0129356Y0019234D02*
X0130656Y0019234D01*
X0115281Y0019234D02*
X0114731Y0019234D01*
X0114731Y0020432D02*
X0115281Y0020432D01*
X0115281Y0021631D02*
X0114731Y0021631D01*
X0114731Y0022829D02*
X0115281Y0022829D01*
X0115281Y0024028D02*
X0114731Y0024028D01*
X0114731Y0025226D02*
X0115281Y0025226D01*
X0115281Y0026425D02*
X0114731Y0026425D01*
X0111162Y0026425D02*
X0106881Y0026425D01*
X0106881Y0025226D02*
X0110656Y0025226D01*
X0110656Y0024028D02*
X0106881Y0024028D01*
X0106881Y0022829D02*
X0110656Y0022829D01*
X0110656Y0021631D02*
X0106881Y0021631D01*
X0106881Y0020432D02*
X0110656Y0020432D01*
X0110739Y0019234D02*
X0106881Y0019234D01*
X0106881Y0018035D02*
X0195506Y0018035D01*
X0195506Y0016837D02*
X0106881Y0016837D01*
X0106881Y0015638D02*
X0195506Y0015638D01*
X0195506Y0014440D02*
X0106881Y0014440D01*
X0106881Y0013241D02*
X0195506Y0013241D01*
X0195506Y0012043D02*
X0106881Y0012043D01*
X0106881Y0010844D02*
X0195506Y0010844D01*
X0195506Y0009645D02*
X0106881Y0009645D01*
X0106881Y0008447D02*
X0195506Y0008447D01*
X0195506Y0007248D02*
X0106881Y0007248D01*
X0106881Y0006050D02*
X0195506Y0006050D01*
X0195506Y0004851D02*
X0106881Y0004851D01*
X0106881Y0003856D02*
X0106881Y0195506D01*
X0195506Y0195506D01*
X0195506Y0188944D01*
X0195197Y0188944D01*
X0194242Y0188549D01*
X0193510Y0187817D01*
X0193115Y0186862D01*
X0193115Y0153150D01*
X0193510Y0152195D01*
X0194242Y0151463D01*
X0195197Y0151067D01*
X0195506Y0151067D01*
X0195506Y0146695D01*
X0195436Y0146706D01*
X0192906Y0146706D01*
X0192906Y0142906D01*
X0192106Y0142906D01*
X0192106Y0146706D01*
X0189575Y0146706D01*
X0188922Y0146602D01*
X0188294Y0146398D01*
X0187705Y0146098D01*
X0187170Y0145709D01*
X0186702Y0145242D01*
X0186314Y0144707D01*
X0186014Y0144118D01*
X0185809Y0143489D01*
X0185717Y0142906D01*
X0192106Y0142906D01*
X0192106Y0142106D01*
X0192906Y0142106D01*
X0192906Y0138306D01*
X0195436Y0138306D01*
X0195506Y0138317D01*
X0195506Y0136706D01*
X0189070Y0136706D01*
X0187527Y0136066D01*
X0186345Y0134885D01*
X0185706Y0133341D01*
X0185706Y0131670D01*
X0186345Y0130127D01*
X0187527Y0128945D01*
X0189070Y0128306D01*
X0195506Y0128306D01*
X0195506Y0003856D01*
X0106881Y0003856D01*
X0130006Y0041881D02*
X0127506Y0044381D01*
X0127506Y0045631D01*
X0134313Y0055189D02*
X0135876Y0055189D01*
X0134949Y0056387D02*
X0134313Y0056387D01*
X0134313Y0057586D02*
X0134715Y0057586D01*
X0135015Y0058784D02*
X0134313Y0058784D01*
X0134313Y0059983D02*
X0136194Y0059983D01*
X0134313Y0061181D02*
X0138199Y0061181D01*
X0138199Y0063578D02*
X0134313Y0063578D01*
X0134211Y0064777D02*
X0138300Y0064777D01*
X0141128Y0064777D02*
X0141384Y0064777D01*
X0141384Y0063578D02*
X0141128Y0063578D01*
X0144313Y0063578D02*
X0158099Y0063578D01*
X0156900Y0064777D02*
X0144211Y0064777D01*
X0146326Y0065976D02*
X0124503Y0065976D01*
X0124938Y0067174D02*
X0145128Y0067174D01*
X0148254Y0071968D02*
X0153199Y0071968D01*
X0156128Y0074365D02*
X0156384Y0074365D01*
X0156384Y0075564D02*
X0156128Y0075564D01*
X0156128Y0076762D02*
X0156384Y0076762D01*
X0158621Y0076762D02*
X0168026Y0076762D01*
X0168470Y0077206D02*
X0167181Y0075917D01*
X0167181Y0074252D01*
X0167015Y0074087D01*
X0166590Y0073061D01*
X0166590Y0071951D01*
X0167015Y0070925D01*
X0167800Y0070140D01*
X0168826Y0069715D01*
X0169936Y0069715D01*
X0170656Y0070014D01*
X0170656Y0069093D01*
X0171593Y0068156D01*
X0178419Y0068156D01*
X0179356Y0069093D01*
X0179356Y0075306D01*
X0180656Y0075306D01*
X0180656Y0069093D01*
X0181593Y0068156D01*
X0188419Y0068156D01*
X0189356Y0069093D01*
X0189356Y0075919D01*
X0188419Y0076856D01*
X0182467Y0076856D01*
X0183767Y0078156D01*
X0188419Y0078156D01*
X0189356Y0079093D01*
X0189356Y0085919D01*
X0188419Y0086856D01*
X0182467Y0086856D01*
X0183767Y0088156D01*
X0188419Y0088156D01*
X0189356Y0089093D01*
X0189356Y0095919D01*
X0188419Y0096856D01*
X0181593Y0096856D01*
X0180656Y0095919D01*
X0180656Y0091267D01*
X0179356Y0089967D01*
X0179356Y0095919D01*
X0178419Y0096856D01*
X0171593Y0096856D01*
X0170656Y0095919D01*
X0170656Y0089392D01*
X0168470Y0087206D01*
X0168470Y0087206D01*
X0167181Y0085917D01*
X0167181Y0082377D01*
X0167015Y0082212D01*
X0166590Y0081186D01*
X0166590Y0080076D01*
X0167015Y0079050D01*
X0167800Y0078265D01*
X0168826Y0077840D01*
X0169104Y0077840D01*
X0168470Y0077206D01*
X0168535Y0077961D02*
X0131920Y0077961D01*
X0134253Y0079159D02*
X0134509Y0079159D01*
X0134509Y0080358D02*
X0134253Y0080358D01*
X0134253Y0081556D02*
X0134509Y0081556D01*
X0134509Y0081890D02*
X0134509Y0082147D01*
X0139252Y0082147D01*
X0139252Y0081890D01*
X0137438Y0081890D01*
X0134509Y0081890D01*
X0139253Y0081556D02*
X0139509Y0081556D01*
X0139509Y0081890D02*
X0141324Y0081890D01*
X0144252Y0081890D01*
X0144252Y0082147D01*
X0139509Y0082147D01*
X0139509Y0081890D01*
X0139509Y0080358D02*
X0139253Y0080358D01*
X0139253Y0079159D02*
X0139509Y0079159D01*
X0144253Y0079159D02*
X0144509Y0079159D01*
X0144509Y0080358D02*
X0144253Y0080358D01*
X0144253Y0081556D02*
X0144509Y0081556D01*
X0144509Y0081890D02*
X0144509Y0082147D01*
X0147438Y0082147D01*
X0149877Y0082147D01*
X0149877Y0081890D01*
X0144509Y0081890D01*
X0147062Y0079159D02*
X0147325Y0079159D01*
X0149878Y0079159D02*
X0150134Y0079159D01*
X0150134Y0080358D02*
X0149878Y0080358D01*
X0149878Y0081556D02*
X0150134Y0081556D01*
X0153063Y0081556D02*
X0166744Y0081556D01*
X0166590Y0080358D02*
X0153063Y0080358D01*
X0152687Y0079159D02*
X0166970Y0079159D01*
X0169381Y0080631D02*
X0169381Y0085006D01*
X0171881Y0087506D01*
X0180006Y0087506D01*
X0185006Y0092506D01*
X0189356Y0092343D02*
X0195506Y0092343D01*
X0195506Y0093541D02*
X0189356Y0093541D01*
X0189356Y0094740D02*
X0195506Y0094740D01*
X0195506Y0095938D02*
X0189336Y0095938D01*
X0189356Y0091144D02*
X0195506Y0091144D01*
X0195506Y0089946D02*
X0189356Y0089946D01*
X0189010Y0088747D02*
X0195506Y0088747D01*
X0195506Y0087549D02*
X0183160Y0087549D01*
X0180533Y0091144D02*
X0179356Y0091144D01*
X0179356Y0092343D02*
X0180656Y0092343D01*
X0180656Y0093541D02*
X0179356Y0093541D01*
X0179356Y0094740D02*
X0180656Y0094740D01*
X0180676Y0095938D02*
X0179336Y0095938D01*
X0170676Y0095938D02*
X0152359Y0095938D01*
X0152359Y0094740D02*
X0170656Y0094740D01*
X0170656Y0093541D02*
X0159167Y0093541D01*
X0160076Y0092343D02*
X0170656Y0092343D01*
X0170656Y0091144D02*
X0164249Y0091144D01*
X0164539Y0089946D02*
X0170656Y0089946D01*
X0170011Y0088747D02*
X0161247Y0088747D01*
X0161246Y0087549D02*
X0160990Y0087549D01*
X0160990Y0086350D02*
X0161246Y0086350D01*
X0164239Y0086350D02*
X0167614Y0086350D01*
X0167181Y0085152D02*
X0153063Y0085152D01*
X0153063Y0086350D02*
X0153259Y0086350D01*
X0153063Y0083953D02*
X0167181Y0083953D01*
X0167181Y0082755D02*
X0153063Y0082755D01*
X0150006Y0086743D02*
X0150006Y0086881D01*
X0149381Y0087506D01*
X0149381Y0095705D01*
X0151581Y0092343D02*
X0154936Y0092343D01*
X0155845Y0093541D02*
X0152359Y0093541D01*
X0151581Y0091144D02*
X0153242Y0091144D01*
X0152973Y0089946D02*
X0152344Y0089946D01*
X0156394Y0090144D02*
X0156394Y0088756D01*
X0156394Y0090144D02*
X0157506Y0091256D01*
X0160990Y0091144D02*
X0161246Y0091144D01*
X0161246Y0089946D02*
X0160990Y0089946D01*
X0164539Y0087549D02*
X0168812Y0087549D01*
X0171881Y0077506D02*
X0169381Y0075006D01*
X0169381Y0072506D01*
X0167171Y0070770D02*
X0159313Y0070770D01*
X0159313Y0071968D02*
X0166590Y0071968D01*
X0166634Y0073167D02*
X0159313Y0073167D01*
X0159313Y0074365D02*
X0167181Y0074365D01*
X0167181Y0075564D02*
X0159313Y0075564D01*
X0160026Y0069571D02*
X0170656Y0069571D01*
X0171377Y0068373D02*
X0161224Y0068373D01*
X0162423Y0067174D02*
X0195506Y0067174D01*
X0195506Y0065976D02*
X0189299Y0065976D01*
X0189356Y0064777D02*
X0195506Y0064777D01*
X0195506Y0063578D02*
X0189356Y0063578D01*
X0189356Y0062380D02*
X0195506Y0062380D01*
X0195506Y0061181D02*
X0189356Y0061181D01*
X0189356Y0059983D02*
X0195506Y0059983D01*
X0195506Y0051593D02*
X0189356Y0051593D01*
X0189356Y0050395D02*
X0195506Y0050395D01*
X0195506Y0049196D02*
X0189356Y0049196D01*
X0188475Y0046799D02*
X0195506Y0046799D01*
X0195506Y0045601D02*
X0189356Y0045601D01*
X0189356Y0044402D02*
X0195506Y0044402D01*
X0195506Y0043204D02*
X0189356Y0043204D01*
X0189356Y0042005D02*
X0195506Y0042005D01*
X0195506Y0040807D02*
X0189356Y0040807D01*
X0189356Y0039608D02*
X0195506Y0039608D01*
X0195506Y0038410D02*
X0188672Y0038410D01*
X0181339Y0038410D02*
X0178672Y0038410D01*
X0179356Y0039608D02*
X0180656Y0039608D01*
X0180656Y0040807D02*
X0179356Y0040807D01*
X0179356Y0042005D02*
X0180656Y0042005D01*
X0180656Y0043204D02*
X0179356Y0043204D01*
X0179356Y0044402D02*
X0180656Y0044402D01*
X0183609Y0047998D02*
X0195506Y0047998D01*
X0181125Y0056387D02*
X0178887Y0056387D01*
X0179356Y0055189D02*
X0180656Y0055189D01*
X0180656Y0053990D02*
X0179356Y0053990D01*
X0179356Y0052792D02*
X0180656Y0052792D01*
X0180656Y0051593D02*
X0179356Y0051593D01*
X0179356Y0050395D02*
X0179784Y0050395D01*
X0178419Y0058156D02*
X0171593Y0058156D01*
X0170656Y0059093D01*
X0170656Y0065919D01*
X0171593Y0066856D01*
X0178419Y0066856D01*
X0179356Y0065919D01*
X0179356Y0059093D01*
X0178419Y0058156D01*
X0179047Y0058784D02*
X0180965Y0058784D01*
X0180656Y0059983D02*
X0179356Y0059983D01*
X0179356Y0061181D02*
X0180656Y0061181D01*
X0180656Y0062380D02*
X0179356Y0062380D01*
X0179356Y0063578D02*
X0180656Y0063578D01*
X0180656Y0064777D02*
X0179356Y0064777D01*
X0179299Y0065976D02*
X0180713Y0065976D01*
X0181377Y0068373D02*
X0178635Y0068373D01*
X0179356Y0069571D02*
X0180656Y0069571D01*
X0180656Y0070770D02*
X0179356Y0070770D01*
X0179356Y0071968D02*
X0180656Y0071968D01*
X0180656Y0073167D02*
X0179356Y0073167D01*
X0179356Y0074365D02*
X0180656Y0074365D01*
X0180006Y0077506D02*
X0171881Y0077506D01*
X0180006Y0077506D02*
X0185006Y0082506D01*
X0189356Y0082755D02*
X0195506Y0082755D01*
X0195506Y0083953D02*
X0189356Y0083953D01*
X0189356Y0085152D02*
X0195506Y0085152D01*
X0195506Y0086350D02*
X0188924Y0086350D01*
X0189356Y0081556D02*
X0195506Y0081556D01*
X0195506Y0080358D02*
X0189356Y0080358D01*
X0189356Y0079159D02*
X0195506Y0079159D01*
X0195506Y0077961D02*
X0183572Y0077961D01*
X0188512Y0076762D02*
X0195506Y0076762D01*
X0195506Y0075564D02*
X0189356Y0075564D01*
X0189356Y0074365D02*
X0195506Y0074365D01*
X0195506Y0073167D02*
X0189356Y0073167D01*
X0189356Y0071968D02*
X0195506Y0071968D01*
X0195506Y0070770D02*
X0189356Y0070770D01*
X0189356Y0069571D02*
X0195506Y0069571D01*
X0195506Y0068373D02*
X0188635Y0068373D01*
X0170713Y0065976D02*
X0163621Y0065976D01*
X0164056Y0064777D02*
X0170656Y0064777D01*
X0170656Y0063578D02*
X0164056Y0063578D01*
X0164056Y0062380D02*
X0170656Y0062380D01*
X0170656Y0061181D02*
X0164056Y0061181D01*
X0164018Y0059983D02*
X0170656Y0059983D01*
X0170965Y0058784D02*
X0163369Y0058784D01*
X0171125Y0056387D02*
X0144313Y0056387D01*
X0144313Y0055189D02*
X0170656Y0055189D01*
X0179262Y0036013D02*
X0180750Y0036013D01*
X0180656Y0034814D02*
X0179356Y0034814D01*
X0179356Y0033616D02*
X0180656Y0033616D01*
X0180656Y0032417D02*
X0179356Y0032417D01*
X0179356Y0031219D02*
X0180656Y0031219D01*
X0180656Y0030020D02*
X0179356Y0030020D01*
X0179084Y0028822D02*
X0180927Y0028822D01*
X0181162Y0026425D02*
X0178850Y0026425D01*
X0179356Y0025226D02*
X0180656Y0025226D01*
X0180656Y0024028D02*
X0179356Y0024028D01*
X0179356Y0022829D02*
X0180656Y0022829D01*
X0180656Y0021631D02*
X0179356Y0021631D01*
X0179356Y0020432D02*
X0180656Y0020432D01*
X0180656Y0019234D02*
X0179356Y0019234D01*
X0189356Y0019234D02*
X0195506Y0019234D01*
X0195506Y0020432D02*
X0189356Y0020432D01*
X0189356Y0021631D02*
X0195506Y0021631D01*
X0195506Y0022829D02*
X0189356Y0022829D01*
X0189356Y0024028D02*
X0195506Y0024028D01*
X0195506Y0025226D02*
X0189356Y0025226D01*
X0141256Y0057644D02*
X0141118Y0057506D01*
X0137506Y0057506D01*
X0131256Y0057644D02*
X0130493Y0057506D01*
X0128131Y0057506D01*
X0126819Y0059983D02*
X0120624Y0059983D01*
X0120921Y0061181D02*
X0128199Y0061181D01*
X0131128Y0063578D02*
X0131384Y0063578D01*
X0131384Y0064777D02*
X0131128Y0064777D01*
X0121881Y0073618D02*
X0118269Y0077506D01*
X0118131Y0080631D01*
X0121270Y0088747D02*
X0106881Y0088747D01*
X0106881Y0087549D02*
X0127206Y0087549D01*
X0127206Y0086350D02*
X0106881Y0086350D01*
X0106881Y0085152D02*
X0127206Y0085152D01*
X0125631Y0090631D02*
X0125006Y0091256D01*
X0125006Y0098131D01*
X0124381Y0098756D01*
X0124381Y0103131D01*
X0122506Y0105006D01*
X0116881Y0105006D01*
X0114811Y0103129D02*
X0106881Y0103129D01*
X0106881Y0101931D02*
X0118208Y0101931D01*
X0118199Y0100732D02*
X0106881Y0100732D01*
X0106881Y0099534D02*
X0118199Y0099534D01*
X0118199Y0098335D02*
X0106881Y0098335D01*
X0106881Y0097137D02*
X0118199Y0097137D01*
X0118199Y0095938D02*
X0106881Y0095938D01*
X0106881Y0094740D02*
X0118199Y0094740D01*
X0118199Y0093541D02*
X0106881Y0093541D01*
X0106881Y0092343D02*
X0118517Y0092343D01*
X0119343Y0091144D02*
X0106881Y0091144D01*
X0106881Y0089946D02*
X0120028Y0089946D01*
X0121118Y0092506D02*
X0121256Y0095144D01*
X0121118Y0092506D02*
X0122506Y0091256D01*
X0128894Y0095631D02*
X0130006Y0094519D01*
X0130006Y0091256D01*
X0133490Y0095938D02*
X0133746Y0095938D01*
X0133746Y0097137D02*
X0133490Y0097137D01*
X0133490Y0098335D02*
X0133746Y0098335D01*
X0136454Y0098335D02*
X0141073Y0098335D01*
X0140778Y0097137D02*
X0137039Y0097137D01*
X0137039Y0095938D02*
X0140778Y0095938D01*
X0140778Y0094740D02*
X0137039Y0094740D01*
X0136921Y0093541D02*
X0140430Y0093541D01*
X0139232Y0092343D02*
X0136629Y0092343D01*
X0137506Y0091881D02*
X0138131Y0092506D01*
X0138033Y0091144D02*
X0137181Y0091144D01*
X0137181Y0090083D02*
X0137181Y0090083D01*
X0139381Y0089381D02*
X0139381Y0086743D01*
X0139381Y0089381D02*
X0143756Y0093756D01*
X0143756Y0095705D01*
X0140778Y0099534D02*
X0126714Y0099534D01*
X0126581Y0100732D02*
X0140778Y0100732D01*
X0140778Y0101931D02*
X0126581Y0101931D01*
X0126581Y0103129D02*
X0140778Y0103129D01*
X0140963Y0104328D02*
X0126295Y0104328D01*
X0125097Y0105526D02*
X0149140Y0105526D01*
X0150339Y0106725D02*
X0123898Y0106725D01*
X0114653Y0106725D02*
X0106881Y0106725D01*
X0106881Y0107923D02*
X0151537Y0107923D01*
X0152736Y0109122D02*
X0106881Y0109122D01*
X0106881Y0110320D02*
X0153934Y0110320D01*
X0155133Y0111519D02*
X0106881Y0111519D01*
X0106881Y0112717D02*
X0156331Y0112717D01*
X0157530Y0113916D02*
X0106881Y0113916D01*
X0106881Y0115114D02*
X0158438Y0115114D01*
X0157239Y0116313D02*
X0106881Y0116313D01*
X0106881Y0117512D02*
X0155775Y0117512D01*
X0154809Y0118710D02*
X0106881Y0118710D01*
X0106881Y0119909D02*
X0154519Y0119909D01*
X0154728Y0121107D02*
X0106881Y0121107D01*
X0106881Y0122306D02*
X0155581Y0122306D01*
X0150569Y0129793D02*
X0149392Y0129306D01*
X0142743Y0129306D01*
X0142743Y0129213D01*
X0142136Y0127747D01*
X0141015Y0126626D01*
X0139549Y0126019D01*
X0137963Y0126019D01*
X0136881Y0126467D01*
X0135799Y0126019D01*
X0134213Y0126019D01*
X0132747Y0126626D01*
X0131626Y0127747D01*
X0131019Y0129213D01*
X0131019Y0130799D01*
X0131626Y0132265D01*
X0132197Y0132836D01*
X0132293Y0133069D01*
X0136043Y0136819D01*
X0136943Y0137719D01*
X0138119Y0138206D01*
X0146180Y0138206D01*
X0149306Y0141331D01*
X0149306Y0156180D01*
X0143193Y0162293D01*
X0142293Y0163193D01*
X0141806Y0164369D01*
X0141806Y0169930D01*
X0139443Y0172293D01*
X0138543Y0173193D01*
X0138056Y0174369D01*
X0138056Y0178142D01*
X0138543Y0179319D01*
X0141019Y0181794D01*
X0141019Y0182049D01*
X0141626Y0183515D01*
X0142747Y0184636D01*
X0144213Y0185243D01*
X0145799Y0185243D01*
X0147265Y0184636D01*
X0148386Y0183515D01*
X0148993Y0182049D01*
X0148993Y0180463D01*
X0148386Y0178997D01*
X0148145Y0178756D01*
X0148386Y0178515D01*
X0148993Y0177049D01*
X0148993Y0176794D01*
X0150219Y0175569D01*
X0150706Y0174392D01*
X0150706Y0167581D01*
X0157719Y0160569D01*
X0158206Y0159392D01*
X0158206Y0138119D01*
X0157719Y0136943D01*
X0156819Y0136043D01*
X0150569Y0129793D01*
X0149853Y0129497D02*
X0186975Y0129497D01*
X0186110Y0130695D02*
X0151471Y0130695D01*
X0152669Y0131894D02*
X0185706Y0131894D01*
X0185706Y0133092D02*
X0153868Y0133092D01*
X0155066Y0134291D02*
X0186099Y0134291D01*
X0186949Y0135489D02*
X0156265Y0135489D01*
X0157463Y0136688D02*
X0189027Y0136688D01*
X0189575Y0138306D02*
X0192106Y0138306D01*
X0192106Y0142106D01*
X0185717Y0142106D01*
X0185809Y0141522D01*
X0186014Y0140894D01*
X0186314Y0140305D01*
X0186702Y0139770D01*
X0187170Y0139302D01*
X0187705Y0138914D01*
X0188294Y0138614D01*
X0188922Y0138409D01*
X0189575Y0138306D01*
X0187469Y0139085D02*
X0158206Y0139085D01*
X0158206Y0140283D02*
X0186329Y0140283D01*
X0185823Y0141482D02*
X0158206Y0141482D01*
X0158206Y0142680D02*
X0192106Y0142680D01*
X0192106Y0141482D02*
X0192906Y0141482D01*
X0192906Y0140283D02*
X0192106Y0140283D01*
X0192106Y0139085D02*
X0192906Y0139085D01*
X0195506Y0137886D02*
X0158109Y0137886D01*
X0155006Y0138756D02*
X0155006Y0158756D01*
X0147506Y0166256D01*
X0147506Y0173756D01*
X0145006Y0176256D01*
X0141256Y0177506D02*
X0145006Y0181256D01*
X0141094Y0182231D02*
X0129521Y0182231D01*
X0129559Y0182270D02*
X0129092Y0181802D01*
X0128557Y0181414D01*
X0127968Y0181114D01*
X0127339Y0180909D01*
X0126686Y0180806D01*
X0124156Y0180806D01*
X0124156Y0184606D01*
X0124156Y0185406D01*
X0123356Y0185406D01*
X0123356Y0189206D01*
X0120825Y0189206D01*
X0120172Y0189102D01*
X0119544Y0188898D01*
X0118955Y0188598D01*
X0118420Y0188209D01*
X0117952Y0187742D01*
X0117564Y0187207D01*
X0117264Y0186618D01*
X0117059Y0185989D01*
X0116967Y0185406D01*
X0123356Y0185406D01*
X0123356Y0184606D01*
X0124156Y0184606D01*
X0130545Y0184606D01*
X0130452Y0184022D01*
X0130248Y0183394D01*
X0129948Y0182805D01*
X0129559Y0182270D01*
X0130260Y0183430D02*
X0141590Y0183430D01*
X0142739Y0184628D02*
X0124156Y0184628D01*
X0124156Y0185406D02*
X0130545Y0185406D01*
X0130452Y0185989D01*
X0130248Y0186618D01*
X0129948Y0187207D01*
X0129559Y0187742D01*
X0129092Y0188209D01*
X0128557Y0188598D01*
X0127968Y0188898D01*
X0127339Y0189102D01*
X0126686Y0189206D01*
X0124156Y0189206D01*
X0124156Y0185406D01*
X0124156Y0185827D02*
X0123356Y0185827D01*
X0123356Y0187025D02*
X0124156Y0187025D01*
X0124156Y0188224D02*
X0123356Y0188224D01*
X0123356Y0184628D02*
X0106881Y0184628D01*
X0106881Y0183430D02*
X0117252Y0183430D01*
X0117264Y0183394D02*
X0117564Y0182805D01*
X0117952Y0182270D01*
X0118420Y0181802D01*
X0118955Y0181414D01*
X0119544Y0181114D01*
X0120172Y0180909D01*
X0120825Y0180806D01*
X0123356Y0180806D01*
X0123356Y0184606D01*
X0116967Y0184606D01*
X0117059Y0184022D01*
X0117264Y0183394D01*
X0117991Y0182231D02*
X0106881Y0182231D01*
X0106881Y0181033D02*
X0119793Y0181033D01*
X0120320Y0179206D02*
X0118777Y0178566D01*
X0117595Y0177385D01*
X0116956Y0175841D01*
X0116956Y0174170D01*
X0117595Y0172627D01*
X0118777Y0171445D01*
X0120320Y0170806D01*
X0127191Y0170806D01*
X0128735Y0171445D01*
X0129916Y0172627D01*
X0130556Y0174170D01*
X0130556Y0175841D01*
X0129916Y0177385D01*
X0128735Y0178566D01*
X0127191Y0179206D01*
X0120320Y0179206D01*
X0118944Y0178636D02*
X0106881Y0178636D01*
X0106881Y0179834D02*
X0139059Y0179834D01*
X0138260Y0178636D02*
X0128568Y0178636D01*
X0129864Y0177437D02*
X0138056Y0177437D01*
X0138056Y0176239D02*
X0130391Y0176239D01*
X0130556Y0175040D02*
X0138056Y0175040D01*
X0138275Y0173842D02*
X0130420Y0173842D01*
X0129923Y0172643D02*
X0139093Y0172643D01*
X0140292Y0171445D02*
X0128733Y0171445D01*
X0118779Y0171445D02*
X0106881Y0171445D01*
X0106881Y0172643D02*
X0117589Y0172643D01*
X0117092Y0173842D02*
X0106881Y0173842D01*
X0106881Y0175040D02*
X0116956Y0175040D01*
X0117120Y0176239D02*
X0106881Y0176239D01*
X0106881Y0177437D02*
X0117647Y0177437D01*
X0123356Y0181033D02*
X0124156Y0181033D01*
X0124156Y0182231D02*
X0123356Y0182231D01*
X0123356Y0183430D02*
X0124156Y0183430D01*
X0127719Y0181033D02*
X0140257Y0181033D01*
X0141256Y0177506D02*
X0141256Y0175006D01*
X0145006Y0171256D01*
X0145006Y0165006D01*
X0152506Y0157506D01*
X0152506Y0140006D01*
X0147506Y0135006D01*
X0138756Y0135006D01*
X0135006Y0131256D01*
X0135006Y0130006D01*
X0132317Y0133092D02*
X0106881Y0133092D01*
X0106881Y0131894D02*
X0131472Y0131894D01*
X0131019Y0130695D02*
X0106881Y0130695D01*
X0106881Y0129497D02*
X0131019Y0129497D01*
X0131397Y0128298D02*
X0106881Y0128298D01*
X0106881Y0127100D02*
X0132273Y0127100D01*
X0138756Y0130006D02*
X0141256Y0132506D01*
X0148756Y0132506D01*
X0155006Y0138756D01*
X0158206Y0143879D02*
X0185936Y0143879D01*
X0186583Y0145077D02*
X0171583Y0145077D01*
X0171362Y0144856D02*
X0172656Y0146150D01*
X0173356Y0147841D01*
X0173356Y0156546D01*
X0172656Y0158237D01*
X0171362Y0159531D01*
X0169671Y0160231D01*
X0167841Y0160231D01*
X0166150Y0159531D01*
X0164856Y0158237D01*
X0164156Y0156546D01*
X0164156Y0147841D01*
X0164856Y0146150D01*
X0166150Y0144856D01*
X0167841Y0144156D01*
X0169671Y0144156D01*
X0171362Y0144856D01*
X0172708Y0146276D02*
X0188053Y0146276D01*
X0192106Y0146276D02*
X0192906Y0146276D01*
X0192906Y0145077D02*
X0192106Y0145077D01*
X0192106Y0143879D02*
X0192906Y0143879D01*
X0195506Y0147474D02*
X0173204Y0147474D01*
X0173356Y0148673D02*
X0195506Y0148673D01*
X0195506Y0149871D02*
X0173356Y0149871D01*
X0173356Y0151070D02*
X0195191Y0151070D01*
X0193480Y0152268D02*
X0173356Y0152268D01*
X0173356Y0153467D02*
X0193115Y0153467D01*
X0193115Y0154665D02*
X0173356Y0154665D01*
X0173356Y0155864D02*
X0193115Y0155864D01*
X0193115Y0157062D02*
X0173142Y0157062D01*
X0172631Y0158261D02*
X0193115Y0158261D01*
X0193115Y0159459D02*
X0171433Y0159459D01*
X0166079Y0159459D02*
X0158178Y0159459D01*
X0158206Y0158261D02*
X0164881Y0158261D01*
X0164370Y0157062D02*
X0158206Y0157062D01*
X0158206Y0155864D02*
X0164156Y0155864D01*
X0164156Y0154665D02*
X0158206Y0154665D01*
X0158206Y0153467D02*
X0164156Y0153467D01*
X0164156Y0152268D02*
X0158206Y0152268D01*
X0158206Y0151070D02*
X0164156Y0151070D01*
X0164156Y0149871D02*
X0158206Y0149871D01*
X0158206Y0148673D02*
X0164156Y0148673D01*
X0164308Y0147474D02*
X0158206Y0147474D01*
X0158206Y0146276D02*
X0164804Y0146276D01*
X0165929Y0145077D02*
X0158206Y0145077D01*
X0149306Y0145077D02*
X0116781Y0145077D01*
X0116781Y0143879D02*
X0149306Y0143879D01*
X0149306Y0142680D02*
X0116781Y0142680D01*
X0116781Y0142269D02*
X0116781Y0150006D01*
X0116787Y0153187D01*
X0116923Y0153324D01*
X0117378Y0154422D01*
X0117378Y0155610D01*
X0116923Y0156708D01*
X0116083Y0157548D01*
X0114985Y0158003D01*
X0113797Y0158003D01*
X0112699Y0157548D01*
X0111858Y0156708D01*
X0111403Y0155610D01*
X0111403Y0154422D01*
X0111858Y0153324D01*
X0111987Y0153194D01*
X0111982Y0150486D01*
X0111981Y0150483D01*
X0111981Y0150009D01*
X0111980Y0149533D01*
X0111981Y0149531D01*
X0111981Y0142269D01*
X0111848Y0142136D01*
X0111394Y0141038D01*
X0111394Y0139850D01*
X0111848Y0138752D01*
X0112689Y0137911D01*
X0113787Y0137456D01*
X0114975Y0137456D01*
X0116073Y0137911D01*
X0116913Y0138752D01*
X0117368Y0139850D01*
X0117368Y0141038D01*
X0116913Y0142136D01*
X0116781Y0142269D01*
X0117185Y0141482D02*
X0149306Y0141482D01*
X0148258Y0140283D02*
X0117368Y0140283D01*
X0117051Y0139085D02*
X0147059Y0139085D01*
X0149306Y0146276D02*
X0116781Y0146276D01*
X0116781Y0147474D02*
X0149306Y0147474D01*
X0149306Y0148673D02*
X0116781Y0148673D01*
X0116781Y0149871D02*
X0149306Y0149871D01*
X0149306Y0151070D02*
X0116783Y0151070D01*
X0116785Y0152268D02*
X0149306Y0152268D01*
X0149306Y0153467D02*
X0116983Y0153467D01*
X0117378Y0154665D02*
X0149306Y0154665D01*
X0149306Y0155864D02*
X0117273Y0155864D01*
X0116569Y0157062D02*
X0148424Y0157062D01*
X0147225Y0158261D02*
X0106881Y0158261D01*
X0106881Y0159459D02*
X0146027Y0159459D01*
X0144828Y0160658D02*
X0106881Y0160658D01*
X0106881Y0161856D02*
X0143630Y0161856D01*
X0142431Y0163055D02*
X0106881Y0163055D01*
X0106881Y0164253D02*
X0141854Y0164253D01*
X0141806Y0165452D02*
X0106881Y0165452D01*
X0106881Y0166650D02*
X0141806Y0166650D01*
X0141806Y0167849D02*
X0106881Y0167849D01*
X0106881Y0169047D02*
X0141806Y0169047D01*
X0141490Y0170246D02*
X0106881Y0170246D01*
X0106881Y0157062D02*
X0112213Y0157062D01*
X0111509Y0155864D02*
X0106881Y0155864D01*
X0106881Y0154665D02*
X0111403Y0154665D01*
X0111799Y0153467D02*
X0106881Y0153467D01*
X0106881Y0152268D02*
X0111985Y0152268D01*
X0111983Y0151070D02*
X0106881Y0151070D01*
X0106881Y0149871D02*
X0111981Y0149871D01*
X0111981Y0148673D02*
X0106881Y0148673D01*
X0106881Y0147474D02*
X0111981Y0147474D01*
X0111981Y0146276D02*
X0106881Y0146276D01*
X0106881Y0145077D02*
X0111981Y0145077D01*
X0111981Y0143879D02*
X0106881Y0143879D01*
X0106881Y0142680D02*
X0111981Y0142680D01*
X0111577Y0141482D02*
X0106881Y0141482D01*
X0106881Y0140283D02*
X0111394Y0140283D01*
X0111710Y0139085D02*
X0106881Y0139085D01*
X0106881Y0137886D02*
X0112749Y0137886D01*
X0116013Y0137886D02*
X0137348Y0137886D01*
X0135912Y0136688D02*
X0106881Y0136688D01*
X0106881Y0135489D02*
X0134714Y0135489D01*
X0133515Y0134291D02*
X0106881Y0134291D01*
X0106881Y0125901D02*
X0195506Y0125901D01*
X0195506Y0124703D02*
X0106881Y0124703D01*
X0106881Y0123504D02*
X0195506Y0123504D01*
X0195506Y0122306D02*
X0163181Y0122306D01*
X0164033Y0121107D02*
X0195506Y0121107D01*
X0195506Y0119909D02*
X0164243Y0119909D01*
X0164056Y0118710D02*
X0195506Y0118710D01*
X0195506Y0117512D02*
X0164056Y0117512D01*
X0164243Y0116313D02*
X0195506Y0116313D01*
X0195506Y0115114D02*
X0164056Y0115114D01*
X0164056Y0113916D02*
X0195506Y0113916D01*
X0195506Y0112717D02*
X0163887Y0112717D01*
X0163053Y0111519D02*
X0195506Y0111519D01*
X0195506Y0110320D02*
X0161854Y0110320D01*
X0160656Y0109122D02*
X0195506Y0109122D01*
X0195506Y0107923D02*
X0159457Y0107923D01*
X0158259Y0106725D02*
X0195506Y0106725D01*
X0195506Y0105526D02*
X0157060Y0105526D01*
X0155861Y0104328D02*
X0195506Y0104328D01*
X0195506Y0103129D02*
X0154663Y0103129D01*
X0153464Y0101931D02*
X0195506Y0101931D01*
X0195506Y0100732D02*
X0152359Y0100732D01*
X0152359Y0099534D02*
X0195506Y0099534D01*
X0195506Y0098335D02*
X0152064Y0098335D01*
X0152359Y0097137D02*
X0195506Y0097137D01*
X0195506Y0127100D02*
X0141489Y0127100D01*
X0142364Y0128298D02*
X0195506Y0128298D01*
X0193115Y0160658D02*
X0157629Y0160658D01*
X0156431Y0161856D02*
X0193115Y0161856D01*
X0193115Y0163055D02*
X0155232Y0163055D01*
X0154034Y0164253D02*
X0193115Y0164253D01*
X0193115Y0165452D02*
X0152835Y0165452D01*
X0151637Y0166650D02*
X0193115Y0166650D01*
X0193115Y0167849D02*
X0150706Y0167849D01*
X0150706Y0169047D02*
X0193115Y0169047D01*
X0193115Y0170246D02*
X0150706Y0170246D01*
X0150706Y0171445D02*
X0193115Y0171445D01*
X0193115Y0172643D02*
X0150706Y0172643D01*
X0150706Y0173842D02*
X0193115Y0173842D01*
X0193115Y0175040D02*
X0150438Y0175040D01*
X0149549Y0176239D02*
X0193115Y0176239D01*
X0193115Y0177437D02*
X0148833Y0177437D01*
X0148265Y0178636D02*
X0193115Y0178636D01*
X0193115Y0179834D02*
X0148733Y0179834D01*
X0148993Y0181033D02*
X0193115Y0181033D01*
X0193115Y0182231D02*
X0148918Y0182231D01*
X0148421Y0183430D02*
X0193115Y0183430D01*
X0193115Y0184628D02*
X0147273Y0184628D01*
X0130478Y0185827D02*
X0193115Y0185827D01*
X0193182Y0187025D02*
X0130041Y0187025D01*
X0129072Y0188224D02*
X0193917Y0188224D01*
X0195506Y0189422D02*
X0106881Y0189422D01*
X0106881Y0188224D02*
X0118439Y0188224D01*
X0117471Y0187025D02*
X0106881Y0187025D01*
X0106881Y0185827D02*
X0117034Y0185827D01*
X0106881Y0190621D02*
X0195506Y0190621D01*
X0195506Y0191819D02*
X0106881Y0191819D01*
X0106881Y0193018D02*
X0195506Y0193018D01*
X0195506Y0194216D02*
X0106881Y0194216D01*
X0106881Y0195415D02*
X0195506Y0195415D01*
X0114090Y0105526D02*
X0106881Y0105526D01*
X0106881Y0104328D02*
X0114141Y0104328D01*
X0114724Y0071968D02*
X0106881Y0071968D01*
X0106881Y0070770D02*
X0114449Y0070770D01*
X0117506Y0064519D02*
X0118131Y0061256D01*
D19*
X0011256Y0011256D03*
X0011256Y0021256D03*
X0011256Y0031256D03*
X0021256Y0031256D03*
X0031256Y0031256D03*
X0031256Y0021256D03*
X0031256Y0011256D03*
X0021256Y0011256D03*
X0021256Y0021256D03*
X0021256Y0041256D03*
X0021256Y0051256D03*
X0031256Y0051256D03*
X0031256Y0041256D03*
X0041256Y0041256D03*
X0041256Y0051256D03*
X0051256Y0051256D03*
X0051256Y0041256D03*
X0061256Y0041256D03*
X0061256Y0051256D03*
X0071256Y0051256D03*
X0071256Y0041256D03*
X0081256Y0041256D03*
X0081256Y0051256D03*
X0091256Y0051256D03*
X0091256Y0041256D03*
X0101256Y0041256D03*
X0101256Y0051256D03*
X0101256Y0061256D03*
X0101256Y0071256D03*
X0101256Y0081256D03*
X0101256Y0091256D03*
X0101256Y0101256D03*
X0101256Y0111256D03*
X0101256Y0121256D03*
X0101256Y0131256D03*
X0101256Y0141256D03*
X0101256Y0151256D03*
X0101256Y0161256D03*
X0101256Y0171256D03*
X0101256Y0181256D03*
X0101256Y0191256D03*
X0091256Y0191256D03*
X0091256Y0181256D03*
X0081256Y0181256D03*
X0081256Y0191256D03*
X0071256Y0191256D03*
X0071256Y0181256D03*
X0061256Y0181256D03*
X0061256Y0191256D03*
X0051256Y0191256D03*
X0051256Y0181256D03*
X0041256Y0181256D03*
X0041256Y0191256D03*
X0031256Y0191256D03*
X0031256Y0181256D03*
X0021256Y0181256D03*
X0021256Y0191256D03*
X0011256Y0191256D03*
X0011256Y0181256D03*
X0011256Y0171256D03*
X0021256Y0171256D03*
X0031256Y0171256D03*
X0031256Y0161256D03*
X0021256Y0161256D03*
X0011256Y0161256D03*
X0011256Y0151256D03*
X0021256Y0151256D03*
X0031256Y0151256D03*
X0031256Y0141256D03*
X0021256Y0141256D03*
X0011256Y0141256D03*
X0011256Y0131256D03*
X0021256Y0131256D03*
X0031256Y0131256D03*
X0031256Y0121256D03*
X0021256Y0121256D03*
X0011256Y0121256D03*
X0011256Y0111256D03*
X0021256Y0111256D03*
X0031256Y0111256D03*
X0031256Y0101256D03*
X0021256Y0101256D03*
X0011256Y0101256D03*
X0011256Y0091256D03*
X0021256Y0091256D03*
X0031256Y0091256D03*
X0031256Y0081256D03*
X0021256Y0081256D03*
X0011256Y0081256D03*
X0011256Y0071256D03*
X0021256Y0071256D03*
X0031256Y0071256D03*
X0031256Y0061256D03*
X0021256Y0061256D03*
X0011256Y0061256D03*
X0011256Y0051256D03*
X0011256Y0041256D03*
X0041256Y0031256D03*
X0051256Y0031256D03*
X0051256Y0021256D03*
X0051256Y0011256D03*
X0041256Y0011256D03*
X0041256Y0021256D03*
X0061256Y0021256D03*
X0061256Y0031256D03*
X0071256Y0031256D03*
X0071256Y0021256D03*
X0071256Y0011256D03*
X0061256Y0011256D03*
X0081256Y0011256D03*
X0081256Y0021256D03*
X0081256Y0031256D03*
X0091256Y0031256D03*
X0091256Y0021256D03*
X0091256Y0011256D03*
X0101256Y0011256D03*
X0101256Y0021256D03*
X0101256Y0031256D03*
X0091256Y0061256D03*
X0091256Y0071256D03*
X0081256Y0071256D03*
X0081256Y0061256D03*
X0071256Y0061256D03*
X0071256Y0071256D03*
X0061256Y0071256D03*
X0061256Y0061256D03*
X0051256Y0061256D03*
X0051256Y0071256D03*
X0041256Y0071256D03*
X0041256Y0061256D03*
X0041256Y0081256D03*
X0041256Y0091256D03*
X0051256Y0091256D03*
X0051256Y0081256D03*
X0061256Y0081256D03*
X0061256Y0091256D03*
X0071256Y0091256D03*
X0071256Y0081256D03*
X0081256Y0081256D03*
X0081256Y0091256D03*
X0091256Y0091256D03*
X0091256Y0081256D03*
X0091256Y0101256D03*
X0091256Y0111256D03*
X0081256Y0111256D03*
X0081256Y0101256D03*
X0071256Y0101256D03*
X0071256Y0111256D03*
X0061256Y0111256D03*
X0061256Y0101256D03*
X0051256Y0101256D03*
X0051256Y0111256D03*
X0041256Y0111256D03*
X0041256Y0101256D03*
X0041256Y0121256D03*
X0041256Y0131256D03*
X0051256Y0131256D03*
X0051256Y0121256D03*
X0061256Y0121256D03*
X0061256Y0131256D03*
X0071256Y0131256D03*
X0071256Y0121256D03*
X0081256Y0121256D03*
X0081256Y0131256D03*
X0091256Y0131256D03*
X0091256Y0121256D03*
X0091256Y0141256D03*
X0091256Y0151256D03*
X0081256Y0151256D03*
X0081256Y0141256D03*
X0071256Y0141256D03*
X0071256Y0151256D03*
X0061256Y0151256D03*
X0061256Y0141256D03*
X0051256Y0141256D03*
X0051256Y0151256D03*
X0041256Y0151256D03*
X0041256Y0141256D03*
X0041256Y0161256D03*
X0041256Y0171256D03*
X0051256Y0171256D03*
X0051256Y0161256D03*
X0061256Y0161256D03*
X0061256Y0171256D03*
X0071256Y0171256D03*
X0071256Y0161256D03*
X0081256Y0161256D03*
X0081256Y0171256D03*
X0091256Y0171256D03*
X0091256Y0161256D03*
D20*
X0101256Y0161256D02*
X0109381Y0161256D01*
X0101256Y0171256D02*
X0101256Y0181256D01*
X0111256Y0191256D02*
X0011256Y0191256D01*
X0011256Y0011256D01*
X0091256Y0011256D02*
X0091256Y0021256D01*
X0101256Y0021256D01*
X0101256Y0131256D02*
X0101256Y0151256D01*
D21*
X0143756Y0101807D02*
X0149381Y0101807D01*
X0161256Y0113682D01*
X0161256Y0116256D01*
X0157506Y0120006D01*
X0161256Y0120006D01*
X0161256Y0116256D01*
X0145006Y0091256D02*
X0144381Y0090631D01*
X0144381Y0086743D01*
X0150006Y0086743D01*
X0139381Y0086743D02*
X0134381Y0086743D01*
X0134381Y0090631D01*
X0133756Y0091256D01*
X0130006Y0091256D02*
X0130006Y0080006D01*
X0145631Y0070631D02*
X0148131Y0068131D01*
X0152506Y0068131D01*
X0156256Y0068131D01*
X0156881Y0068131D01*
X0157506Y0068131D01*
X0161256Y0064381D01*
X0161256Y0060631D01*
X0156881Y0068131D02*
X0155631Y0068756D01*
X0155631Y0069519D01*
X0155631Y0068756D02*
X0156256Y0068131D01*
X0156256Y0068894D02*
X0155631Y0068756D01*
D22*
X0115006Y0051256D02*
X0115006Y0032506D01*
X0115006Y0051256D02*
X0113756Y0052506D01*
D23*
X0113756Y0052506D03*
D24*
X0168756Y0148756D02*
X0168756Y0151881D01*
X0168756Y0155631D01*
D25*
X0114391Y0155016D02*
X0114381Y0150006D01*
X0114381Y0140444D01*
M02*
