G75*
%MOIN*%
%OFA0B0*%
%FSLAX25Y25*%
%IPPOS*%
%LPD*%
%AMOC8*
5,1,8,0,0,1.08239X$1,22.5*
%
%ADD10C,0.00000*%
%ADD11C,0.00500*%
%ADD12C,0.00276*%
%ADD13R,0.00788X0.01575*%
%ADD14C,0.00787*%
D10*
X0001256Y0001256D02*
X0001256Y0198106D01*
X0198106Y0198106D01*
X0198106Y0001256D01*
X0001256Y0001256D01*
X0195715Y0153667D02*
X0195715Y0186344D01*
D11*
X0189880Y0176633D02*
X0188880Y0176633D01*
X0188379Y0176133D01*
X0188880Y0175132D02*
X0188379Y0174632D01*
X0188379Y0174131D01*
X0188880Y0173631D01*
X0189880Y0173631D01*
X0190381Y0174131D01*
X0189880Y0175132D02*
X0188880Y0175132D01*
X0189880Y0175132D02*
X0190381Y0175633D01*
X0190381Y0176133D01*
X0189880Y0176633D01*
X0187158Y0176633D02*
X0187158Y0173631D01*
X0185156Y0173631D01*
X0183935Y0173631D02*
X0183935Y0176633D01*
X0182434Y0176633D01*
X0181934Y0176133D01*
X0181934Y0175132D01*
X0182434Y0174632D01*
X0183935Y0174632D01*
X0182935Y0174632D02*
X0181934Y0173631D01*
X0180713Y0173631D02*
X0179712Y0173631D01*
X0180212Y0173631D02*
X0180212Y0176633D01*
X0179712Y0176633D02*
X0180713Y0176633D01*
X0178564Y0175633D02*
X0177563Y0176633D01*
X0176562Y0175633D01*
X0176562Y0173631D01*
X0175341Y0173631D02*
X0173340Y0173631D01*
X0172119Y0175132D02*
X0170117Y0175132D01*
X0168896Y0173631D02*
X0167395Y0173631D01*
X0166894Y0174131D01*
X0166894Y0176133D01*
X0167395Y0176633D01*
X0168896Y0176633D01*
X0168896Y0173631D01*
X0167822Y0171383D02*
X0165820Y0171383D01*
X0166320Y0170383D02*
X0165820Y0169882D01*
X0165820Y0168881D01*
X0166320Y0168381D01*
X0167321Y0168381D01*
X0167822Y0168881D01*
X0167822Y0169882D02*
X0166821Y0170383D01*
X0166320Y0170383D01*
X0167822Y0169882D02*
X0167822Y0171383D01*
X0170044Y0171383D02*
X0170044Y0168381D01*
X0171044Y0168381D02*
X0169043Y0168381D01*
X0171044Y0170383D02*
X0170044Y0171383D01*
X0172265Y0170883D02*
X0172265Y0168881D01*
X0172766Y0168381D01*
X0173767Y0168381D01*
X0174267Y0168881D01*
X0172265Y0170883D01*
X0172766Y0171383D01*
X0173767Y0171383D01*
X0174267Y0170883D01*
X0174267Y0168881D01*
X0175488Y0168381D02*
X0177490Y0168381D01*
X0175488Y0170383D01*
X0175488Y0170883D01*
X0175989Y0171383D01*
X0176989Y0171383D01*
X0177490Y0170883D01*
X0178711Y0171383D02*
X0178711Y0168381D01*
X0179712Y0169382D01*
X0180713Y0168381D01*
X0180713Y0171383D01*
X0181934Y0171383D02*
X0181934Y0168381D01*
X0181934Y0169882D02*
X0183935Y0169882D01*
X0185156Y0169882D02*
X0185657Y0169382D01*
X0187158Y0169382D01*
X0186157Y0169382D02*
X0185156Y0168381D01*
X0183935Y0168381D02*
X0183935Y0171383D01*
X0185156Y0170883D02*
X0185156Y0169882D01*
X0185156Y0170883D02*
X0185657Y0171383D01*
X0187158Y0171383D01*
X0187158Y0168381D01*
X0188379Y0168381D02*
X0188379Y0171383D01*
X0189380Y0170383D01*
X0190381Y0171383D01*
X0190381Y0168381D01*
X0187158Y0175132D02*
X0186157Y0175132D01*
X0185156Y0176633D02*
X0187158Y0176633D01*
X0178564Y0175633D02*
X0178564Y0173631D01*
X0178564Y0175132D02*
X0176562Y0175132D01*
X0175341Y0176633D02*
X0175341Y0173631D01*
X0165673Y0173631D02*
X0163671Y0173631D01*
X0162450Y0174632D02*
X0161450Y0173631D01*
X0160449Y0174632D01*
X0160449Y0176633D01*
X0162450Y0176633D02*
X0162450Y0174632D01*
X0164672Y0175132D02*
X0165673Y0175132D01*
X0165673Y0176633D02*
X0165673Y0173631D01*
X0165673Y0176633D02*
X0163671Y0176633D01*
X0156005Y0175633D02*
X0155004Y0176633D01*
X0155004Y0173631D01*
X0156005Y0173631D02*
X0154003Y0173631D01*
X0152782Y0173631D02*
X0152782Y0175633D01*
X0151781Y0176633D01*
X0150780Y0175633D01*
X0150780Y0173631D01*
X0150780Y0175132D02*
X0152782Y0175132D01*
X0109133Y0126828D02*
X0107131Y0124826D01*
X0107131Y0126828D01*
X0109133Y0126828D02*
X0109133Y0124826D01*
X0108632Y0123605D02*
X0108632Y0121604D01*
X0107131Y0121604D02*
X0110133Y0121604D01*
X0110133Y0120383D02*
X0109133Y0119382D01*
X0110133Y0118381D01*
X0107131Y0118381D01*
X0107131Y0120383D02*
X0110133Y0120383D01*
X0112381Y0120383D02*
X0112381Y0118381D01*
X0112381Y0119382D02*
X0115383Y0119382D01*
X0114383Y0118381D01*
X0114883Y0115578D02*
X0112881Y0115578D01*
X0112381Y0115078D01*
X0112381Y0113576D01*
X0115383Y0113576D01*
X0115383Y0115078D01*
X0114883Y0115578D01*
X0115383Y0112355D02*
X0112381Y0110354D01*
X0112381Y0112355D02*
X0115383Y0110354D01*
X0115383Y0109133D02*
X0115383Y0107131D01*
X0115383Y0108132D02*
X0112381Y0108132D01*
X0110133Y0108132D02*
X0107131Y0108132D01*
X0107631Y0110354D02*
X0107131Y0110854D01*
X0107131Y0111855D01*
X0107631Y0112355D01*
X0107131Y0113576D02*
X0110133Y0113576D01*
X0109633Y0112355D02*
X0110133Y0111855D01*
X0110133Y0110854D01*
X0109633Y0110354D01*
X0107631Y0110354D01*
X0110133Y0109133D02*
X0110133Y0107131D01*
X0110133Y0104577D02*
X0110133Y0103576D01*
X0110133Y0104077D02*
X0107131Y0104077D01*
X0107131Y0104577D02*
X0107131Y0103576D01*
X0107631Y0102355D02*
X0107131Y0101855D01*
X0107131Y0100354D01*
X0110133Y0100354D01*
X0110133Y0101855D01*
X0109633Y0102355D01*
X0107631Y0102355D01*
X0110133Y0099133D02*
X0110133Y0097131D01*
X0110133Y0098132D02*
X0107131Y0098132D01*
X0107631Y0095578D02*
X0107131Y0095078D01*
X0107131Y0094077D01*
X0107631Y0093576D01*
X0109633Y0093576D01*
X0110133Y0094077D01*
X0110133Y0095078D01*
X0109633Y0095578D01*
X0107631Y0095578D01*
X0107631Y0092355D02*
X0107131Y0091855D01*
X0107131Y0090354D01*
X0110133Y0090354D01*
X0110133Y0091855D01*
X0109633Y0092355D01*
X0107631Y0092355D01*
X0110133Y0089133D02*
X0110133Y0087131D01*
X0110133Y0088132D02*
X0107131Y0088132D01*
X0107631Y0085578D02*
X0107131Y0085078D01*
X0107131Y0084077D01*
X0107631Y0083576D01*
X0108632Y0084077D02*
X0108632Y0085078D01*
X0108132Y0085578D01*
X0107631Y0085578D01*
X0108632Y0084077D02*
X0109133Y0083576D01*
X0109633Y0083576D01*
X0110133Y0084077D01*
X0110133Y0085078D01*
X0109633Y0085578D01*
X0112381Y0085078D02*
X0112381Y0084077D01*
X0112881Y0083576D01*
X0113882Y0084077D02*
X0113882Y0085078D01*
X0113382Y0085578D01*
X0112881Y0085578D01*
X0112381Y0085078D01*
X0113882Y0084077D02*
X0114383Y0083576D01*
X0114883Y0083576D01*
X0115383Y0084077D01*
X0115383Y0085078D01*
X0114883Y0085578D01*
X0115383Y0087131D02*
X0115383Y0088632D01*
X0114883Y0089133D01*
X0113882Y0089133D01*
X0113382Y0088632D01*
X0113382Y0087131D01*
X0113382Y0088132D02*
X0112381Y0089133D01*
X0112381Y0087131D02*
X0115383Y0087131D01*
X0116381Y0086881D02*
X0116381Y0096549D01*
X0115383Y0097131D02*
X0115383Y0098632D01*
X0114883Y0099133D01*
X0113882Y0099133D01*
X0113382Y0098632D01*
X0113382Y0097131D01*
X0113382Y0098132D02*
X0112381Y0099133D01*
X0112381Y0100354D02*
X0115383Y0102355D01*
X0115383Y0103576D02*
X0112381Y0103576D01*
X0112381Y0105078D01*
X0112881Y0105578D01*
X0114883Y0105578D01*
X0115383Y0105078D01*
X0115383Y0103576D01*
X0115383Y0100354D02*
X0112381Y0102355D01*
X0112381Y0097131D02*
X0115383Y0097131D01*
X0114883Y0095578D02*
X0115383Y0095078D01*
X0115383Y0094077D01*
X0114883Y0093576D01*
X0114383Y0093576D01*
X0113882Y0094077D01*
X0113882Y0095078D01*
X0113382Y0095578D01*
X0112881Y0095578D01*
X0112381Y0095078D01*
X0112381Y0094077D01*
X0112881Y0093576D01*
X0112381Y0091355D02*
X0115383Y0091355D01*
X0115383Y0092355D02*
X0115383Y0090354D01*
X0116381Y0086549D02*
X0116381Y0076881D01*
X0115383Y0077631D02*
X0115383Y0078632D01*
X0114883Y0079133D01*
X0115383Y0080354D02*
X0115383Y0082355D01*
X0115383Y0081355D02*
X0112381Y0081355D01*
X0112881Y0079133D02*
X0112381Y0078632D01*
X0112381Y0077631D01*
X0112881Y0077131D01*
X0114883Y0077131D01*
X0115383Y0077631D01*
X0110133Y0077131D02*
X0110133Y0079133D01*
X0110133Y0078132D02*
X0107131Y0078132D01*
X0107131Y0080354D02*
X0110133Y0080354D01*
X0109133Y0081355D01*
X0110133Y0082355D01*
X0107131Y0082355D01*
X0120250Y0065557D02*
X0120250Y0065056D01*
X0122252Y0063055D01*
X0122252Y0062554D01*
X0123473Y0063055D02*
X0123973Y0062554D01*
X0124974Y0062554D01*
X0125474Y0063055D01*
X0125474Y0065056D01*
X0124974Y0065557D01*
X0123973Y0065557D01*
X0123473Y0065056D01*
X0122252Y0065557D02*
X0120250Y0065557D01*
X0125883Y0069333D02*
X0126384Y0068833D01*
X0127385Y0068833D01*
X0127885Y0069333D01*
X0127885Y0069834D01*
X0127385Y0070334D01*
X0126384Y0070334D01*
X0125883Y0069834D01*
X0125883Y0069333D01*
X0126384Y0070334D02*
X0125883Y0070834D01*
X0125883Y0071335D01*
X0126384Y0071835D01*
X0127385Y0071835D01*
X0127885Y0071335D01*
X0127885Y0070834D01*
X0127385Y0070334D01*
X0129106Y0071335D02*
X0129607Y0071835D01*
X0130607Y0071835D01*
X0131108Y0071335D01*
X0131108Y0069333D01*
X0130607Y0068833D01*
X0129607Y0068833D01*
X0129106Y0069333D01*
X0133208Y0070557D02*
X0133208Y0071557D01*
X0133708Y0072058D01*
X0133208Y0073279D02*
X0133208Y0075281D01*
X0133208Y0074280D02*
X0136210Y0074280D01*
X0135209Y0073279D01*
X0135710Y0072058D02*
X0136210Y0071557D01*
X0136210Y0070557D01*
X0135710Y0070056D01*
X0133708Y0070056D01*
X0133208Y0070557D01*
X0136958Y0070557D02*
X0136958Y0071557D01*
X0137458Y0072058D01*
X0136958Y0073279D02*
X0136958Y0075281D01*
X0136958Y0074280D02*
X0139960Y0074280D01*
X0138959Y0073279D01*
X0139460Y0072058D02*
X0139960Y0071557D01*
X0139960Y0070557D01*
X0139460Y0070056D01*
X0137458Y0070056D01*
X0136958Y0070557D01*
X0140708Y0070557D02*
X0140708Y0071557D01*
X0141208Y0072058D01*
X0140708Y0073279D02*
X0140708Y0075281D01*
X0140708Y0074280D02*
X0143710Y0074280D01*
X0142709Y0073279D01*
X0143210Y0072058D02*
X0143710Y0071557D01*
X0143710Y0070557D01*
X0143210Y0070056D01*
X0141208Y0070056D01*
X0140708Y0070557D01*
X0139460Y0076502D02*
X0139960Y0077002D01*
X0139960Y0078003D01*
X0139460Y0078503D01*
X0138959Y0078503D01*
X0136958Y0076502D01*
X0136958Y0078503D01*
X0136210Y0077502D02*
X0133208Y0077502D01*
X0133208Y0076502D02*
X0133208Y0078503D01*
X0135209Y0076502D02*
X0136210Y0077502D01*
X0140708Y0078003D02*
X0143710Y0078003D01*
X0142209Y0076502D01*
X0142209Y0078503D01*
X0148208Y0078003D02*
X0148208Y0077002D01*
X0148708Y0076502D01*
X0148208Y0075281D02*
X0148208Y0073279D01*
X0148208Y0074280D02*
X0151210Y0074280D01*
X0150209Y0073279D01*
X0150710Y0072058D02*
X0151210Y0071557D01*
X0151210Y0070557D01*
X0150710Y0070056D01*
X0148708Y0070056D01*
X0148208Y0070557D01*
X0148208Y0071557D01*
X0148708Y0072058D01*
X0150710Y0076502D02*
X0151210Y0077002D01*
X0151210Y0078003D01*
X0150710Y0078503D01*
X0150209Y0078503D01*
X0149709Y0078003D01*
X0149209Y0078503D01*
X0148708Y0078503D01*
X0148208Y0078003D01*
X0149709Y0078003D02*
X0149709Y0077502D01*
X0158179Y0074261D02*
X0158179Y0073261D01*
X0158680Y0072760D01*
X0159680Y0073261D02*
X0159680Y0074762D01*
X0158680Y0074762D02*
X0160681Y0074762D01*
X0161182Y0074261D01*
X0161182Y0073261D01*
X0160681Y0072760D01*
X0160181Y0072760D01*
X0159680Y0073261D01*
X0158179Y0074261D02*
X0158680Y0074762D01*
X0158680Y0071539D02*
X0158179Y0071039D01*
X0158179Y0070038D01*
X0158680Y0069537D01*
X0160681Y0069537D01*
X0161182Y0070038D01*
X0161182Y0071039D01*
X0160681Y0071539D01*
X0166506Y0067453D02*
X0166506Y0065451D01*
X0166506Y0066452D02*
X0169508Y0066452D01*
X0168508Y0065451D01*
X0169008Y0064230D02*
X0169508Y0063730D01*
X0169508Y0062729D01*
X0169008Y0062229D01*
X0167006Y0062229D01*
X0166506Y0062729D01*
X0166506Y0063730D01*
X0167006Y0064230D01*
X0167006Y0061008D02*
X0166506Y0060507D01*
X0166506Y0059006D01*
X0169508Y0059006D01*
X0169508Y0060507D01*
X0169008Y0061008D01*
X0168508Y0061008D01*
X0168007Y0060507D01*
X0168007Y0059006D01*
X0168007Y0060507D02*
X0167507Y0061008D01*
X0167006Y0061008D01*
X0169008Y0057453D02*
X0167006Y0055451D01*
X0166506Y0055451D01*
X0167006Y0054230D02*
X0169008Y0054230D01*
X0169508Y0053730D01*
X0169508Y0052229D01*
X0166506Y0052229D01*
X0166506Y0053730D01*
X0167006Y0054230D01*
X0169508Y0055451D02*
X0169508Y0057453D01*
X0169008Y0057453D01*
X0169008Y0051008D02*
X0168508Y0051008D01*
X0168007Y0050507D01*
X0168007Y0049006D01*
X0166506Y0049006D02*
X0169508Y0049006D01*
X0169508Y0050507D01*
X0169008Y0051008D01*
X0168007Y0050507D02*
X0167507Y0051008D01*
X0167006Y0051008D01*
X0166506Y0050507D01*
X0166506Y0049006D01*
X0147432Y0060038D02*
X0146931Y0059537D01*
X0144930Y0059537D01*
X0144429Y0060038D01*
X0144429Y0061039D01*
X0144930Y0061539D01*
X0144930Y0062760D02*
X0144429Y0063261D01*
X0144429Y0064261D01*
X0144930Y0064762D01*
X0145430Y0064762D01*
X0145930Y0064261D01*
X0145930Y0062760D01*
X0144930Y0062760D01*
X0145930Y0062760D02*
X0146931Y0063761D01*
X0147432Y0064762D01*
X0146931Y0061539D02*
X0147432Y0061039D01*
X0147432Y0060038D01*
X0136807Y0060038D02*
X0136306Y0059537D01*
X0134305Y0059537D01*
X0133804Y0060038D01*
X0133804Y0061039D01*
X0134305Y0061539D01*
X0134305Y0062760D02*
X0133804Y0063261D01*
X0133804Y0064261D01*
X0134305Y0064762D01*
X0135305Y0064762D01*
X0135806Y0064261D01*
X0135806Y0063761D01*
X0135305Y0062760D01*
X0136807Y0062760D01*
X0136807Y0064762D01*
X0136306Y0061539D02*
X0136807Y0061039D01*
X0136807Y0060038D01*
X0157634Y0082583D02*
X0157634Y0085585D01*
X0159135Y0084084D01*
X0157133Y0084084D01*
X0160356Y0085085D02*
X0160857Y0085585D01*
X0161857Y0085585D01*
X0162358Y0085085D01*
X0162358Y0083083D01*
X0161857Y0082583D01*
X0160857Y0082583D01*
X0160356Y0083083D01*
X0166506Y0088381D02*
X0166506Y0089882D01*
X0167006Y0090383D01*
X0167507Y0090383D01*
X0168007Y0089882D01*
X0168007Y0088381D01*
X0166506Y0088381D02*
X0169508Y0088381D01*
X0169508Y0089882D01*
X0169008Y0090383D01*
X0168508Y0090383D01*
X0168007Y0089882D01*
X0169008Y0091604D02*
X0167006Y0091604D01*
X0166506Y0092104D01*
X0166506Y0093105D01*
X0167006Y0093605D01*
X0167006Y0094826D02*
X0166506Y0094826D01*
X0167006Y0094826D02*
X0169008Y0096828D01*
X0169508Y0096828D01*
X0169508Y0094826D01*
X0169008Y0093605D02*
X0169508Y0093105D01*
X0169508Y0092104D01*
X0169008Y0091604D01*
X0151195Y0105292D02*
X0148193Y0105292D01*
X0148193Y0107293D01*
X0148193Y0108514D02*
X0150195Y0110516D01*
X0150695Y0110516D01*
X0151195Y0110016D01*
X0151195Y0109015D01*
X0150695Y0108514D01*
X0148193Y0108514D02*
X0148193Y0110516D01*
X0144945Y0109515D02*
X0143945Y0108514D01*
X0144945Y0109515D02*
X0141943Y0109515D01*
X0141943Y0108514D02*
X0141943Y0110516D01*
X0141943Y0107293D02*
X0141943Y0105292D01*
X0144945Y0105292D01*
X0139849Y0101306D02*
X0139849Y0099305D01*
X0139349Y0098804D01*
X0138348Y0098804D01*
X0137848Y0099305D01*
X0136627Y0099305D02*
X0136126Y0098804D01*
X0135125Y0098804D01*
X0134625Y0099305D01*
X0134625Y0099805D01*
X0135125Y0100305D01*
X0135626Y0100305D01*
X0135125Y0100305D02*
X0134625Y0100806D01*
X0134625Y0101306D01*
X0135125Y0101807D01*
X0136126Y0101807D01*
X0136627Y0101306D01*
X0137848Y0101306D02*
X0138348Y0101807D01*
X0139349Y0101807D01*
X0139849Y0101306D01*
X0123057Y0103788D02*
X0122556Y0103287D01*
X0120555Y0103287D01*
X0120054Y0103788D01*
X0120054Y0104789D01*
X0120555Y0105289D01*
X0120054Y0106510D02*
X0120054Y0108512D01*
X0120054Y0107511D02*
X0123057Y0107511D01*
X0122056Y0106510D01*
X0122556Y0105289D02*
X0123057Y0104789D01*
X0123057Y0103788D01*
X0122556Y0109733D02*
X0120555Y0109733D01*
X0122556Y0111735D01*
X0120555Y0111735D01*
X0120054Y0111234D01*
X0120054Y0110233D01*
X0120555Y0109733D01*
X0122556Y0109733D02*
X0123057Y0110233D01*
X0123057Y0111234D01*
X0122556Y0111735D01*
X0114883Y0121604D02*
X0115383Y0122104D01*
X0115383Y0123105D01*
X0114883Y0123605D01*
X0114383Y0123605D01*
X0112381Y0121604D01*
X0112381Y0123605D01*
X0110133Y0123605D02*
X0107131Y0123605D01*
X0107131Y0115578D02*
X0108632Y0114077D01*
X0108132Y0113576D02*
X0110133Y0115578D01*
X0111131Y0064576D02*
X0111131Y0058131D01*
X0110133Y0058881D02*
X0109633Y0058381D01*
X0107631Y0058381D01*
X0107131Y0058881D01*
X0107131Y0059882D01*
X0107631Y0060383D01*
X0107631Y0061604D02*
X0107131Y0062104D01*
X0107131Y0063105D01*
X0107631Y0063605D01*
X0108132Y0063605D01*
X0108632Y0063105D01*
X0108632Y0062104D01*
X0109133Y0061604D01*
X0109633Y0061604D01*
X0110133Y0062104D01*
X0110133Y0063105D01*
X0109633Y0063605D01*
X0109633Y0060383D02*
X0110133Y0059882D01*
X0110133Y0058881D01*
X0110133Y0053230D02*
X0110133Y0052229D01*
X0110133Y0052729D02*
X0107131Y0052729D01*
X0107131Y0052229D02*
X0107131Y0053230D01*
X0107631Y0051008D02*
X0107131Y0050507D01*
X0107131Y0049006D01*
X0110133Y0049006D01*
X0110133Y0050507D01*
X0109633Y0051008D01*
X0107631Y0051008D01*
X0107631Y0044230D02*
X0107131Y0043730D01*
X0107131Y0042729D01*
X0107631Y0042229D01*
X0109633Y0042229D01*
X0110133Y0042729D01*
X0110133Y0043730D01*
X0109633Y0044230D01*
X0107631Y0044230D01*
X0107631Y0041008D02*
X0107131Y0040507D01*
X0107131Y0039006D01*
X0110133Y0039006D01*
X0110133Y0040507D01*
X0109633Y0041008D01*
X0107631Y0041008D01*
X0107131Y0036203D02*
X0108632Y0034702D01*
X0108132Y0034201D02*
X0110133Y0036203D01*
X0110133Y0034201D02*
X0107131Y0034201D01*
X0107631Y0032980D02*
X0107131Y0032480D01*
X0107131Y0031479D01*
X0107631Y0030979D01*
X0109633Y0030979D01*
X0110133Y0031479D01*
X0110133Y0032480D01*
X0109633Y0032980D01*
X0109633Y0029758D02*
X0110133Y0029257D01*
X0110133Y0028256D01*
X0109633Y0027756D01*
X0109133Y0027756D01*
X0108632Y0028256D01*
X0108632Y0029257D01*
X0108132Y0029758D01*
X0107631Y0029758D01*
X0107131Y0029257D01*
X0107131Y0028256D01*
X0107631Y0027756D01*
X0114126Y0015383D02*
X0115127Y0015383D01*
X0114627Y0015383D02*
X0114627Y0012381D01*
X0115127Y0012381D02*
X0114126Y0012381D01*
X0114200Y0010133D02*
X0116202Y0010133D01*
X0116202Y0007131D01*
X0117349Y0007131D02*
X0118350Y0007131D01*
X0117850Y0007131D02*
X0117850Y0010133D01*
X0118350Y0010133D02*
X0117349Y0010133D01*
X0116202Y0008632D02*
X0115201Y0008632D01*
X0112979Y0009633D02*
X0112979Y0007631D01*
X0112478Y0007131D01*
X0111477Y0007131D01*
X0110977Y0007631D01*
X0110977Y0009633D01*
X0111477Y0010133D01*
X0112478Y0010133D01*
X0112979Y0009633D01*
X0116849Y0013382D02*
X0116348Y0013882D01*
X0116348Y0014883D01*
X0116849Y0015383D01*
X0118350Y0015383D01*
X0118350Y0012381D01*
X0118350Y0013382D02*
X0116849Y0013382D01*
X0119571Y0013382D02*
X0120071Y0013882D01*
X0121072Y0013882D01*
X0121573Y0014383D01*
X0121573Y0014883D01*
X0121072Y0015383D01*
X0120071Y0015383D01*
X0119571Y0014883D01*
X0119571Y0013382D02*
X0119571Y0012881D01*
X0120071Y0012381D01*
X0121072Y0012381D01*
X0121573Y0012881D01*
X0121573Y0010133D02*
X0119571Y0010133D01*
X0120572Y0008632D02*
X0121573Y0008632D01*
X0121573Y0007131D02*
X0121573Y0010133D01*
X0126017Y0009633D02*
X0126517Y0010133D01*
X0127518Y0010133D01*
X0128018Y0009633D01*
X0128018Y0007631D01*
X0127518Y0007131D01*
X0126517Y0007131D01*
X0126017Y0007631D01*
X0126017Y0008632D01*
X0127017Y0008632D01*
X0129239Y0008632D02*
X0131241Y0008632D01*
X0131241Y0009133D02*
X0131241Y0007131D01*
X0131241Y0009133D02*
X0130240Y0010133D01*
X0129239Y0009133D01*
X0129239Y0007131D01*
X0133463Y0007131D02*
X0133463Y0010133D01*
X0134464Y0010133D02*
X0132462Y0010133D01*
X0132462Y0012381D02*
X0134464Y0012381D01*
X0132462Y0014383D01*
X0132462Y0014883D01*
X0132962Y0015383D01*
X0133963Y0015383D01*
X0134464Y0014883D01*
X0131241Y0014883D02*
X0131241Y0012881D01*
X0130741Y0012381D01*
X0129740Y0012381D01*
X0129239Y0012881D01*
X0128018Y0012381D02*
X0128018Y0015383D01*
X0129239Y0014883D02*
X0129740Y0015383D01*
X0130741Y0015383D01*
X0131241Y0014883D01*
X0128018Y0013882D02*
X0126017Y0013882D01*
X0126017Y0015383D02*
X0126017Y0012381D01*
X0135685Y0010133D02*
X0136686Y0010133D01*
X0136185Y0010133D02*
X0136185Y0007631D01*
X0136686Y0007131D01*
X0137186Y0007131D01*
X0137686Y0007631D01*
X0138908Y0012381D02*
X0138908Y0015383D01*
X0138908Y0013882D02*
X0140909Y0013882D01*
X0142130Y0014383D02*
X0142130Y0014883D01*
X0142631Y0015383D01*
X0143632Y0015383D01*
X0144132Y0014883D01*
X0145353Y0014883D02*
X0145353Y0014383D01*
X0145853Y0013882D01*
X0145353Y0013382D01*
X0145353Y0012881D01*
X0145853Y0012381D01*
X0146854Y0012381D01*
X0147355Y0012881D01*
X0148576Y0012381D02*
X0150577Y0012381D01*
X0148576Y0014383D01*
X0148576Y0014883D01*
X0149076Y0015383D01*
X0150077Y0015383D01*
X0150577Y0014883D01*
X0151799Y0014883D02*
X0152299Y0015383D01*
X0153300Y0015383D01*
X0153800Y0014883D01*
X0155021Y0015383D02*
X0157023Y0015383D01*
X0156022Y0015383D02*
X0156022Y0012381D01*
X0153800Y0012381D02*
X0151799Y0014383D01*
X0151799Y0014883D01*
X0151799Y0012381D02*
X0153800Y0012381D01*
X0153800Y0010133D02*
X0153800Y0007631D01*
X0153300Y0007131D01*
X0152299Y0007131D01*
X0151799Y0007631D01*
X0151799Y0010133D01*
X0150577Y0009133D02*
X0149577Y0010133D01*
X0148576Y0009133D01*
X0148576Y0007131D01*
X0147355Y0007131D02*
X0147355Y0010133D01*
X0145853Y0010133D01*
X0145353Y0009633D01*
X0145353Y0008632D01*
X0145853Y0008132D01*
X0147355Y0008132D01*
X0146354Y0008132D02*
X0145353Y0007131D01*
X0143131Y0007131D02*
X0143131Y0010133D01*
X0144132Y0010133D02*
X0142130Y0010133D01*
X0142130Y0012381D02*
X0144132Y0012381D01*
X0142130Y0014383D01*
X0140909Y0015383D02*
X0140909Y0012381D01*
X0145353Y0014883D02*
X0145853Y0015383D01*
X0146854Y0015383D01*
X0147355Y0014883D01*
X0146354Y0013882D02*
X0145853Y0013882D01*
X0150577Y0009133D02*
X0150577Y0007131D01*
X0150577Y0008632D02*
X0148576Y0008632D01*
X0158244Y0007631D02*
X0158744Y0007131D01*
X0159745Y0007131D01*
X0160246Y0007631D01*
X0160246Y0009633D01*
X0159745Y0010133D01*
X0158744Y0010133D01*
X0158244Y0009633D01*
X0160246Y0012381D02*
X0160246Y0015383D01*
X0158244Y0015383D01*
X0159245Y0013882D02*
X0160246Y0013882D01*
X0161967Y0010133D02*
X0162968Y0010133D01*
X0163468Y0009633D01*
X0164616Y0010133D02*
X0165617Y0010133D01*
X0165117Y0010133D02*
X0165117Y0007131D01*
X0165617Y0007131D02*
X0164616Y0007131D01*
X0163468Y0007131D02*
X0161467Y0009133D01*
X0161467Y0009633D01*
X0161967Y0010133D01*
X0161467Y0007131D02*
X0163468Y0007131D01*
X0166506Y0018381D02*
X0166506Y0019882D01*
X0167006Y0020383D01*
X0167507Y0020383D01*
X0168007Y0019882D01*
X0168007Y0018381D01*
X0166506Y0018381D02*
X0169508Y0018381D01*
X0169508Y0019882D01*
X0169008Y0020383D01*
X0168508Y0020383D01*
X0168007Y0019882D01*
X0166506Y0021604D02*
X0166506Y0023105D01*
X0167006Y0023605D01*
X0169008Y0023605D01*
X0169508Y0023105D01*
X0169508Y0021604D01*
X0166506Y0021604D01*
X0166506Y0024826D02*
X0166506Y0026828D01*
X0166506Y0025827D02*
X0169508Y0025827D01*
X0168508Y0024826D01*
X0190256Y0025327D02*
X0190756Y0024826D01*
X0192758Y0026828D01*
X0190756Y0026828D01*
X0190256Y0026328D01*
X0190256Y0025327D01*
X0190756Y0024826D02*
X0192758Y0024826D01*
X0193258Y0025327D01*
X0193258Y0026328D01*
X0192758Y0026828D01*
X0192758Y0023605D02*
X0190756Y0023605D01*
X0190256Y0023105D01*
X0190256Y0021604D01*
X0193258Y0021604D01*
X0193258Y0023105D01*
X0192758Y0023605D01*
X0192758Y0020383D02*
X0192258Y0020383D01*
X0191757Y0019882D01*
X0191757Y0018381D01*
X0190256Y0018381D02*
X0190256Y0019882D01*
X0190756Y0020383D01*
X0191257Y0020383D01*
X0191757Y0019882D01*
X0192758Y0020383D02*
X0193258Y0019882D01*
X0193258Y0018381D01*
X0190256Y0018381D01*
X0190256Y0048381D02*
X0190256Y0049882D01*
X0190756Y0050383D01*
X0191257Y0050383D01*
X0191757Y0049882D01*
X0191757Y0048381D01*
X0190256Y0048381D02*
X0193258Y0048381D01*
X0193258Y0049882D01*
X0192758Y0050383D01*
X0192258Y0050383D01*
X0191757Y0049882D01*
X0190256Y0051604D02*
X0190256Y0053105D01*
X0190756Y0053605D01*
X0192758Y0053605D01*
X0193258Y0053105D01*
X0193258Y0051604D01*
X0190256Y0051604D01*
X0190756Y0054826D02*
X0190256Y0055327D01*
X0190256Y0056328D01*
X0190756Y0056828D01*
X0191257Y0056828D01*
X0191757Y0056328D01*
X0191757Y0054826D01*
X0190756Y0054826D01*
X0191757Y0054826D02*
X0192758Y0055827D01*
X0193258Y0056828D01*
X0193258Y0058381D02*
X0190256Y0058381D01*
X0190256Y0059882D01*
X0190756Y0060383D01*
X0191257Y0060383D01*
X0191757Y0059882D01*
X0191757Y0058381D01*
X0191757Y0059882D02*
X0192258Y0060383D01*
X0192758Y0060383D01*
X0193258Y0059882D01*
X0193258Y0058381D01*
X0192758Y0061604D02*
X0190756Y0061604D01*
X0190256Y0062104D01*
X0190256Y0063105D01*
X0190756Y0063605D01*
X0190756Y0064826D02*
X0192758Y0066828D01*
X0190756Y0066828D01*
X0190256Y0066328D01*
X0190256Y0065327D01*
X0190756Y0064826D01*
X0192758Y0064826D01*
X0193258Y0065327D01*
X0193258Y0066328D01*
X0192758Y0066828D01*
X0192758Y0063605D02*
X0193258Y0063105D01*
X0193258Y0062104D01*
X0192758Y0061604D01*
X0193258Y0088381D02*
X0190256Y0088381D01*
X0190256Y0089882D01*
X0190756Y0090383D01*
X0191257Y0090383D01*
X0191757Y0089882D01*
X0191757Y0088381D01*
X0191757Y0089882D02*
X0192258Y0090383D01*
X0192758Y0090383D01*
X0193258Y0089882D01*
X0193258Y0088381D01*
X0192758Y0091604D02*
X0190756Y0091604D01*
X0190256Y0092104D01*
X0190256Y0093105D01*
X0190756Y0093605D01*
X0190756Y0094826D02*
X0190256Y0095327D01*
X0190256Y0096328D01*
X0190756Y0096828D01*
X0191257Y0096828D01*
X0191757Y0096328D01*
X0191757Y0094826D01*
X0190756Y0094826D01*
X0191757Y0094826D02*
X0192758Y0095827D01*
X0193258Y0096828D01*
X0192758Y0093605D02*
X0193258Y0093105D01*
X0193258Y0092104D01*
X0192758Y0091604D01*
D12*
X0150956Y0095409D02*
X0150956Y0102102D01*
X0147806Y0102102D02*
X0147806Y0095409D01*
X0145331Y0095409D02*
X0145331Y0102102D01*
X0142181Y0102102D02*
X0142181Y0095409D01*
D13*
X0143756Y0098756D03*
X0149381Y0098756D03*
D14*
X0173638Y0106856D02*
X0173638Y0115124D01*
X0183874Y0115124D01*
X0183874Y0106856D01*
X0173638Y0106856D01*
X0175213Y0108431D02*
X0175213Y0110793D01*
X0177575Y0110793D01*
X0179937Y0110793D01*
X0179937Y0113549D01*
X0182299Y0113549D01*
X0182299Y0110793D01*
X0179937Y0113549D02*
X0177575Y0113549D01*
X0177575Y0110793D01*
X0177575Y0108825D01*
X0175213Y0110793D02*
X0175213Y0113549D01*
X0185449Y0115124D02*
X0185449Y0106856D01*
M02*
